<svg id="Layer_1" data-name="Layer 1" xmlns="http://www.w3.org/2000/svg" xmlns:xlink="http://www.w3.org/1999/xlink" viewBox="0 0 3825.42 2550.28"><defs><style>.cls-1{fill:none;}.cls-2{clip-path:url(#clip-path);}.cls-3{fill:#fdf8f3;}.cls-4{fill:#867878;}.cls-5{fill:#574b3e;}.cls-6{fill:#746353;}.cls-7{fill:#bfa7db;}.cls-8{fill:#fadcc4;}.cls-9{fill:#92c896;}.cls-10{fill:#927151;}.cls-11{fill:#7b574e;}.cls-12{fill:#483636;}.cls-13{fill:#624d4c;}.cls-14{fill:#ee9786;}.cls-15{fill:#2d2828;}.cls-16{fill:#d4c4e7;}.cls-17{fill:#6eb673;}.cls-18{fill:#dfd5cb;}.cls-19{fill:#ae957c;}.cls-20{fill:#fff;}.cls-21{fill:#946cc3;}</style><clipPath id="clip-path"><rect class="cls-1" y="5.04" width="3826.29" height="2554.6"/></clipPath><image id="image" width="2500" height="2500" xlink:href="../../elements-tree-doodles-BR9YRP-2016-06-15/Tree_Doodles/Watercolor_Trees/Round_Watercolor_Tree_01.png"/><image id="image-2" width="2500" height="2500" xlink:href="../../elements-tree-doodles-BR9YRP-2016-06-15/Tree_Doodles/Watercolor_Trees/Round_Watercolor_Tree_03.png"/><image id="image-3" width="2500" height="2500" xlink:href="../../elements-tree-doodles-BR9YRP-2016-06-15/Tree_Doodles/Watercolor_Trees/Round_Watercolor_Tree_02.png"/></defs><g class="cls-2"><circle class="cls-3" cx="1771.19" cy="1389.59" r="139.67"/><path class="cls-3" d="M3615.72,2140.7c20.09-23.79,12.88-78.44-4.74-104.11s-43.55-44.44-63.31-68.5c-81.48-99.19-36.65-248.12-67-372.85-19.59-80.51-73.37-152.12-145.23-193.37s-160.82-51.59-240.23-27.91c-77.95,23.25-147.78,77.6-229.09,79.64-111.46,2.81-198.44-91.2-269.18-177.38s-157.66-180.21-269.11-177.5c-89.17,2.17-165.34,69.06-210.16,146.17s-66,165.3-98.37,248.39-80.65,165.89-159.44,207.7c-57.19,30.35-124.32,35.78-184.3,60.15C1535.7,1818,1437.62,1991,1478.73,2136.23Z"/><ellipse class="cls-4" cx="2720.72" cy="2136.23" rx="274.35" ry="10.69"/><ellipse class="cls-4" cx="3368.03" cy="2136.23" rx="274.35" ry="10.69"/><path class="cls-5" d="M2527.61,2069.15l-4.48,17.79s61.87,29.07,64.14,50h0a62.88,62.88,0,0,1-46.42,4.07l-67.3-20.25a10.16,10.16,0,0,1-7-12.05l12.37-52.47Z"/><polygon class="cls-6" points="2469.5 2057.81 2489.46 1982.6 2545.66 2000.94 2530.1 2075.43 2469.5 2057.81"/><path class="cls-7" d="M2488.68,1330.54c26.83-22.35,61.58-33.77,96.37-36.74,22.68-1.94,102.82,1.43,124.54,8.25s-15,17.27-.44,34.76c3,3.63,5.93,7.83,6,12.57.06,7.29-6.45,12.73-12.46,16.86a405.42,405.42,0,0,1-227.59,70.69c-6.25,0-12.61-.16-18.54-2.14-20.72-6.89-10.9-35.44-5.41-50.94A123.93,123.93,0,0,1,2488.68,1330.54Z"/><path class="cls-5" d="M2738.51,2075.43l2.81,18.13s68.32,2.62,78.56,21h0a62.89,62.89,0,0,1-41.15,21.87l-69.87,7.62a10.16,10.16,0,0,1-11.11-8.38l-9.08-53.14Z"/><polygon class="cls-6" points="2684.79 2090.6 2682.86 2060.65 2735.55 2051.78 2743.24 2082.76 2684.79 2090.6"/><path class="cls-8" d="M2757.39,1257.89c-56.8,23.21-108.29,51.34-149.53,96.77,31.15,2.55,63.16,2.19,94-2.49,9.88-1.5,20.1-3.52,28.09-9.52,9.34-7,14.25-18.35,18-29.41C2755.35,1291.6,2755.92,1280.7,2757.39,1257.89Z"/><path class="cls-9" d="M3506,1914.66c-.08-.7-1.54-3-1.8-4-.49-1.82-.7-3.65-1.38-5.48-1.38-3.73-3.12-7.64-5.78-10.64-2.23-2.53-6.21-4-7.73-7.06-2.52-5,1-11.92,4.64-15.32,1.42-1.31,2.21-.54,2.77-2.68.35-1.32-2-5.69-2.42-7.32-1.83-7.29-3.21-12.7-11.06-14.92-2.37-.67-12.33-.07-13.62-2.15-.94-1.49,1.66-3.44,1.48-5.34-.26-2.64-5.33-7.89-7.15-9.35-4.71-3.76-9.28-3.37-8.1-10.32.49-2.89,2.39-5.35-.7-7.13-2.88-1.66-7.29-.49-10.54-2.16-3.74-1.92-6.69-5-10.7-6.47-5.56-2.09-14.8-3.8-20.66-1.91-5.27,1.7-9.6,7.45-12.76,11.68-1.59,2.14-3.11,5.67-5.79,6.57-3.75,1.26-7.76-2.72-11.73-.9-8.73,4-1.7,11.38-5.28,16.89-2.36,3.63-2.39,0-4-1.34s-3.73-1.15-5-2.4c-2.34-2.28-.75-4.27-5.14-3.22a7.43,7.43,0,0,0-5.82,6.07c-1.39,7.33,9.84,20.27,1.88,26.42-1.62,1.26-4.89,1.47-6.95,2.92-2.91,2-4.26,3.27-4.12,7,.16,4.16,4.12,11.71,1.1,15.41-1.68,2-8.9,2-11.52,2.2,5.33,3.35,12.71,4.72,14.49,12.31.69,3-1.91,7-.55,9.77,1.2,2.48,6.5,3.62,8.84,4.55,1.82.72,5.94,1.74,7.13,3.5s-.27,3.73.12,5.38c.91,3.92,5.46,3.5,9.24,4.8.79.27,4.08,1.06,4.44,1.65.66,1.05-.8,1.82-.59,2.88.55,2.73,2.28,4.09,4.82,5.63,2.79,1.68,4.43,1.7,7.22.06,1-.57,4.07-4.61,4.71-4.66,1.56-.13,2.62,3.64,3.91,4.41,2.66,1.59,9.29,1.23,10.72-1.88a20.39,20.39,0,0,0,4.62-.36,25.81,25.81,0,0,1,3.55-.38c2.07.26,2.25,1.19,3.95,2,3,1.46,8.71,1.41,11.11-1.22,2.16-2.37,1.58-5.13,5.51-5.1,7.7,0,2.22,8,6.44,10.09.9.44,6.93-.9,8.15-1.09,1.83-.28,3.16-1.23,4.84-1.75,4-1.25,7.31-1.14,10.49,2s3.41,5.93,7.89,4.45c6.07-2,7.89-4.44,10.31-10.19,1.63-3.88-.65-6,.33-10,1.17-4.75,5.09-5.94,9.45-7S3506.47,1918.12,3506,1914.66Zm-134.48-40.55a8.52,8.52,0,0,0-1.95,2.66c-.29.74-.48,1.82-1.37,2.1-1.83.57-4.2-2.83-4.08-3.91,1.74,0,3.5-2.28,4.85-3.21.58-.41,1.19-.84,1.77-1.21C3371.43,1871.54,3372.44,1873.11,3371.56,1874.11Zm73.87,30.93c-2,1.52-5,1.51-7.22,2.81-1.79,1.06-3.34,2.08-3.84,4.33a13.52,13.52,0,0,0-.51-1.52c-3.4,2-1.73,7.31-6.53,4.8-4.34-2.26-.54-5-.44-8.48.08-2.81-1.43-5.74-.54-8.4a24.48,24.48,0,0,0,1.25-6c2.79-1.23,3.47-1.89,5.89-.18,1.45,1,2.19,2.66,3.9,3,1,.22,2.21.19,3.21.39a5.55,5.55,0,0,0,3.74-.21c-.54,2.5-.87,4.28.9,6.41C3446.24,1903.25,3447.15,1903.74,3445.43,1905Z"/><path class="cls-10" d="M3453.82,2009.65c-14.85-27.09-33.51-64.15-16.52-90,5.32-8.09,11-15.58,16.31-23.67-2.14-1.55-3.51-2.71-5.64-4.26-5.64,7.09-12.65,14.61-18.28,21.7.64-13.66,2.25-27.27,2.89-40.93-2.85-.36-5.71,0-8.56-.32-2.44,9.22-4.43,19.32-6.87,28.54a34.18,34.18,0,0,1-8.2-13.16c-1.64.87-3.19,2.67-4.84,3.53,3.89,21.1,6.26,42.85,2.37,63.94s-14.76,41.63-32.72,53.35C3400,2017.05,3427.44,2017.93,3453.82,2009.65Z"/><path class="cls-9" d="M2383,1360.61c-.64-.28-3.4-.21-4.38-.49-1.82-.5-3.5-1.25-5.43-1.59-3.91-.71-8.16-1.2-12.1-.43-3.31.64-6.62,3.31-10,3.08-5.6-.37-9.79-6.88-10.85-11.78-.41-1.89.66-2.18-.9-3.74-1-1-5.92-1.16-7.54-1.64-7.2-2.12-12.57-3.68-18.46,2-1.78,1.7-6.32,10.58-8.77,10.64-1.76.05-2.12-3.18-3.85-4-2.41-1.11-9.5.59-11.69,1.42-5.63,2.15-7.61,6.28-13,1.74-2.24-1.89-3.4-4.78-6.5-3-2.89,1.64-4.12,6-7.21,8-3.55,2.25-7.68,3.24-11,5.94-4.62,3.73-10.78,10.82-12.13,16.83-1.21,5.4,1.54,12,3.58,16.92,1,2.46,3.31,5.56,2.72,8.32-.81,3.87-6.28,5.31-6.73,9.65-1,9.55,8.94,7.24,11.87,13.13,1.93,3.87-1.18,2.07-3.19,2.78s-2.89,2.63-4.61,3.1c-3.15.86-4.06-1.53-5.39,2.79a7.46,7.46,0,0,0,2.28,8.1c5.61,4.92,22.46,1.81,23.71,11.79.27,2-1.21,5-1,7.47.29,3.55.66,5.33,3.92,7.09,3.66,2,12.18,2.39,13.83,6.87.91,2.49-2.8,8.68-3.95,11,5.59-2.89,10.52-8.56,18-6.24,2.92.92,5,5.19,8.14,5.44,2.74.22,6.42-3.77,8.4-5.31,1.55-1.2,4.52-4.23,6.64-4.37s3.08,2.13,4.7,2.63c3.83,1.21,5.78-2.92,8.82-5.52.64-.54,3-3,3.68-3,1.24,0,1.16,1.61,2.18,2,2.63.91,4.68.11,7.3-1.29,2.86-1.55,3.71-3,3.71-6.19,0-1.13-1.9-5.85-1.62-6.43.68-1.41,4.47-.4,5.79-1.13,2.72-1.48,5.77-7.37,3.82-10.19a20.42,20.42,0,0,0,2-4.16,25.33,25.33,0,0,1,1.48-3.25c1.27-1.65,2.17-1.33,3.74-2.38,2.79-1.87,5.63-6.79,4.59-10.19-1-3.07-3.62-4-1.6-7.34,3.94-6.61,8,2.16,12-.43.84-.55,2.74-6.42,3.2-7.57.69-1.72.54-3.35.95-5.06,1-4.11,2.73-6.88,7-8s6.84.07,7.84-4.54c1.35-6.25.18-9-3.54-14.06-2.52-3.37-5.52-2.49-8.44-5.35-3.5-3.42-2.53-7.4-1.26-11.71S2386.2,1362,2383,1360.61Zm-103.21,95.28a8.62,8.62,0,0,0,1.3,3c.49.62,1.33,1.33,1.12,2.24-.44,1.87-4.57,2.18-5.44,1.53.84-1.52-.19-4.17-.31-5.81-.06-.7-.12-1.45-.14-2.13C2277.51,1454.69,2279.38,1454.62,2279.79,1455.89Zm64.15-47.94c.3,2.49-1.25,5.1-1.24,7.64,0,2.08.09,3.94,1.78,5.51a12.62,12.62,0,0,0-1.57-.33c0,3.93,5.42,5.2.82,8.06-4.15,2.59-4.57-2.06-7.53-3.93-2.38-1.49-5.67-1.68-7.51-3.79a24.46,24.46,0,0,0-4.52-4.12c.36-3,.14-4,2.84-5.16,1.62-.73,3.4-.54,4.6-1.82.7-.77,1.28-1.81,2-2.57a5.53,5.53,0,0,0,1.72-3.33c1.88,1.74,3.25,2.93,6,2.48C2342.81,1406.34,2343.69,1405.81,2343.94,1408Z"/><path class="cls-10" d="M2438.33,1453.83c-30.88-1-72.28-3.7-85.9-31.44-4.27-8.7-7.85-17.38-12.12-26.07-2.41,1-4.11,1.64-6.53,2.69,3.25,8.46,6.17,18.32,9.42,26.77-11.45-7.49-22.35-15.79-33.8-23.28-1.76,2.27-2.86,4.94-4.62,7.22,6.7,6.78,14.4,13.62,21.1,20.41a34.11,34.11,0,0,1-15.5.38c-.09,1.85.68,4.1.59,6,20.15,7.36,40.09,16.36,56.28,30.42s28.38,33.86,29.36,55.29C2417.39,1503.93,2432.06,1480.76,2438.33,1453.83Z"/><path class="cls-9" d="M3011.81,1343.17c.93,3.14,1.63,6-.91,8.52-2.13,2.08-4.31,1.45-6.14,3.9-2.72,3.64-3.56,5.68-2.58,10.23.72,3.35,2.62,2.47,5.7,3.3s4.4,2.87,5.1,5.85a23.84,23.84,0,0,0,.7,3.68c.33.84,1.72,5.11,2.32,5.52,2.85,1.88,5.84-4.51,8.71.31,1.47,2.45-.48,3.1-1.16,5.33-.77,2.48,1.3,6.06,3.34,7.42,1.14.76,1.79.53,2.72,1.73a21.31,21.31,0,0,1,1.07,2.37,14.5,14.5,0,0,0,1.48,3c-1.42,2,.8,6.33,2.78,7.41,1,.53,3.72-.2,4.21.83.21.42-1.18,3.85-1.18,4.67,0,2.36.62,3.38,2.7,4.51,1.91,1,3.4,1.6,5.31.94.75-.26.69-1.46,1.59-1.44.51,0,2.22,1.78,2.68,2.18,2.21,1.89,3.63,4.89,6.42,4,1.18-.37,2-2,3.42-1.92s3.7,2.31,4.83,3.18c1.44,1.12,4.12,4,6.11,3.86,2.26-.18,3.8-3.28,5.93-3.95,5.41-1.69,9,2.43,13.07,4.53-.84-1.72-3.55-6.22-2.88-8,1.2-3.26,7.4-3.57,10.07-5,2.37-1.28,2.63-2.58,2.84-5.16.15-1.83-.92-4-.73-5.44.91-7.26,13.17-5,17.25-8.58a5.42,5.42,0,0,0,1.66-5.89c-1-3.14-1.62-1.41-3.92-2-1.25-.34-2-1.77-3.35-2.26s-3.73.8-2.33-2c2.13-4.28,9.36-2.6,8.64-9.55-.33-3.16-4.3-4.21-4.9-7-.42-2,1.23-4.27,2-6.06,1.49-3.55,3.49-8.38,2.61-12.32-1-4.37-5.47-9.53-8.83-12.24-2.42-2-5.42-2.68-8-4.32-2.25-1.42-3.14-4.62-5.25-5.81-2.26-1.28-3.1.82-4.73,2.2-3.92,3.3-5.36.29-9.46-1.27-1.59-.6-6.75-1.84-8.5-1-1.26.59-1.52,2.94-2.8,2.9-1.78,0-5.09-6.5-6.38-7.74-4.29-4.1-8.2-3-13.44-1.42-1.17.34-4.79.48-5.48,1.18-1.14,1.15-.36,1.36-.66,2.73-.77,3.56-3.82,8.3-7.89,8.57-2.46.17-4.87-1.78-7.28-2.24a24.41,24.41,0,0,0-8.81.31,40.86,40.86,0,0,0-3.94,1.16c-.72.2-2.73.15-3.2.36C3010,1338.17,3010.89,1340.07,3011.81,1343.17Zm78.13,62.49c0,.5-.06,1-.1,1.55-.09,1.19-.84,3.12-.22,4.23-.63.47-3.64.24-4-1.12-.15-.66.45-1.17.81-1.63a6.36,6.36,0,0,0,1-2.21C3087.72,1405.56,3089.08,1405.62,3089.94,1405.66Zm-47.26-35c2,.32,3-.55,4.35-1.81a4.06,4.06,0,0,0,1.25,2.42c.5.56.92,1.31,1.43,1.87.87.93,2.17.8,3.35,1.32,2,.89,1.8,1.56,2.06,3.76a18.08,18.08,0,0,0-3.28,3c-1.34,1.54-3.74,1.67-5.47,2.76-2.16,1.36-2.46,4.74-5.48,2.86-3.35-2.08.61-3,.6-5.87a8.62,8.62,0,0,0-1.14.24c1.22-1.14,1.29-2.49,1.29-4,0-1.86-1.12-3.75-.9-5.57C3040.92,1370,3041.56,1370.43,3042.68,1370.62Z"/><path class="cls-10" d="M2972.05,1405c22.48-.7,52.6-2.7,62.51-22.88,3.11-6.33,5.71-12.64,8.82-19,1.76.77,3,1.19,4.75,2-2.36,6.15-4.49,13.33-6.85,19.48,8.33-5.45,16.26-11.49,24.59-16.94,1.28,1.65,2.08,3.59,3.36,5.25-4.87,4.94-10.47,9.91-15.35,14.85a24.85,24.85,0,0,0,11.28.28c.06,1.35-.49,3-.43,4.34-14.66,5.35-29.17,11.9-41,22.14s-20.64,24.63-21.36,40.22C2987.29,1441.45,2976.61,1424.59,2972.05,1405Z"/><path class="cls-10" d="M3617.3,1968.85c-9.48,11-19.06,22.13-25.19,35.27s-8.48,28.72-3,42.15c.14.33-4.69.33-5.07.27a10.89,10.89,0,0,1-4.92-1.88c-2.2-1.75-1.92-3.79-1.67-6.4a94.63,94.63,0,0,1,4-19.35,99.94,99.94,0,0,1,19.32-34.81A95.06,95.06,0,0,1,3617.3,1968.85Z"/><path class="cls-9" d="M3584.43,1976.65a30.81,30.81,0,0,0-9.35-.38l-16.53,1c-.3,5,2.52,9.85,6.53,12.83s9.09,4.27,14.08,4.54c4.12.21,17,.51,16.81-5.57C3595.81,1983.31,3589.6,1977.92,3584.43,1976.65Z"/><path class="cls-9" d="M3609.88,2006c4.44,4.66,9.31,9.69,15.68,10.64a19,19,0,0,1-32.68-10.12c-.55-3.59-.21-10.8,4.94-9.69C3602.49,1997.81,3606.74,2002.67,3609.88,2006Z"/><path class="cls-11" d="M2967.67,1326.09c-13.67,4.79-27.54,9.7-39.4,18s-21.64,20.7-23.59,35.06c0,.36-4.24-2-4.54-2.29a11,11,0,0,1-3.33-4.08c-1-2.61.22-4.24,1.74-6.38a94.43,94.43,0,0,1,13.09-14.8,100,100,0,0,1,34.09-20.57A94.84,94.84,0,0,1,2967.67,1326.09Z"/><path class="cls-9" d="M2935.29,1316.49a31.27,31.27,0,0,0-7.92-5l-14.84-7.35c-2.74,4.18-2.72,9.79-.72,14.38s5.76,8.22,10,10.94c3.46,2.23,14.47,8.9,17.35,3.54C2941.84,1327.93,2939.14,1320.17,2935.29,1316.49Z"/><path class="cls-9" d="M2942.77,1354.57c1.53,6.26,3.25,13,8.3,17a19,19,0,0,1-23.3-25c1.3-3.38,5.19-9.47,9.1-5.93C2940.42,1343.83,2941.69,1350.16,2942.77,1354.57Z"/><path class="cls-10" d="M2264.56,1616.32c13.93,4,28.08,8,42.58,8.1s29.63-4.34,39.53-14.93c.25-.26,2.27,4.13,2.37,4.5a10.89,10.89,0,0,1,.36,5.25c-.67,2.73-2.63,3.33-5.11,4.2a94.86,94.86,0,0,1-19.24,4.49,99.84,99.84,0,0,1-39.7-3A94.32,94.32,0,0,1,2264.56,1616.32Z"/><path class="cls-9" d="M2285.41,1642.9a30.92,30.92,0,0,0,3.58,8.65q3.91,7.29,7.84,14.59c4.65-1.83,7.88-6.42,8.91-11.31s.07-10-1.79-14.69c-1.52-3.82-6.65-15.63-12.09-12.93C2286.7,1629.78,2284.41,1637.67,2285.41,1642.9Z"/><path class="cls-9" d="M2301.36,1607.51c2.38-6,4.9-12.51,3.1-18.69a19,19,0,0,1,4.5,33.91c-3,2-9.72,4.72-10.86-.43C2297.06,1617.64,2299.69,1611.74,2301.36,1607.51Z"/><circle class="cls-12" cx="2425.8" cy="1106.15" r="45.53" transform="translate(-191.3 1614.93) rotate(-35.51)"/><path class="cls-13" d="M2549.84,1185.93a100.5,100.5,0,0,0,8.21-60.83c-1.73-9.62-5.16-19.4-12.38-26s-19-9-27-3.3a70.84,70.84,0,0,0-51-13.58,69.85,69.85,0,0,0-45.39,26.23c-8.15,10.58-13.06,23.33-16.21,36.29-4.23,17.42-5.3,36.5,2.5,52.63,9.31,19.25,29.21,30.72,48,41,5.77,3.17,12,6.45,18.55,5.9s12.15-4.82,17.31-8.92C2512.26,1219.57,2538.9,1208.79,2549.84,1185.93Z"/><path class="cls-8" d="M2488.07,1283.56l9.29,41.8a28.34,28.34,0,0,0,33.81,21.52h0a28.35,28.35,0,0,0,21.52-33.82l-9.29-41.79s-3.08,12.73-23.74,17.32S2488.07,1283.56,2488.07,1283.56Z"/><path class="cls-14" d="M2485.1,1270.16l3,13.4s10.91,9.63,31.59,5,23.74-17.32,23.74-17.32l-3-13.4Z"/><path class="cls-8" d="M2515.29,1275.38h0a56.14,56.14,0,0,0,42.63-67L2538,1118.92l-109.61,24.35,19.88,89.48A56.14,56.14,0,0,0,2515.29,1275.38Z"/><path class="cls-8" d="M2439.06,1203l2.51-.56-6.76-30.45-2.52.56a15.61,15.61,0,0,0-11.84,18.61h0A15.59,15.59,0,0,0,2439.06,1203Z"/><path class="cls-14" d="M2435.8,1176.63c-6.47,2.39-11.1,5.52-9.39,13.19,1.86,8.38,7.22,8.55,14.09,8Z"/><path class="cls-13" d="M2516.37,1152a34.54,34.54,0,0,1,26.49,3c3.55,2,.16,7.24-3.37,5.3a28.21,28.21,0,0,0-21.76-2.2C2513.85,1159.32,2512.51,1153.18,2516.37,1152Z"/><path class="cls-13" d="M2477.45,1158.33a34.49,34.49,0,0,0-22.72,14c-2.38,3.27,2.92,6.62,5.3,3.37a28.24,28.24,0,0,1,18.79-11.21C2482.81,1163.85,2481.43,1157.72,2477.45,1158.33Z"/><path class="cls-14" d="M2482.11,1233.44a2.53,2.53,0,0,1,3.53.13,31.84,31.84,0,0,0,22.51,11.35c3.2.18,3,5.18-.26,5a36.78,36.78,0,0,1-25.91-13A2.55,2.55,0,0,1,2482.11,1233.44Z"/><path class="cls-13" d="M2546,1150.22s-36.82.83-63.89-20.25c0,0,53-18.77,55.17-14.62S2546,1150.22,2546,1150.22Z"/><path class="cls-13" d="M2483.25,1131.1s-48.29,8.18-48.44,40.88l-8.56,3.36-6.2-36.29L2482,1125.3Z"/><path class="cls-14" d="M2507.21,1187.11a58.22,58.22,0,0,0,21.53,24.32,2.53,2.53,0,0,1-.17,4.32l-12.31,8.26a2.52,2.52,0,0,1-3.38-1,2.56,2.56,0,0,1,1-3.38l9-6a63,63,0,0,1-20.15-24.08C2501.42,1186.55,2505.83,1184.2,2507.21,1187.11Z"/><path class="cls-15" d="M2465.79,1192.19a7.22,7.22,0,1,1,8.61,5.49A7.21,7.21,0,0,1,2465.79,1192.19Z"/><path class="cls-15" d="M2463.18,1189.68l9-2-.91-4.1-9,2a2.1,2.1,0,0,0-1.6,2.51h0A2.09,2.09,0,0,0,2463.18,1189.68Z"/><path class="cls-15" d="M2523.37,1179.4a7.22,7.22,0,1,1,8.62,5.48A7.23,7.23,0,0,1,2523.37,1179.4Z"/><path class="cls-15" d="M2538.78,1172.89l-9,2-.91-4.11,9-2a2.11,2.11,0,0,1,2.51,1.6h0A2.09,2.09,0,0,1,2538.78,1172.89Z"/><path class="cls-16" d="M3106.38,1695.93q0,2.88-.06,5.76c-3.07,210.33-174.53,379.89-385.59,379.89-213,0-385.67-172.66-385.67-385.65a388.85,388.85,0,0,1,3.92-55.16,382.65,382.65,0,0,1,28.63-100.14c59.75-135.65,195.37-230.35,353.12-230.35,5.13,0,10.25.1,15.33.3,114.28,4.47,215.78,58.66,283.47,141.53A384.29,384.29,0,0,1,3094.07,1599q2,7.8,3.72,15.74,3.72,17.28,5.84,35.11A388.06,388.06,0,0,1,3106.38,1695.93Z"/><path class="cls-7" d="M2718.25,1994.47c-6.37.74-14.81,1-21-1.2-10.46-3.68-12.73-12.79-18.91-20.93-11.62-15.26-25.58-27.5-39-40.93-12.44-12.43-16.06-31.38-27.94-43.78-5.18-5.39-2.63-2.87-8.46-2.1-5.51.74-9.43,1.11-14.06-3.68-5.71-5.92-1.16-10.28-9.92-11.9-6-1.11-11.35-.26-17.25-3-4.58-2.1-7.85-4.64-12.71-6.28-14.87-5-17.62-13-19.35-28.63-.75-6.76-.65-14.79,1.27-21.29-8.71-2.91-19.65-1.61-28.17-4.63-9.23-3.26-12.67-2.49-22.08.4-11.19,3.43-18.89-3.71-29.71-7.89-6.79-2.61-11.58-4-16.85-9.28-5.55-5.59-5.69-10.32-8.69-16.57-4.58-9.52-20.2-10.14-28.79-14.77-13.05-7-12.65-18.69-11.29-31.94,2-19.52-5.43-29.23-15.52-45-6.26-9.82-11.18-19.38-18-28.5-3.52-4.71-8.77-7.63-12.84-11.8a382.65,382.65,0,0,1,28.63-100.14c6.5,2.91,14.48,3.69,19.66.38,5.4-3.45,8-11.71.47-14.06-4.22-17.94,9-28.88,17.71-42.8,3.69-5.85,8.62-13.4,14.39-17.52,2.53-1.81,4.95-1.82,7.31-4.05,4.47-4.21,4.91-10.54,8.41-15.41,4.32-6,11.75-10.05,17-15.41,6.63-6.83,12.89-14,19.71-20.68,3.48-3.41,16.19-17.21,20.91-16.09,15.4,3.66-9.6,34.23-11.41,36.61-3.91,5.14-23.92,24.34-22.87,30.63.61,3.69,9.74,9,13.31,11.92s9.07,4.81,11.86,7.81c3.59,3.85,2.34,8,4.36,12.43,2.52,5.51,15.4,10.51,8.9,16.35-2,1.79-10,1.94-12.53.87-5.12-2.16-3-4.47-5.86-8.44-4.29-6-13.72-5.22-20.29-7.44-11.53-3.89-22.51-1.51-26.69,12.1-3.81,12.35,12.26,10.37,16.27,19.56,6,13.83-11.13,24.73-18.64,33.1-4.58,5.11-10.59,11.76-11.32,18.74-1.1,10.71,5.73,12.94,13.22,17.71,6.07,3.88,28,29.08,30.41,8.64,1.12-9.36-8-18.12-8-27.47,0-5.06,1.43-15.12,4.34-19.51,4.38-6.61,13.75-8.69,20-4.32,5.72,4,5,9.25,5,15.41a22.52,22.52,0,0,0,2.09.88c7.51,2.65,10.72-2.3,17.12,7.09,1.5,2.21,3.19,5.84,2.87,8.58-.28,2.42-3.82,3.83-3.61,6.41.7,8.57,7.55.77,12.14,3.9,8.14,5.54-11,10.39-14.3,12-5.43,2.54-16.81,7.69-10,14.25,5.81,5.61,15.2-1.19,20.91,3.23,7.76,6,1.75,16.31-2.69,22-7.7,9.82-19.15,17.45-21.66,30.56-1.64,8.53,2.43,17.12,6,23.59,1.9,3.42,4.65,2.21,2.14,7.85-2.39,5.38-7.46,5.42-12.42,4-1.63,11.54,11,17.91,11.28,29.8-3.73-.15-12.1-.23-15.67,1.48-5,2.38-6.71,9.8-12.38,11.82s-25.44-9.65-18.63,5.9c2.63,6,9.73,6.59,14.44,10.16a48.41,48.41,0,0,1,10.32,11.37c-.22-4.2,1-9.07,3.06-11,3-2.92,13.55-4.52,17.63-3.33,6.52,1.89,5.73,5.47,7.52,11.31,1.69,5.5,6.89,6.91,8,11.55,9.85,6.68,16.71,2.25,26.25,4.9-.33-9,5.25-10.11,10.66-16.3,6.26-7.16,12.55-13.07,23.37-8.52,11.72,4.94,6.85,13.13,22,4.57,8.78-5,11.34-5.75,19.18.26a110.94,110.94,0,0,1,13.31,12.24c4.73,5,14.51,2.26,20.69,1.46,6.77-.87,11.64,1.51,18.56,2.14,5.33.49,13.81-2.84,18.5-.25,5.71,3.17,4.87,9.65,1.46,13.72-4.73,5.63-12.21,7.54-12.16,16.43.06,9.17,6.49,5.49,12.68,9.95,6.79,4.9,8.11,14.76,6.62,22.35-.43,2.18-1.31,8.2-2.85,9.68-2.27,2.18-4.79,0-6.92,1.46-3.77,2.55-5.69,10.39-3.64,15.91,1.6,4.32,6.08,6.1,6.87,11.22s-1.83,8.49-3.71,13c-2.89,7-6.77,18.71-4.6,26.45,1.69,6,9.58,12.85,12.89,18.1,4.94,7.81,8.5,16.5,14.65,23.57C2705.65,1980.49,2718.56,1986.89,2718.25,1994.47Z"/><path class="cls-7" d="M2551.58,1366.68c-4.26.78-11.21-2.75-14.64-1.39-4.68,1.85-3.24,10.4-5.37,13.75-2.82,4.43-9.54,6.48-12.48,11.34-2.37,3.93-2.67,8.32-3.15,12.68-1.45,13.24-4.79,22.27-17.5,29.61-4.39,2.54-7.24,2.87-9.59,7.55-5.24,10.43,1.46,11.23,8.23,15.7,9.69,6.4,9.89,23.64,11.44,33.95.8,5.33,2.33,23,7.37,27s15.05-1.14,18.4-5.09c4.52-5.33,2.81-13.36,5.17-19.46s3.61-5,9.58-8c11.16-5.49,23.57-14.35,19.62-27.18a209.17,209.17,0,0,0-7.77-19.84c-1.5-3.53-5.76-8.53-4.21-12.73.71-1.92,7.81-7,9.52-9.35,8.63-11.92,8.67-21.71.69-33.55-1.1-1.62-2.32-5.85-3.87-7-2.87-2.15-3.36-.2-6.41-1.24C2553.24,1372.29,2551.7,1373.32,2551.58,1366.68Z"/><path class="cls-7" d="M2600.06,1457.93c-4.94-.36-16.34,6-17.76,11.11-1.32,4.76,2.74,8.79-.7,14.41,7.11.56,20.92-.18,24.21-8.32,1.56-3.86-1.35-14-1.58-18.52A4.5,4.5,0,0,0,2600.06,1457.93Z"/><path class="cls-7" d="M2621.44,1346.72c-5.14,3-8,11.35-11.41,16-1.47,2-3.69,2.21-4.18,5.22,7.51,4.32,27.16,15.35,29.14,2.63.91-5.82-2.75-10.59-3.57-16.19C2630.78,1350,2630.56,1343.64,2621.44,1346.72Z"/><path class="cls-7" d="M2701.28,1316.07c-5.53,5.83-16.52,11.19-10.69,20.84,2.83,4.68,5.85,3.12,10,5.7,3,1.88,4,5.11,6.2,7.68,4.75,5.56,16.05,9.19,21.92,1.72,4.42-5.62-1.77-8.37-5.19-13-3.93-5.34-1.52-8.65-3.7-14C2717.77,1320,2710.11,1319.22,2701.28,1316.07Z"/><path class="cls-7" d="M3034,1540.71c-4.66,2.77-8.62-1.25-11.27-5.51-5.33,8.91-9.39,1.6-16-.55-7.52-2.43-15.1-1-18.81,5.17-8.52,14.21,11.12,31.85,4.81,45.58-6.43,1.39-14.29-7.08-18.24-11.25-8.93-9.45-18.51-16-28.61-24.26-7.59-6.22-15.52-13.14-24.57-17.33-7.65-3.55-16.76-3.33-24.79-1.45-3.48.82-21.66,3.13-23.51,6.66-3.56,6.82,14.39,17.55,18.52,21.57,6.21,6,10.93,9.56,9.81,18.3-1.19,9.09-3.44,15-12,18.64-4.42,1.88-17.61,7-21.11,3.6-3.35-3.27-2.83-11.57-5.27-16-5.5-10-13.75-12.48-23.43-17.33-.8,8.33,9.43,19.76,14.66,25.57,2.86,3.17,6.75,5.13,9.73,8.08,6.35,6.31,10.43,15.31,17.63,20.87,15.08,11.62,20.79-2.78,32.39-9.22,8.58-4.76,9.19,1.29,9.08,9.14-.08,7-1.64,14.87-5,21-3.56,6.62-9.48,11.58-11.45,19.22-3.86,14.92,6.38,28,5,43-.51,5.45-2,9.7-.5,15.31,1.22,4.64,3.69,8.91,4.62,13.72,2.47,12.64-2.35,25.56-3,38.32-.79,15.21-2.24,32.71-19.11,38.56-10.87,3.77-18.81-7.27-26.14-14.13s-13.1-14.34-19.6-21.92c-5.53-6.44-14.39-13.45-18.59-20.68-3.35-5.78-2.62-19.9-1-26.73-3.48-7.63-7.29-5.94-14.63-9.21-4.56-2-9-7-12.55-10.42-3.84-3.72-5-9.06-8.57-12.68-7.19-7.29-19-2.81-26.1,2.31-6.65,4.8-10.33,12.69-17.59,16.88-7,4-16.85,4-24.83,3-8.56-1.11-21.16-5.86-23.74-15.34-2.07-7.65,3.53-13.47-2-21.12-4.71-6.48-13.31-7.51-18.23-14.25-5.38-7.35-10.61-20.34-2.52-27.63,6.58-5.93,17.54-1.27,20.37-9.69,3.68-10.91-8.29-11.49-1.14-21.4,7.29-10.08,18.17-31,30.91-36.06,6.88-2.75,3.59-1.39,7.11,3,3.29,4.11,3.73,4.6,9.48,5.74a91.84,91.84,0,0,0,31.52.71c10.16-1.73,18.83-11.06,28.48-15.18,5-2.12,13.6-3.65,17.54-7.11,4.48-3.94,3.81-7.8,3-13.39-1.11-7.41-5.36-15.18-12.82-15.12-6.2,0-14.64,7.64-20.68,2.5-5.57-4.75-.8-12.73,2.65-17.12,5.65-7.19,10.85-8.45,19.6-10,5.39-1,11.3-2.3,9.83-10.14-1.06-5.56-4.89-5.35-10.17-5.7-8.12-.54-15.7-.17-23.18,2.87-9.4,3.81-9.54,7-12.27,16.38-2,6.94-6.42,10.77-7.13,17.1-.78,7.13-1.49,12.75-2.85,20a21.36,21.36,0,0,1-1.42,3.4c-3.91-5.46-8.9-10.69-14.75-14,1.25,5.28,3.33,20.86-4.48,23.48-6.75,2.26-10.13-6.31-13.56-9.94-6.77-7.17-21.06-13.7-27.13-2.21-4,7.53.65,11.17,2.38,17.43,3.57,13-25.56,34.56-36,26.69-7.44-5.6-9.35-14.22-3.62-21.33,4.12-5.11,11.58-5.87,14.62-12.1,8-16.28-19.42-12.9-13.74-28.51-2,1.94-5.45,7.86-9.28,5.55-4.23-2.55,1.52-7.72,2.1-11,2.31-13.19-9.54-14.6-14.91-23s-2.34-19.55,7.84-17.29c10.84,2.41,21.66,14.68,20.68,26.21-.21,2.52-3.5,6.95-2.18,9.65,2.54,5.25,8.3,3.65,10-1.46,2.56-7.66,1.87-14.61,2.14-22.75.21-6.33,2.14-20.62,9.8-10,2.25,3.13-.65,9.35,5,8.41.75-.13,3.7-5.33,4.77-6.22,3-2.52,6.65-3.07,10-4.76,12.1-6,2-10.17.32-19.27-1.9-10.12,8.74-15.16,7.87-24.46-1.5-15.7-9.7,5.26-16.91,3.61-8.8-2-4-24.33-15.15-17.33-9.06,5.69-5,20.21.66,26.48,4.63,5.16,13.21,8.18,12.84,16.52-.23,5.31-6.14,9.41-11.34,10.39-6.39,1.19-8.39-2.68-13.55-5.56-6.21-3.47-13.5-1.71-19.14-4.42-11.64-5.62-4.2-24.29.55-31.74,6.34-9.94,7.66-22.65-1.41-31.42-4.1-4-8.38-3.25-3.76-10.83,3-4.82,10.26-7.93,15.71-9.31,13.48-3.42,28.43,5.13,42.21,4.31,8.94-.53.58,16.94,14.17,14.15.7-7-3.63-11.46.06-18.41,4-7.62,9.12-15.29,13.06-23.37,2.85-5.84,4.91-17.29,13-13.27,4.14,2,4.06,6.8,9.79,8.16,2.89.69,8.33.51,9.91-1.5-4-7-12.28-12.54-18.53-17.5-5.8-4.61-16.15-16-20.2-26.46,114.28,4.47,215.78,58.66,283.47,141.53l-.48,1c-4.5,9.33-4.82,10.94,3.39,17.63,10.55,8.57,15.67,10.58,10.5,24.6-3.1,8.45-3.08,8.45,4,12.54-4.23,4.36-9.17,11.32-15.5,12.42,3,3.62,11.33,3.56,13.89,7.15C3037.54,1530.56,3038.27,1538.19,3034,1540.71Z"/><path class="cls-7" d="M3067,1597.65c-4.74-9.1-14.56-11-22.28-16.39-6.45-4.49-15.74-11.5-23.22-12.72-4.46,11.71,14.21,24.56,21.46,31.31,5.25,4.87,18.5,10.24,26.05,9.08C3071.29,1604.35,3067.76,1600.27,3067,1597.65Z"/><path class="cls-4" d="M3097.79,1614.69c-5.66,1.92-14.18,1.39-17.18-2.09,2.7-6.47,9-8.67,13.46-13.65Q3096.1,1606.75,3097.79,1614.69Z"/><path class="cls-4" d="M3106.38,1695.93q0,2.88-.06,5.76c-9.17-3.38-14.58,10.72-24,3.91-7-5-3.79-26.09-3.19-33.83.56-7.49,2.9-13.91,9.46-18.59,5.47-3.91,10-3.65,15.06-3.38A388.06,388.06,0,0,1,3106.38,1695.93Z"/><path class="cls-7" d="M2938.67,1694.6c-2.4,13.36.43,27.45-2.23,40.67-1,4.8-6.62,17.67,2.23,18.53,6.22.61,15.89-15.3,16.76-20.34,1.77-10.25-3.28-13.44-5.37-22.48C2948.61,1704.72,2950.57,1695.94,2938.67,1694.6Z"/><ellipse class="cls-4" cx="1926.86" cy="2130.62" rx="274.35" ry="10.69"/><path class="cls-9" d="M3169.9,1840c-2.32,6-7.61,9.88-13.85,6-5.3-3.29-4-11.24-11-2.42-1.93,2.45-1.13,4.58-3.78,6.73-2.33,1.9-11.5,4.62-13.35.42-1.56-3.55,10.74-17.32-1.5-14.85,3.94,1.57,7.13-3.86,7-7.73-5.43-.87-11.95-.47-17.6-.16,6,13.2-14.83,13-23.28,11.3-5.9-1.16-14.34-3.49-18.94.69-1,.89.16,4.15-1.51,5.76-2.51,2.42-8.61,1.53-11.77,1.33-1.25-5.54,2.79-10.28,1.83-16-7.11-2.68-14-.32-20.76,2.21-2.38.89-7.45,4.22-10.27,2.42-6.14-3.91,2.06-18.17,4.49-21.57-6.69-7-19.76-6.7-27.79-12.21-10.37-7.12-15.54-18.16-15.53-30.45,0-3.62,4.2-18.4-3.45-17.8,5.78-6.12,15.67-10.58,12-20.52-3.27-9-18.9-15.42-14.66-26.53,7.33-19.22,34,1.88,35.43-23.08.36-6.42,1.72-17.5,12.07-15.34,2.84.59,4.06,4.69,7.18,5.82,5.19,1.87,9.23-.43,12-5,5.11-8.45,1.95-21.8,3-31.17.85-7.52,1.89-16.31,3.47-23.58,2.78-12.72,18.63-9.91,29-9.33.4,7.45,2.7,10.35,10.79,11.17,9,.91,17.23-.57,15.8-10.54,2.53.27,9.69.83,11.37,3.22,2.08,2.94-.92,6.69,1.32,10,1.61-.85,2.87,0,4.42-1.85-1,5.17-2.8,14.56,5.77,12.13,4.91-1.39,3.23-4,2.88-8.54,2.41,1.48,2.94,6.65,7,4.27,6.62-3.84-3.2-10.71-2.24-15,1-4.58,9.81-7.11,11.43-11.82,2.4-7-4.07-8.85-4.32-16.71-.34-10.35,14.81-24.74,24.33-27.4,6.44-1.8,18.36-.79,24.57,1.82,7.16,3,6.29,6.33,8.32,12.44,3.47,10.44,18.48,14.26,19.77,26,.62,5.53-8.45,11.31-7,14.86,1.63,4,10.3.44,8,6,4.52-2.31,7.22-5.72,11.16-.92s-1.68,4.91-.06,9.75c4.06,12.18,25.73-6.68,33.57-4.82.35,6-2,13.77-.53,19.5,1,3.61,3.78,4.84,4.79,8,2.54,7.91-5,24,8.14,24.68,4.69.22,10.77-3.63,11.2-8.45,6.75-1,13.88,2.37,7.79,9,6.87,4.19,13.55,1.17,19.92-2.49,3.51-2,7.67-8.4,12.29-4.26,5.5,4.93-5.33,25.46-6.58,31.13,5,3,11.77,2.33,17.19.77-.23,9.16.53,10.69-4.39,18.48,10.14,5.11,17.19,7.21,21.75,18.43,2.1,5.18,5.84,17.48,13.82,10.44-.19,4.21-3.82,9.55-8.42,10.95-5.37,1.63-7.35-1.76-12.56-3.3-12.84-3.8-11.44,9.35-7.95,17.53,3.82,8.92,7.53,17.14-3.08,22.32-9.94,4.85-17.28,3.61-19.81,16.08-.53,2.57-.82,7.51,0,10.16.56,1.84,4.41,5.87,4.35,7.44-.16,4.84-9.7,12.63-13.87,14.11-3.85-6.19,1.75-15.43-9.44-15.82-4.65-.16-8.28,4.42-11.9,3.55-8.06,10.39,9.45,25-9.77,32.74-5.32,2.14-18.53,5-22.18.14-2.81-3.7-1.49-13.16-1.19-17.32-4.45-1.52-8.89-.94-13.37-.9-1.67,0-3.49.83-5.34.36-4.07-1-3-2.67-5.42-4.31-2.11-1.42-3.11-5.37-7.21-3.22-3.61,1.89-.83,5-2.31,7.33-1.61,2.53-7.55,8.79-11.23,7.37s-2.64-7-5.11-9.91c-7.18-8.42-21.53-1.19-30.15,0C3180.83,1840,3170.38,1836.55,3169.9,1840Z"/><path class="cls-10" d="M3255.88,2015.4c-13.14-7.73-22.46-20.88-28-35.08s-7.66-29.5-9-44.69c-2.09-23.36-1.62-101.52,3.81-112.62,4.95-10.1,21.07-12.08,28.76-20.19,5,3.7,11.18,5.2,17.21,6.62,1.66.39,3.45.78,5,.15s3.45-2.69,2.46-4.08c-6.5.83-13.66-1.11-19.32-4.4a82.81,82.81,0,0,0,37.86-41.22c-1.09-.06-3.24.68-4-.11-15.75,21.79-40.75,35.72-67.35,39.62,9.16-5.21,16.56-15.08,17.51-25.58-1.9-.59-4.29-.63-6.19-1.22a34.46,34.46,0,0,1-12,16.89c-5.62,4.22-13.46,6.19-20.48,6.38-4.61-4.33-7.08-10.54-8-16.79s.26-12.57.72-18.87c-2.14-.12-3.24.47-5.38.35.2,9-2.16,18.29-8.2,24.9s-16.13,9-24.92,7.25c-8-1.56-12.4-15.3-10-22.1-2.85,0-1.42-.71-4.27-.71-2,4.17.47,17.91,2.85,22.1-5.07,5.61-22.54-2-28.16-5.43a106.68,106.68,0,0,1-24.6-21c-3.73.1-6,3.67-10,3.57,8.85,18.74,27.56,29.81,46,35.82,13.88,4.53,38.13,7.94,38.13,23.35,0,29.12,4,58.76,1.37,87.94-1.56,17.15-3.46,35.4-9.75,51.62-5.1,13.16-16.41,29.54-17.28,43.64,13.29,4.2,28.1,3.6,42,2.19s27.73-3.75,41.65-3.11C3234.69,2011.12,3246,2012.1,3255.88,2015.4Z"/><path class="cls-17" d="M2805.5,1146.38c-3.71,5.21-9.8,7.72-14.89,2.42-4.33-4.49-1.16-11.89-10.05-5-2.47,1.9-2.21,4.16-5.31,5.6-2.73,1.27-12.28,1.65-13.05-2.88-.64-3.82,14.66-14.15,2.2-14.76,3.43,2.49,7.86-2,8.66-5.78-5-2.18-11.47-3.39-17-4.48,2.53,14.26-17.56,8.93-25.34,5.24-5.43-2.57-13-6.91-18.53-4-1.16.62-.87,4.06-2.88,5.21-3,1.73-8.73-.63-11.74-1.6.15-5.68,5.23-9.28,5.72-15.11-6.24-4.34-13.53-3.75-20.66-3-2.53.28-8.27,2.26-10.56-.18-5-5.3,6.46-17.11,9.65-19.8-4.76-8.44-17.51-11.36-23.94-18.67-8.31-9.44-10.61-21.41-7.58-33.32.89-3.51,8.59-16.81,1-18.11,7.1-4.51,17.78-6.41,16.7-16.93-1-9.49-14.53-19.6-7.69-29.32,11.83-16.84,32.52,10.18,40-13.68,1.93-6.13,6-16.53,15.47-11.9,2.61,1.27,2.78,5.54,5.53,7.4,4.57,3.09,9.05,1.86,12.88-1.93,7-6.93,7.24-20.65,10.57-29.47,2.67-7.08,5.83-15.35,9.16-22,5.81-11.65,20.48-5,30.42-1.91-1.44,7.32.08,10.69,7.72,13.47,8.52,3.1,16.85,3.68,17.91-6.33,2.38.88,9.19,3.18,10.23,5.91,1.3,3.36-2.53,6.26-1.18,10,1.76-.43,2.78.69,4.74-.71-2.23,4.77-6.3,13.43,2.61,13.18,5.1-.14,4.11-3.07,4.89-7.58,2,2,1.21,7.18,5.79,5.87,7.35-2.09-.48-11.17,1.52-15.13,2.1-4.19,11.25-4.49,14-8.66,4.05-6.19-1.77-9.58-.09-17.26,2.22-10.11,20.44-20.34,30.32-20.58,6.68-.17,18,3.74,23.37,7.79,6.21,4.68,4.54,7.69,5,14.11.8,11,14.41,18.36,12.79,30-.76,5.51-11,8.88-10.45,12.68.6,4.3,9.88,3,6.3,7.76,5-1.13,8.4-3.77,11,1.85s-2.83,4.35-2.45,9.44c1,12.8,26.58-.16,33.73,3.57-1.13,5.88-5.36,12.85-5.3,18.78,0,3.72,2.47,5.61,2.68,8.93.52,8.28-10.77,22.08,1.82,25.91,4.5,1.37,11.34-.86,12.94-5.43,6.79.66,12.87,5.7,5.33,10.64,5.64,5.75,12.85,4.47,19.93,2.48,3.89-1.1,9.5-6.26,13-1.11,4.11,6.13-11.42,23.37-14,28.55,4.12,4.11,10.85,5.16,16.48,5-2.47,8.83-2.12,10.5-8.8,16.84,8.58,7.45,14.9,11.21,16.56,23.21.77,5.54,1.37,18.38,10.84,13.52-1.22,4-6,8.31-10.85,8.54-5.61.27-6.7-3.51-11.37-6.28-11.52-6.84-13.39,6.25-12,15,1.51,9.6,3.09,18.47-8.47,20.89-10.83,2.26-17.63-.74-23.15,10.72-1.14,2.37-2.64,7.08-2.52,9.84.09,1.92,2.83,6.78,2.39,8.28-1.35,4.66-12.51,9.87-16.91,10.27-2.22-6.94,5.49-14.52-5.27-17.65-4.47-1.3-9.11,2.25-12.41.52-10.36,8.09,3,26.56-17.51,29.34-5.68.77-19.19.27-21.54-5.31-1.8-4.28,1.79-13.12,3.1-17.08-3.94-2.57-8.38-3.1-12.74-4.16-1.62-.39-3.58-.05-5.25-1-3.69-2-2.25-3.32-4.21-5.5-1.69-1.9-1.69-6-6.19-4.9-4,.94-2,4.63-4,6.54-2.18,2.06-9.48,6.67-12.7,4.38s-.84-7.45-2.52-10.86c-4.89-9.92-20.58-6.44-29.24-7.36C2816.1,1149.07,2806.82,1143.13,2805.5,1146.38Z"/><path class="cls-10" d="M2845.79,1337.49c-10.84-10.72-16.65-25.75-18.55-40.88s-.18-30.48,2.23-45.53c3.71-23.17,23.35-98.82,31.35-108.24,7.27-8.58,23.38-6.54,32.83-12.51,3.91,4.81,9.57,7.79,15.06,10.64,1.52.79,3.15,1.6,4.84,1.38s4-1.76,3.39-3.35c-6.5-.79-13-4.43-17.65-9a82.87,82.87,0,0,0,46.83-30.66c-1-.33-3.31-.13-3.84-1.09-20.62,17.26-48.27,24.63-75,21.87,10.16-2.8,19.76-10.55,23.26-20.49-1.7-1-4-1.67-5.7-2.71a34.44,34.44,0,0,1-15.79,13.43c-6.48,2.71-14.57,2.69-21.42,1.16-3.4-5.33-4.28-12-3.65-18.26s3.34-12.11,5.33-18.11c-2-.64-3.26-.34-5.3-1-2,8.73-6.59,17.2-14.07,22.12s-17.83,4.74-25.93.92c-7.37-3.48-8.27-17.88-4.25-23.88-2.76-.7-1.2-1-4-1.74-3,3.55-3.93,17.48-2.66,22.13-6.29,4.19-21.34-7.52-26-12.19a106,106,0,0,1-18.7-26.34c-3.65-.82-6.76,2.07-10.55,1,4,20.34,19.39,35.66,35.78,46,12.34,7.8,35,17.07,31.23,32-7.15,28.24-10.54,58-20.27,85.58-5.72,16.25-12,33.48-22.12,47.65-8.18,11.51-23.17,24.61-27.47,38.07,11.85,7.33,26.35,10.39,40.14,12.42s27.8,3.18,41.14,7.22C2826.3,1328.15,2837,1331.87,2845.79,1337.49Z"/><polygon class="cls-6" points="2033.85 1581.95 2054.98 1815.06 2040.42 2047.18 1966.45 2040.23 1976.99 1812.2 1919.47 1581.95 2033.85 1581.95"/><path class="cls-5" d="M2031.81,2070.35l-2.25,18.21s59.88,14.73,58.45,41.35l-1.9,14.73-122.37-18.32,6.81-63.1Z"/><rect class="cls-18" x="1957.82" y="2132.08" width="132.25" height="11.41" rx="3" transform="matrix(-0.99, -0.14, 0.14, -0.99, 3736.19, 4532.49)"/><path class="cls-18" d="M2056.62,2113.44a70.6,70.6,0,0,1,13.45-12,2.52,2.52,0,0,1,3.42.9,2.57,2.57,0,0,1-.9,3.42c-.6.41-1.19.83-1.77,1.27l-.83.62-.1.07,0,0-.36.28q-1.71,1.35-3.33,2.82a67.22,67.22,0,0,0-6,6.16,2.53,2.53,0,0,1-3.54,0A2.57,2.57,0,0,1,2056.62,2113.44Z"/><path class="cls-18" d="M2034.58,2105.4a39.39,39.39,0,0,1,18.08-13.77,2.5,2.5,0,0,1,3.07,1.74,2.57,2.57,0,0,1-1.74,3.08,31.34,31.34,0,0,0-4.26,2,36,36,0,0,0-4.25,2.77l-.14.11c-.17.13-.35.27-.52.42s-.62.51-.92.78c-.63.55-1.25,1.14-1.85,1.74s-1.17,1.22-1.72,1.87c-.29.33-.57.68-.85,1s-.29.37-.58.77a2.58,2.58,0,0,1-3.42.9A2.52,2.52,0,0,1,2034.58,2105.4Z"/><path class="cls-18" d="M2014.74,2094.68a40.51,40.51,0,0,1,19.38-9.72,2.57,2.57,0,0,1,3.07,1.75,2.53,2.53,0,0,1-1.74,3.08,35.36,35.36,0,0,0-17.17,8.43,2.56,2.56,0,0,1-3.54,0A2.53,2.53,0,0,1,2014.74,2094.68Z"/><path class="cls-5" d="M1755,2023.22l-11,13.13s41.19,45.9,25,67.09l-9.86,11.1-90.81-84,40.09-47.65Z"/><rect class="cls-18" x="1645.48" y="2068.16" width="132.25" height="11.41" rx="3" transform="translate(1589.34 4760.05) rotate(-137.86)"/><path class="cls-18" d="M1752.32,2072.16a70.57,70.57,0,0,1,17.88-2.37,2.51,2.51,0,0,1,2.33,2.67,2.57,2.57,0,0,1-2.67,2.32c-.73,0-1.46,0-2.18,0l-1,0h-.16l-.46,0c-1.45.1-2.9.26-4.34.45a69.16,69.16,0,0,0-8.43,1.71,2.51,2.51,0,0,1-2.92-2A2.56,2.56,0,0,1,1752.32,2072.16Z"/><path class="cls-18" d="M1738.63,2053.1a39.4,39.4,0,0,1,22.7-1.2,2.5,2.5,0,0,1,1.55,3.17,2.56,2.56,0,0,1-3.17,1.56,30.37,30.37,0,0,0-4.64-.76,35.63,35.63,0,0,0-5.06-.1h-.18l-.67,0-1.2.13c-.84.1-1.67.23-2.51.4s-1.65.35-2.47.57l-1.29.37-.91.31a2.56,2.56,0,0,1-3.33-1.18A2.51,2.51,0,0,1,1738.63,2053.1Z"/><path class="cls-18" d="M1728.27,2033.07a40.55,40.55,0,0,1,21.49,2.88,2.57,2.57,0,0,1,1.56,3.18,2.53,2.53,0,0,1-3.18,1.56,35.45,35.45,0,0,0-18.94-2.71,2.5,2.5,0,0,1-.93-4.91Z"/><polygon class="cls-19" points="1962.31 1581.95 1925.18 1794.38 1771.86 2003.03 1715.53 1960.21 1843.08 1775.13 1860 1581.95 1962.31 1581.95"/><path class="cls-7" d="M2046.79,1299.53,2127,1466c7.26,15,2.07,33.94-11.42,41.62l-87.33,59Z"/><path class="cls-7" d="M1847.06,1299.53,1752.59,1466c-7.25,15-2.06,33.94,11.43,41.62L1894.76,1582Z"/><path class="cls-7" d="M1847.06,1299.53l99.87-14,99.86,14-3,330.27v17.82l-28,1.9-9.33-7.42a219.31,219.31,0,0,1-98.83,5.08l-.79,11a305,305,0,0,1-55.46-5.51l1.71-18Z"/><path class="cls-20" d="M1907.6,1647.18a219.31,219.31,0,0,0,98.83-5.08l0,0c-46.62-41.89-28.74-322.52-28.74-322.52l-55.51-8.09C1926.78,1361.7,1907.6,1647.18,1907.6,1647.18Z"/><path class="cls-8" d="M1922.2,1252.5v59a28.34,28.34,0,0,0,28.34,28.34h0a28.34,28.34,0,0,0,28.34-28.34v-59s-5.77,11.76-26.94,11.76S1922.2,1252.5,1922.2,1252.5Z"/><path class="cls-14" d="M1922.2,1238.77v13.73s8.56,11.76,29.74,11.76,26.94-11.76,26.94-11.76v-13.73Z"/><path class="cls-13" d="M2006.69,1163.21s24.59-60.12,0-98.62-102-23.53-112.29-8.55c-21.46,31.24-20,84.67-9.08,95.21S2006.69,1163.21,2006.69,1163.21Z"/><path class="cls-8" d="M1950.54,1102.61h0a56.14,56.14,0,0,1,56.14,56.14v91.66a0,0,0,0,1,0,0H1894.4a0,0,0,0,1,0,0v-91.66A56.14,56.14,0,0,1,1950.54,1102.61Z" transform="translate(3901.09 2353.02) rotate(-180)"/><path class="cls-8" d="M1876.23,1132h2.58a15.59,15.59,0,0,1,15.59,15.59v0a15.59,15.59,0,0,1-15.59,15.59h-2.58a0,0,0,0,1,0,0V1132a0,0,0,0,1,0,0Z" transform="translate(3770.63 2295.23) rotate(180)"/><path class="cls-14" d="M1894.36,1136.77c-6.83.94-12,3-12,10.85,0,8.57,5.2,9.91,12,10.85Z"/><path class="cls-15" d="M1980.34,1158.47a7.23,7.23,0,1,1,7.23,7.22A7.23,7.23,0,0,1,1980.34,1158.47Z"/><path class="cls-15" d="M1921.35,1158.47a7.23,7.23,0,1,1,7.23,7.22A7.23,7.23,0,0,1,1921.35,1158.47Z"/><path class="cls-13" d="M1978.34,1130.24a34.51,34.51,0,0,1,25.21,8.71c3,2.67-1.41,7.09-4.44,4.43a28.22,28.22,0,0,0-20.77-6.86C1974.31,1136.8,1974.33,1130.52,1978.34,1130.24Z"/><path class="cls-13" d="M1939,1127.94a34.49,34.49,0,0,0-25.2,8.7c-3,2.67,1.41,7.1,4.43,4.44a28.24,28.24,0,0,1,20.77-6.87C1943,1134.49,1943,1128.21,1939,1127.94Z"/><path class="cls-14" d="M1953.81,1191.54l11-3.7a224.88,224.88,0,0,1-9.74-35.4,2.57,2.57,0,0,1,1.74-3.08,2.54,2.54,0,0,1,3.08,1.75,225.21,225.21,0,0,0,10.55,37.62,2.54,2.54,0,0,1-1.74,3.08l-13.61,4.55C1952.08,1197.38,1950.77,1192.56,1953.81,1191.54Z"/><path class="cls-13" d="M1950.55,1102.61s-48.91-2.48-56.15,29.41l-9.08,1.42v-36.77h65.23Z"/><path class="cls-13" d="M2006.69,1134.88s.43-32.27-43-32.27v-6.89h48V1132Z"/><path class="cls-13" d="M2006.33,1200.6,1990,1218.45s-7.25-16.7-33.25-17.85c-35.35-1.57-41,13.93-41,13.93a61.19,61.19,0,0,1-21.31-36.35s-11.44,72.23,56.14,72.23C2011.71,1250.41,2006.33,1200.6,2006.33,1200.6Z"/><path class="cls-15" d="M1938.8,1216.51a2.52,2.52,0,0,1,3.27-1.33,31.83,31.83,0,0,0,25.18,1.06c3-1.15,4.84,3.5,1.83,4.66a36.83,36.83,0,0,1-28.95-1.11A2.57,2.57,0,0,1,1938.8,1216.51Z"/><path class="cls-8" d="M1998,1557.77c1.31-1.85,3.8-2.32,6-2.76s4.71-1.23,5.62-3.31c1.21-2.79-1.23-6-.68-9,.4-2.21,2.41-3.84,4.56-4.48a18.55,18.55,0,0,1,6.69-.28l23.66,1.93c.94.08,1.88.14,2.82.17l14.44-7.9s-24.53-12.58-20.87-38.15c0,0,32.19,24.11,34.48,37.21,2.18,12.46-60.77,46.09-72.45,35.82a10.12,10.12,0,0,1-3.06-2.08C1997.35,1563.1,1996.45,1559.94,1998,1557.77Z"/><path class="cls-8" d="M1897.46,1563.09c-1.22-1.91-3.68-2.51-5.87-3.06s-4.65-1.46-5.45-3.58c-1.08-2.85,1.51-5.89,1.12-8.9-.29-2.23-2.22-4-4.34-4.71a18.42,18.42,0,0,0-6.67-.6l-23.72.75c-.94,0-1.88,0-2.82,0l-14-8.61s25.13-11.35,22.74-37.06c0,0-33.34,22.47-36.28,35.45-2.8,12.34,58.41,49,70.58,39.36a10,10,0,0,0,3.16-1.92C1897.82,1568.44,1898.88,1565.33,1897.46,1563.09Z"/><polygon class="cls-18" points="1708.4 1982.84 1722.33 1965.38 1769.78 2001.45 1755 2023.22 1708.4 1982.84"/><polygon class="cls-18" points="1970.55 2063.22 1973.06 2040.85 2034.1 2046.59 2031.81 2070.35 1970.55 2063.22"/><circle class="cls-18" cx="1688.26" cy="2014.69" r="18"/><circle class="cls-18" cx="1970.55" cy="2101.06" r="18"/><rect class="cls-16" x="3118.49" y="2017.53" width="152.55" height="118.69"/><rect class="cls-16" x="3106.38" y="1999" width="176.79" height="27.09"/><polygon class="cls-21" points="3118.49 2026.09 3118.49 2036.78 3271.05 2054.6 3271.05 2026.09 3118.49 2026.09"/><rect class="cls-16" x="3341.98" y="2017.53" width="152.55" height="118.69"/><rect class="cls-16" x="3329.86" y="1999" width="176.79" height="27.09"/><polygon class="cls-21" points="3341.98 2026.09 3341.98 2036.78 3494.53 2054.6 3494.53 2026.09 3341.98 2026.09"/><rect class="cls-16" x="3533.04" y="2053.3" width="98.79" height="82.93"/><rect class="cls-16" x="3525.19" y="2040.35" width="114.49" height="18.93"/><polygon class="cls-21" points="3533.04 2059.27 3533.04 2066.74 3631.83 2079.2 3631.83 2059.27 3533.04 2059.27"/><path class="cls-10" d="M1992.69,1362.76c-11.4,13.2-22.93,26.63-30.31,42.43s-10.19,34.56-3.62,50.71c.16.4-5.65.4-6.11.33a13,13,0,0,1-5.91-2.27c-2.65-2.1-2.31-4.55-2-7.69a113,113,0,0,1,4.8-23.29,120.12,120.12,0,0,1,23.24-41.87A113.68,113.68,0,0,1,1992.69,1362.76Z"/><path class="cls-9" d="M1953.15,1372.13c-3.66-.9-7.49-.68-11.25-.45l-19.9,1.21c-.35,6,3,11.85,7.87,15.44s10.93,5.13,16.94,5.45c5,.26,20.44.62,20.23-6.69C1966.83,1380.16,1959.37,1373.67,1953.15,1372.13Z"/><path class="cls-9" d="M1983.76,1407.4c5.35,5.61,11.2,11.66,18.87,12.81a22.89,22.89,0,0,1-39.32-12.18c-.66-4.32-.25-13,5.94-11.65C1974.87,1397.6,1980,1403.44,1983.76,1407.4Z"/><rect class="cls-16" x="1891.32" y="1464.36" width="118.86" height="99.78"/><rect class="cls-16" x="1881.88" y="1448.78" width="137.74" height="22.77"/><polygon class="cls-21" points="1891.32 1471.55 1891.32 1480.54 2010.18 1495.52 2010.18 1471.55 1891.32 1471.55"/><path class="cls-8" d="M2780.12,1258.49c-2.27-10.34,2.27-23,3.69-33.42.59-4.39,1-8.55-4.93-7.5-9,1.61-13,15.48-17.17,21.88-11-2.24-24.43,8.92-30.64,16.49-5.48,6.68-8.47,14.9-9.72,23.4a57.12,57.12,0,0,0-.62,9.61c.14,6.75,3.35,9.39,5.66,15.45,2.88,7.52,19.91,18.37,26.27,7.7,2.65-4.45,6.54-7.57,9.15-12.27,2.33-4.22,2.39-9.44,4-14.08a73.52,73.52,0,0,1,6.41-14.22C2774.19,1268.16,2781,1262.5,2780.12,1258.49Z"/><path class="cls-8" d="M2821.89,1269.44c6-8.69,6.66-22.09,9.35-32.3,1.12-4.27,2.36-8.27,7.41-5,7.67,4.9,6.13,19.27,7.53,26.77,11,2.14,19.17,17.57,22,26.94,2.52,8.27,2.14,17,.05,25.33a56.93,56.93,0,0,1-3.09,9.12c-2.71,6.19-6.68,7.41-11.13,12.13-5.53,5.85-25.42,9.37-27.22-2.91-.75-5.13-3.15-9.5-3.77-14.84-.55-4.79,1.39-9.63,1.72-14.52a74.38,74.38,0,0,0-.49-15.59C2823.68,1280.65,2819.55,1272.81,2821.89,1269.44Z"/><path class="cls-9" d="M3155,1205.92a48.32,48.32,0,0,1-21.14-5.05c-4.67-2.33-9.08-5.45-14.22-6.41s-11.41,1.24-12.79,6.27c6.65,6.37,14.65,10.53,23.82,11.42S3147.2,1210.89,3155,1205.92Z"/><path class="cls-9" d="M2842.6,338a284.45,284.45,0,0,1-124.08-29.67c-27.43-13.66-53.33-32-83.45-37.6s-67,7.23-75.1,36.78c39,37.37,86,61.8,139.8,67S2797.11,367.2,2842.6,338Z"/><path class="cls-9" d="M3419.48,948.34l-17.82,13c-3.42,2.5-6.92,5.07-9.24,8.6s-3.27,8.3-1.26,12C3406.56,977.14,3417.69,964.36,3419.48,948.34Z"/><path class="cls-9" d="M1418.6,1488.87l-109.88,80c-21.1,15.37-42.66,31.22-57,53s-20.16,51.18-7.74,74.14C1338.91,1666.49,1407.59,1587.7,1418.6,1488.87Z"/><path class="cls-9" d="M2273.71,1154.58c-4.09-4.83-11.58-5.72-17.46-3.37s-10.33,7.34-13.69,12.7-5.85,11.24-9.16,16.64-7.64,10.46-13.44,13C2242.83,1191.09,2263.18,1175,2273.71,1154.58Z"/><path class="cls-9" d="M376.82,368.09c-14.84-17.52-42-20.74-63.31-12.21s-37.46,26.61-49.66,46.06-21.22,40.75-33.22,60.33-27.7,37.93-48.74,47.13C264.84,500.5,338.65,442.27,376.82,368.09Z"/><path class="cls-9" d="M2115.89,1083c1.12-2.24.28-5.1-1.5-6.87a12,12,0,0,0-6.75-3c-2.47-.39-5-.38-7.47-.74a12.36,12.36,0,0,1-6.82-2.86C2097.8,1077.41,2106.82,1082.31,2115.89,1083Z"/><path class="cls-9" d="M3447.2,1684.16c-3.74,1.51-8,.89-11.8-.56s-7.18-3.66-10.81-5.42-7.64-3.1-11.65-2.58-7.92,3.28-8.71,7.23c2.73,4,4.26,6,8.87,7.52C3423.8,1693.84,3438.59,1691.41,3447.2,1684.16Z"/></g><use transform="translate(121.73 1888.18) scale(0.09)" xlink:href="#image"/><use transform="translate(450.8 1891.73) scale(0.09)" xlink:href="#image"/><use transform="translate(794.27 1885.89) scale(0.09)" xlink:href="#image"/><use transform="translate(217.09 659.08) scale(0.08)" xlink:href="#image-2"/><use transform="translate(490.82 659.08) scale(0.08)" xlink:href="#image-2"/><use transform="translate(791.12 659.08) scale(0.08)" xlink:href="#image-2"/><use transform="translate(3103.58 419.71) scale(0.13)" xlink:href="#image-3"/><use transform="translate(2426.6 419.71) scale(0.13)" xlink:href="#image-3"/><use transform="translate(1671.06 419.71) scale(0.13)" xlink:href="#image-3"/></svg>