<svg id="레이어_1" data-name="레이어 1" xmlns="http://www.w3.org/2000/svg" xmlns:xlink="http://www.w3.org/1999/xlink" viewBox="0 0 451.83 616.13"><defs><style>.cls-1{fill:url(#무제_그라디언트_87);}.cls-2{fill:url(#무제_그라디언트_26);}.cls-3{clip-path:url(#clip-path);}.cls-4{fill:url(#무제_그라디언트_78);}.cls-5{fill:url(#무제_그라디언트_78-2);}.cls-6{fill:url(#무제_그라디언트_78-3);}.cls-7{fill:url(#무제_그라디언트_78-4);}.cls-8{fill:url(#무제_그라디언트_78-5);}.cls-9{fill:url(#무제_그라디언트_78-6);}.cls-10{fill:url(#무제_그라디언트_78-7);}.cls-11{fill:url(#무제_그라디언트_78-8);}.cls-12{fill:url(#무제_그라디언트_78-9);}.cls-13{fill:url(#무제_그라디언트_78-10);}.cls-14{fill:url(#무제_그라디언트_78-11);}.cls-15{fill:url(#무제_그라디언트_78-12);}.cls-16{fill:url(#무제_그라디언트_78-13);}.cls-17{fill:url(#무제_그라디언트_78-14);}.cls-18{fill:url(#무제_그라디언트_78-15);}.cls-19{fill:url(#무제_그라디언트_78-16);}.cls-20{fill:url(#무제_그라디언트_78-17);}.cls-21{fill:#ecff3f;}.cls-22{fill:#bf9259;}.cls-23{fill:#9a6948;}.cls-24{fill:#44853b;}.cls-25{fill:#916b42;}.cls-26{fill:#845335;}.cls-27{fill:#325727;}.cls-28{fill:#7bc24f;}.cls-29{fill:#60bd54;}.cls-30{fill:#714226;}.cls-31{fill:#7c4026;}.cls-32{fill:#004a2d;}.cls-33{fill:#009e60;}.cls-34{fill:#00e088;}.cls-35{fill:#422716;}.cls-36{fill:#59341e;}.cls-37{fill:#00c477;}.cls-38{fill:#007145;}.cls-39{fill:#003b24;}.cls-40{fill:#00ff9b;}.cls-41,.cls-53{font-size:19px;}.cls-41,.cls-52,.cls-53{font-family:Cafe24Ssurround, Cafe24 Ssurround;}.cls-42{letter-spacing:-0.06em;}.cls-43{letter-spacing:-0.03em;}.cls-44{letter-spacing:0em;}.cls-45{fill:#e1e7f7;}.cls-46{fill:#fea740;}.cls-47{fill:url(#무제_그라디언트_26-2);}.cls-48{fill:#ffdf64;}.cls-49{fill:#b8bce0;}.cls-50{fill:#cba8ff;}.cls-51{fill:#f6fafd;}.cls-52{font-size:14px;}.cls-53{fill:#fff;}.cls-54{letter-spacing:-0.03em;}</style><linearGradient id="무제_그라디언트_87" x1="21.46" y1="306.63" x2="428.24" y2="306.63" gradientTransform="translate(0 -32.83) scale(1 1.11)" gradientUnits="userSpaceOnUse"><stop offset="0" stop-color="#fff"/><stop offset="1" stop-color="#fff" stop-opacity="0.5"/></linearGradient><linearGradient id="무제_그라디언트_26" x1="28.53" y1="221.23" x2="430.35" y2="398" gradientUnits="userSpaceOnUse"><stop offset="0" stop-color="#15ff78"/><stop offset="0.12" stop-color="#16fe7c" stop-opacity="0.98"/><stop offset="0.26" stop-color="#1bfa88" stop-opacity="0.93"/><stop offset="0.41" stop-color="#22f59d" stop-opacity="0.84"/><stop offset="0.58" stop-color="#2bedb9" stop-opacity="0.72"/><stop offset="0.75" stop-color="#37e3dd" stop-opacity="0.57"/><stop offset="0.82" stop-color="#3ddeed" stop-opacity="0.5"/></linearGradient><clipPath id="clip-path"><rect class="cls-1" x="21.46" y="14.03" width="406.79" height="586.92" rx="32.28"/></clipPath><linearGradient id="무제_그라디언트_78" x1="9.07" y1="386.6" x2="406.43" y2="386.6" xlink:href="#무제_그라디언트_87"/><linearGradient id="무제_그라디언트_78-2" x1="9.07" y1="307.2" x2="442.76" y2="307.2" xlink:href="#무제_그라디언트_87"/><linearGradient id="무제_그라디언트_78-3" x1="9.07" y1="442.86" x2="293.92" y2="442.86" xlink:href="#무제_그라디언트_87"/><linearGradient id="무제_그라디언트_78-4" x1="9.07" y1="499.11" x2="181.4" y2="499.11" xlink:href="#무제_그라디언트_87"/><linearGradient id="무제_그라디언트_78-5" x1="271.03" y1="115.59" x2="442.76" y2="115.59" xlink:href="#무제_그라디언트_87"/><linearGradient id="무제_그라디언트_78-6" x1="158.51" y1="171.84" x2="442.76" y2="171.84" xlink:href="#무제_그라디언트_87"/><linearGradient id="무제_그라디언트_78-7" x1="222.42" y1="139.89" x2="442.76" y2="139.89" xlink:href="#무제_그라디언트_87"/><linearGradient id="무제_그라디언트_78-8" x1="383.55" y1="59.33" x2="442.76" y2="59.33" xlink:href="#무제_그라디언트_87"/><linearGradient id="무제_그라디언트_78-9" x1="334.94" y1="83.63" x2="442.76" y2="83.63" xlink:href="#무제_그라디언트_87"/><linearGradient id="무제_그라디언트_78-10" x1="109.9" y1="196.15" x2="442.76" y2="196.15" xlink:href="#무제_그라디언트_87"/><linearGradient id="무제_그라디언트_78-11" x1="9.07" y1="252.41" x2="442.76" y2="252.41" xlink:href="#무제_그라디언트_87"/><linearGradient id="무제_그라디언트_78-12" x1="9.07" y1="362.29" x2="442.76" y2="362.29" xlink:href="#무제_그라디언트_87"/><linearGradient id="무제_그라디언트_78-13" x1="9.07" y1="418.55" x2="342.53" y2="418.55" xlink:href="#무제_그라디언트_87"/><linearGradient id="무제_그라디언트_78-14" x1="9.07" y1="474.81" x2="230.01" y2="474.81" xlink:href="#무제_그라디언트_87"/><linearGradient id="무제_그라디언트_78-15" x1="9.07" y1="555.47" x2="68.88" y2="555.47" xlink:href="#무제_그라디언트_87"/><linearGradient id="무제_그라디언트_78-16" x1="9.07" y1="531.07" x2="117.49" y2="531.07" xlink:href="#무제_그라디언트_87"/><linearGradient id="무제_그라디언트_78-17" x1="46" y1="228.1" x2="442.76" y2="228.1" xlink:href="#무제_그라디언트_87"/><linearGradient id="무제_그라디언트_26-2" x1="52.23" y1="60.83" x2="98.74" y2="60.83" xlink:href="#무제_그라디언트_26"/></defs><rect class="cls-2" x="6.42" width="438.99" height="616.13" rx="24.51"/><g id="line"><rect class="cls-1" x="21.46" y="14.03" width="406.79" height="586.92" rx="32.28"/><g class="cls-3"><polygon class="cls-4" points="406.43 616.75 9.07 175.73 9.07 208.93 376.52 616.75 406.43 616.75"/><polygon class="cls-5" points="9.07 50.85 9.07 84.06 442.75 565.38 442.75 532.18 9.07 50.85"/><polygon class="cls-6" points="293.92 616.75 9.07 300.61 9.07 333.81 264 616.75 293.92 616.75"/><polygon class="cls-7" points="181.4 616.75 9.07 425.49 9.07 458.69 151.49 616.75 181.4 616.75"/><polygon class="cls-8" points="442.75 157.55 300.94 0.16 271.03 0.16 442.75 190.75 442.75 157.55"/><polygon class="cls-9" points="442.75 282.43 188.43 0.16 158.51 0.16 442.75 315.63 442.75 282.43"/><polygon class="cls-10" points="442.75 228.48 237.03 0.16 222.42 0.16 442.75 244.7 442.75 228.48"/><polygon class="cls-11" points="442.75 32.67 413.46 0.16 383.55 0.16 442.75 65.87 442.75 32.67"/><polygon class="cls-12" points="442.75 103.6 349.55 0.16 334.94 0.16 442.75 119.82 442.75 103.6"/><polygon class="cls-13" points="442.75 353.36 124.52 0.16 109.9 0.16 442.75 369.58 442.75 353.36"/><polygon class="cls-14" points="12 0.16 9.07 0.16 9.07 13.13 442.75 494.46 442.75 478.24 12 0.16"/><polygon class="cls-15" points="442.75 616.75 442.75 603.11 9.07 121.78 9.07 138 440.43 616.75 442.75 616.75"/><polygon class="cls-16" points="342.52 616.75 9.07 246.66 9.07 262.88 327.91 616.75 342.52 616.75"/><polygon class="cls-17" points="230.01 616.75 9.07 371.54 9.07 387.76 215.39 616.75 230.01 616.75"/><path class="cls-18" d="M45,616.75H68.88L9.07,550.37v33.2L39.17,617C41.12,616.84,43.08,616.75,45,616.75Z"/><polygon class="cls-19" points="117.49 616.75 9.07 496.42 9.07 512.64 102.88 616.75 117.49 616.75"/><polygon class="cls-20" points="442.75 407.31 75.91 0.16 46 0.16 442.75 440.51 442.75 407.31"/></g></g><rect class="cls-21" x="107.6" y="505.85" width="232.01" height="49.02" rx="16.43"/><path class="cls-22" d="M255.3,437.77v.05a9.45,9.45,0,0,1-9.47,9.48h-6a9.51,9.51,0,0,1-6.7-2.77l-11.81-11.81-11.81,11.81a9.53,9.53,0,0,1-6.71,2.77h-6a9.46,9.46,0,0,1-9.48-9.48v-.05a9.5,9.5,0,0,1,4.23-7.87l10.35-11.76,4.86-38.87h29.16l4.86,38.87,10.35,11.76A9.49,9.49,0,0,1,255.3,437.77Z"/><path class="cls-23" d="M262.88,432.72a11.81,11.81,0,0,1-5.15-1.22l-17-13.36-4.86-38.87h14.57V397a9.7,9.7,0,0,0,6.13,9l10.88,4.38a11.59,11.59,0,0,1-4.32,22.35Z"/><path class="cls-23" d="M206.71,379.27l-4.86,38.87-17,13.36a11.75,11.75,0,0,1-5.15,1.22h-.24a11.59,11.59,0,0,1-4.33-22.35L186,406a9.7,9.7,0,0,0,6.12-9V379.27Z"/><path class="cls-24" d="M312,319.79a45.31,45.31,0,0,1,1.65,12.29,47.2,47.2,0,0,1-47.18,47.19H176.14A47.12,47.12,0,0,1,129,332.08a45.7,45.7,0,0,1,1.65-12.29l35.52-131.54a57.13,57.13,0,0,1,110.31,0Z"/><path class="cls-25" d="M231,389h6.07l-1.21-9.71H206.71l-4.86,38.87L191.5,429.9a9.5,9.5,0,0,0-4.23,7.87v.05a9.46,9.46,0,0,0,9.48,9.48h6a9.53,9.53,0,0,0,6.71-2.77l11.81-11.81v-34A9.72,9.72,0,0,1,231,389Z"/><path class="cls-26" d="M274.66,420.59a4.83,4.83,0,0,1-7,3.75L251,416a9.72,9.72,0,0,1-5.38-8.7V398.7a9.69,9.69,0,0,1,4.86-8.37V379.27H235.87l1.21,9.71,3.65,29.16,17,13.36a11.81,11.81,0,0,0,5.15,1.22h.25a11.61,11.61,0,0,0,11.61-11.62C274.74,420.93,274.67,420.76,274.66,420.59Z"/><path class="cls-26" d="M192.13,379.27v11.06A9.69,9.69,0,0,1,197,398.7v8.57a9.73,9.73,0,0,1-5.37,8.7l-16.75,8.37a4.84,4.84,0,0,1-7-3.75c0,.17-.07.34-.07.51a11.61,11.61,0,0,0,11.61,11.62h.24a11.75,11.75,0,0,0,5.15-1.22l17-13.36,4.86-38.87Z"/><path class="cls-27" d="M294.18,340.39H237.24A58.3,58.3,0,0,1,179.8,272l16.42-93.84a38.86,38.86,0,0,1,32.25-31.67,57.09,57.09,0,0,0-62.34,41.73L130.61,319.79A45.7,45.7,0,0,0,129,332.08a47.12,47.12,0,0,0,47.19,47.19h90.28a47.2,47.2,0,0,0,47.18-47.19,46.61,46.61,0,0,0-.52-6.79A19.42,19.42,0,0,1,294.18,340.39Z"/><path class="cls-28" d="M218.8,160.6a14.58,14.58,0,0,0,14.58,14.58,19.39,19.39,0,0,1,18.9,14.87L280,304.94a14.53,14.53,0,0,0,28.11.62L276.44,188.25a57.11,57.11,0,0,0-47.11-41.59A14.54,14.54,0,0,0,218.8,160.6Z"/><path class="cls-29" d="M233.85,185a18.46,18.46,0,0,0-3.86,0c-4.38.36-12,1.59-13.37,6.55-.72,2.59.71,5.24,2.11,7.54q3.2,5.29,6.53,10.5c2.79,4.35,5.68,8.73,9.6,12.13,1.43,1.23,3.28,2.4,5.12,1.92a5.16,5.16,0,0,0,2.6-1.94,15.61,15.61,0,0,0,3-9.81,45.71,45.71,0,0,0-1.58-10.3c-.94-4.08-1.5-8.31-3.7-12a9.41,9.41,0,0,0-5.14-4.36A8.49,8.49,0,0,0,233.85,185Z"/><path class="cls-30" d="M325.61,81.94V96.15h-4V81.94a9.36,9.36,0,0,0,2,.21A9.5,9.5,0,0,0,325.61,81.94Z"/><path class="cls-31" d="M340.61,80V96.15h-4V80a10.2,10.2,0,0,0,2,.2A11,11,0,0,0,340.61,80Z"/><path class="cls-23" d="M355.61,86.15v10h-4v-10l0-.18a10.87,10.87,0,0,0,3.94,0Z"/><path class="cls-32" d="M325.61,81.94a9.5,9.5,0,0,1-2,.21,9.36,9.36,0,0,1-2-.21,10.38,10.38,0,0,1-8-10.27c0-5.78,4.48-29.52,10-29.52,2.4,0,4.6,4.47,6.32,10h0a91.89,91.89,0,0,0-2.36,15.94,12.47,12.47,0,0,0,4.24,9.51A10,10,0,0,1,325.61,81.94Z"/><path class="cls-33" d="M343.61,76.72a8.73,8.73,0,0,0,.24,2.06l-.24.06a10.53,10.53,0,0,1-3,1.12,11,11,0,0,1-2,.19,10.2,10.2,0,0,1-2-.2,10.5,10.5,0,0,1-4.76-2.34,12.47,12.47,0,0,1-4.24-9.51A91.89,91.89,0,0,1,330,52.16c2-8.95,5.14-18,8.64-18,4.11,0,7.69,12.47,9.58,22.61C345.43,63.49,343.61,73.4,343.61,76.72Z"/><path class="cls-34" d="M348.19,56.76c1.56-3.81,3.42-6.61,5.42-6.61,5.52,0,10,21.36,10,26.57a9.6,9.6,0,0,1-8,9.25,10.87,10.87,0,0,1-3.94,0,9.77,9.77,0,0,1-7.79-7.19,8.73,8.73,0,0,1-.24-2.06C343.61,73.4,345.43,63.49,348.19,56.76Z"/><path class="cls-35" d="M323.61,82.15a9.36,9.36,0,0,1-2-.21V96.15h2v-10a2,2,0,0,1,2-2V81.94A9.5,9.5,0,0,1,323.61,82.15Z"/><path class="cls-30" d="M323.61,86.15v10h2v-12A2,2,0,0,0,323.61,86.15Z"/><path class="cls-31" d="M338.61,84.15v12h2v-14A2,2,0,0,0,338.61,84.15Z"/><path class="cls-36" d="M338.61,80.15a10.2,10.2,0,0,1-2-.2v16.2h2v-12a2,2,0,0,1,2-2V80A11,11,0,0,1,338.61,80.15Z"/><path class="cls-31" d="M355.58,86a10.87,10.87,0,0,1-3.94,0l0,.18v10h2v-6a2,2,0,0,1,2-2v-2Z"/><path class="cls-23" d="M353.61,90.15v6h2v-8A2,2,0,0,0,353.61,90.15Z"/><path class="cls-37" d="M348.61,74.15c0-7,2-16,3.14-20.72a4,4,0,0,1,3.06-2.94,2.54,2.54,0,0,0-1.2-.34c-2,0-3.86,2.8-5.42,6.61-2.76,6.73-4.58,16.64-4.58,20a8.73,8.73,0,0,0,.24,2.06A9.77,9.77,0,0,0,351.64,86a10.87,10.87,0,0,0,3.94,0,9.73,9.73,0,0,0,7.88-7.63C361.06,81.27,348.61,83.94,348.61,74.15Z"/><path class="cls-38" d="M348.19,56.76c-.49-2.68-1.11-5.52-1.83-8.24-1.52.87-2.94,3.24-4.17,6.24a64.4,64.4,0,0,0-2.78,8.9,3.91,3.91,0,0,1-7.7-.67c-.06-.88-.1-1.83-.1-2.84,0-8.29,4-18.85,5.94-23.55a4,4,0,0,1,2.18-2.15,2.44,2.44,0,0,0-1.12-.3c-3.5,0-6.62,9.06-8.64,18a91.89,91.89,0,0,0-2.36,15.94,12.47,12.47,0,0,0,4.24,9.51A10.5,10.5,0,0,0,336.61,80a10.2,10.2,0,0,0,2,.2c.28,0,.55,0,.83,0a11.33,11.33,0,0,0,1.17-.15,10.53,10.53,0,0,0,3-1.12l.24-.06a8.73,8.73,0,0,1-.24-2.06C343.61,73.4,345.43,63.49,348.19,56.76Z"/><path class="cls-39" d="M327.61,68.1A91.89,91.89,0,0,1,330,52.16h0a41.38,41.38,0,0,0-2.2-5.77A86.69,86.69,0,0,0,325,56.16a91.89,91.89,0,0,0-2.36,15.94v0a2,2,0,0,1-3.28,1.59,5.51,5.51,0,0,1-1.72-2.57c-.76-7.68,3.18-20.65,5.06-26.27a4,4,0,0,1,2.13-2.36,2.24,2.24,0,0,0-1.19-.37c-5.52,0-10,23.74-10,29.52a10.38,10.38,0,0,0,8,10.27,9.36,9.36,0,0,0,2,.21,9.5,9.5,0,0,0,2-.21,8.54,8.54,0,0,0,1.22-.36,10,10,0,0,0,5-4A12.47,12.47,0,0,1,327.61,68.1Z"/><path class="cls-40" d="M354.5,51.48a2,2,0,0,0-.55,2.78,9.1,9.1,0,0,1,.49.83,2,2,0,0,0,3.68-.36,12.71,12.71,0,0,0-2.41-3.57A2,2,0,0,0,354.5,51.48Z"/><path class="cls-40" d="M357.58,57.23a2,2,0,0,0-1.34,2.5,107.71,107.71,0,0,1,3,14.7,2,2,0,0,0,2,1.72l.29,0a2,2,0,0,0,1.7-2.26c-.29-2-.77-5.13-1.44-8.42a67.53,67.53,0,0,0-2.43-7.9A2,2,0,0,0,357.58,57.23Z"/><path class="cls-37" d="M338.64,40.89a19.24,19.24,0,0,0,1,3.34,40.82,40.82,0,0,0,1.15,4,1.87,1.87,0,0,0,3.5.33,3.94,3.94,0,0,0,.35-1.88,14.5,14.5,0,0,0-.77-4.63,5.35,5.35,0,0,0-1.22-2.15,4.26,4.26,0,0,0-2.81-1.26C338.6,38.77,338.56,40.26,338.64,40.89Z"/><text class="cls-41" transform="translate(379.61 68.36)">x 1</text><text class="cls-41" transform="translate(172.11 534.87)">Baby <tspan class="cls-42" x="55.84" y="0">T</tspan><tspan class="cls-43" x="67.33" y="0">r</tspan><tspan class="cls-44" x="76.15" y="0">ee</tspan></text><path class="cls-45" d="M104.55,39.51v5.82a1.94,1.94,0,0,1-1.93,1.93H98.74V43.39H52.23v3.87H48.35a2,2,0,0,1-1.94-1.93V39.51a2,2,0,0,1,1.94-1.94h54.27A2,2,0,0,1,104.55,39.51Z"/><polygon class="cls-46" points="98.74 58.89 98.74 66.64 75.48 86.03 52.23 66.64 52.23 58.89 75.48 78.27 98.74 58.89"/><polygon class="cls-47" points="52.23 43.39 52.23 47.27 52.23 51.14 52.23 58.89 75.48 78.27 98.74 58.89 98.74 51.14 98.74 47.27 98.74 43.39 52.23 43.39"/><path class="cls-48" d="M75.48,91.84A17.44,17.44,0,1,1,58,109.28,17.44,17.44,0,0,1,75.48,91.84Zm11.63,17.44a11.63,11.63,0,1,0-11.63,11.63A11.64,11.64,0,0,0,87.11,109.28Z"/><circle class="cls-46" cx="75.48" cy="109.28" r="11.63"/><path class="cls-46" d="M75.48,86l-1.93-1.61V92a17.55,17.55,0,0,1,1.93-.11,17.73,17.73,0,0,1,1.94.11V84.41Z"/><path class="cls-49" d="M98.74,39.51H50.29a1.94,1.94,0,0,0-1.94,1.94v5.81h3.88V43.39H98.74v3.87h1.94V41.45A1.94,1.94,0,0,0,98.74,39.51Z"/><path class="cls-50" d="M63.24,46.3c0,.53.27,1,.6,1H82c.34,0,.61-.43.61-1s-.27-1-.61-1H63.84C63.51,45.33,63.24,45.76,63.24,46.3Z"/><path class="cls-50" d="M84.56,46.3a1,1,0,0,0,1,1h1.93a1,1,0,1,0,0-1.93H85.53A1,1,0,0,0,84.56,46.3Z"/><ellipse class="cls-51" cx="57.42" cy="56.39" rx="1.6" ry="2.23" transform="translate(-23.05 57.15) rotate(-45.02)"/><ellipse class="cls-51" cx="84.56" cy="106.78" rx="1.6" ry="2.23" transform="translate(-50.74 91.11) rotate(-45.02)"/><ellipse class="cls-51" cx="60.81" cy="59.3" rx="0.8" ry="1.11" transform="translate(-24.12 60.39) rotate(-45.02)"/><path d="M102.62,35.64H67.73v3.87h34.89v5.82h-1.94V43.39a1.94,1.94,0,0,0-1.94-1.94H52.23a1.94,1.94,0,0,0-1.94,1.94v1.94H48.35V39.51H56.1V35.64H48.35a3.87,3.87,0,0,0-3.87,3.87v5.82a3.87,3.87,0,0,0,3.87,3.87h1.94V66.64a1.93,1.93,0,0,0,.7,1.49l22.56,18.8V90a19.27,19.27,0,0,0-17,15l3.78.85a15.54,15.54,0,1,1-.38,3.45H56.1A19.38,19.38,0,1,0,77.42,90V86.93L100,68.13a1.93,1.93,0,0,0,.7-1.49V49.2h1.94a3.88,3.88,0,0,0,3.87-3.87V39.51A3.87,3.87,0,0,0,102.62,35.64ZM75.48,83.5,54.17,65.74V63l4.57,3.81,2.48-3-7-5.88V45.33H96.8V58L75.48,75.75,65.1,67.09l-2.48,3,11.62,9.69a1.93,1.93,0,0,0,2.48,0L96.8,63v2.71Z"/><rect x="59.98" y="35.64" width="3.88" height="3.88"/><path d="M84.62,106.05l3.66-1.29a13.58,13.58,0,1,0,.77,4.52H85.17a9.68,9.68,0,1,1-.55-3.23Z"/><text class="cls-52" transform="translate(71.12 113.13)">B</text><text class="cls-53" transform="translate(442.12 550.03) rotate(-90)">Next<tspan class="cls-54" x="45.69" y="0">r</tspan><tspan x="54.51" y="0">ee</tspan></text><text class="cls-53" transform="translate(17.07 156.32) rotate(-90)">Next<tspan class="cls-54" x="45.69" y="0">r</tspan><tspan x="54.51" y="0">ee</tspan></text></svg>