<svg id="레이어_1" data-name="레이어 1" xmlns="http://www.w3.org/2000/svg" xmlns:xlink="http://www.w3.org/1999/xlink" viewBox="0 0 451.83 616.13"><defs><style>.cls-1{fill:url(#무제_그라디언트_87);}.cls-2{fill:url(#무제_그라디언트_2);}.cls-3{clip-path:url(#clip-path);}.cls-4{fill:url(#무제_그라디언트_78);}.cls-5{fill:url(#무제_그라디언트_78-2);}.cls-6{fill:url(#무제_그라디언트_78-3);}.cls-7{fill:url(#무제_그라디언트_78-4);}.cls-8{fill:url(#무제_그라디언트_78-5);}.cls-9{fill:url(#무제_그라디언트_78-6);}.cls-10{fill:url(#무제_그라디언트_78-7);}.cls-11{fill:url(#무제_그라디언트_78-8);}.cls-12{fill:url(#무제_그라디언트_78-9);}.cls-13{fill:url(#무제_그라디언트_78-10);}.cls-14{fill:url(#무제_그라디언트_78-11);}.cls-15{fill:url(#무제_그라디언트_78-12);}.cls-16{fill:url(#무제_그라디언트_78-13);}.cls-17{fill:url(#무제_그라디언트_78-14);}.cls-18{fill:url(#무제_그라디언트_78-15);}.cls-19{fill:url(#무제_그라디언트_78-16);}.cls-20{fill:url(#무제_그라디언트_78-17);}.cls-21{fill:#f99d4c;}.cls-22{fill:#714226;}.cls-23{fill:#7c4026;}.cls-24{fill:#9a6948;}.cls-25{fill:#004a2d;}.cls-26{fill:#009e60;}.cls-27{fill:#00e088;}.cls-28{fill:#422716;}.cls-29{fill:#59341e;}.cls-30{fill:#00c477;}.cls-31{fill:#007145;}.cls-32{fill:#003b24;}.cls-33{fill:#00ff9b;}.cls-34{font-size:19px;}.cls-34,.cls-35,.cls-39{font-family:Cafe24Ssurround, Cafe24 Ssurround;}.cls-35{font-size:25.42px;fill:#fff;}.cls-36{letter-spacing:-0.03em;}.cls-37{letter-spacing:-0.06em;}.cls-38{letter-spacing:-0.03em;}.cls-39{font-size:13.49px;}.cls-40{letter-spacing:-0.03em;}.cls-41{fill:#92563a;}.cls-42{fill:#c47952;}.cls-43{fill:#944222;}.cls-44{fill:#5d241d;}.cls-45{fill:#db996e;}.cls-46{fill:#f26d24;}.cls-47{fill:#c35728;}.cls-48{fill:#ffb37d;}.cls-49{fill:#b079ff;}.cls-50{fill:#f6fafd;}.cls-51{fill:#fb9881;}.cls-52{fill:#fe7b83;}.cls-53{fill:#976efa;}.cls-54{fill:#8b69ff;}</style><linearGradient id="무제_그라디언트_87" x1="20.96" y1="306.63" x2="427.74" y2="306.63" gradientTransform="translate(0 -32.83) scale(1 1.11)" gradientUnits="userSpaceOnUse"><stop offset="0" stop-color="#fff"/><stop offset="1" stop-color="#fff" stop-opacity="0.5"/></linearGradient><linearGradient id="무제_그라디언트_2" x1="28.53" y1="221.23" x2="430.35" y2="398" gradientUnits="userSpaceOnUse"><stop offset="0" stop-color="#fffb15"/><stop offset="0.09" stop-color="#fff714" stop-opacity="0.99"/><stop offset="0.21" stop-color="#ffeb13" stop-opacity="0.95"/><stop offset="0.33" stop-color="#ffd611" stop-opacity="0.89"/><stop offset="0.46" stop-color="#ffba0d" stop-opacity="0.81"/><stop offset="0.6" stop-color="#ff9609" stop-opacity="0.7"/><stop offset="0.74" stop-color="#ff6a03" stop-opacity="0.58"/><stop offset="0.82" stop-color="#ff5000" stop-opacity="0.5"/></linearGradient><clipPath id="clip-path"><rect class="cls-1" x="20.96" y="14.03" width="406.79" height="586.92" rx="32.28"/></clipPath><linearGradient id="무제_그라디언트_78" x1="8.57" y1="386.6" x2="405.93" y2="386.6" xlink:href="#무제_그라디언트_87"/><linearGradient id="무제_그라디언트_78-2" x1="8.57" y1="307.2" x2="442.26" y2="307.2" xlink:href="#무제_그라디언트_87"/><linearGradient id="무제_그라디언트_78-3" x1="8.57" y1="442.86" x2="293.42" y2="442.86" xlink:href="#무제_그라디언트_87"/><linearGradient id="무제_그라디언트_78-4" x1="8.57" y1="499.11" x2="180.9" y2="499.11" xlink:href="#무제_그라디언트_87"/><linearGradient id="무제_그라디언트_78-5" x1="270.53" y1="115.59" x2="442.26" y2="115.59" xlink:href="#무제_그라디언트_87"/><linearGradient id="무제_그라디언트_78-6" x1="158.01" y1="171.84" x2="442.26" y2="171.84" xlink:href="#무제_그라디언트_87"/><linearGradient id="무제_그라디언트_78-7" x1="221.92" y1="139.89" x2="442.26" y2="139.89" xlink:href="#무제_그라디언트_87"/><linearGradient id="무제_그라디언트_78-8" x1="383.05" y1="59.33" x2="442.26" y2="59.33" xlink:href="#무제_그라디언트_87"/><linearGradient id="무제_그라디언트_78-9" x1="334.44" y1="83.63" x2="442.26" y2="83.63" xlink:href="#무제_그라디언트_87"/><linearGradient id="무제_그라디언트_78-10" x1="109.4" y1="196.15" x2="442.26" y2="196.15" xlink:href="#무제_그라디언트_87"/><linearGradient id="무제_그라디언트_78-11" x1="8.57" y1="252.41" x2="442.26" y2="252.41" xlink:href="#무제_그라디언트_87"/><linearGradient id="무제_그라디언트_78-12" x1="8.57" y1="362.29" x2="442.26" y2="362.29" xlink:href="#무제_그라디언트_87"/><linearGradient id="무제_그라디언트_78-13" x1="8.57" y1="418.55" x2="342.03" y2="418.55" xlink:href="#무제_그라디언트_87"/><linearGradient id="무제_그라디언트_78-14" x1="8.57" y1="474.81" x2="229.51" y2="474.81" xlink:href="#무제_그라디언트_87"/><linearGradient id="무제_그라디언트_78-15" x1="8.57" y1="555.47" x2="68.38" y2="555.47" xlink:href="#무제_그라디언트_87"/><linearGradient id="무제_그라디언트_78-16" x1="8.57" y1="531.07" x2="116.99" y2="531.07" xlink:href="#무제_그라디언트_87"/><linearGradient id="무제_그라디언트_78-17" x1="45.5" y1="228.1" x2="442.26" y2="228.1" xlink:href="#무제_그라디언트_87"/></defs><rect class="cls-2" x="6.42" width="438.99" height="616.13" rx="24.51"/><g id="line"><rect class="cls-1" x="20.96" y="14.03" width="406.79" height="586.92" rx="32.28"/><g class="cls-3"><polygon class="cls-4" points="405.93 616.75 8.57 175.73 8.57 208.93 376.02 616.75 405.93 616.75"/><polygon class="cls-5" points="8.57 50.85 8.57 84.06 442.25 565.38 442.25 532.18 8.57 50.85"/><polygon class="cls-6" points="293.42 616.75 8.57 300.61 8.57 333.81 263.5 616.75 293.42 616.75"/><polygon class="cls-7" points="180.9 616.75 8.57 425.49 8.57 458.69 150.99 616.75 180.9 616.75"/><polygon class="cls-8" points="442.25 157.55 300.44 0.16 270.53 0.16 442.25 190.75 442.25 157.55"/><polygon class="cls-9" points="442.25 282.43 187.93 0.16 158.01 0.16 442.25 315.63 442.25 282.43"/><polygon class="cls-10" points="442.25 228.48 236.53 0.16 221.92 0.16 442.25 244.7 442.25 228.48"/><polygon class="cls-11" points="442.25 32.67 412.96 0.16 383.05 0.16 442.25 65.87 442.25 32.67"/><polygon class="cls-12" points="442.25 103.6 349.05 0.16 334.44 0.16 442.25 119.82 442.25 103.6"/><polygon class="cls-13" points="442.25 353.36 124.02 0.16 109.4 0.16 442.25 369.58 442.25 353.36"/><polygon class="cls-14" points="11.5 0.16 8.57 0.16 8.57 13.13 442.25 494.46 442.25 478.24 11.5 0.16"/><polygon class="cls-15" points="442.25 616.75 442.25 603.11 8.57 121.78 8.57 138 439.93 616.75 442.25 616.75"/><polygon class="cls-16" points="342.02 616.75 8.57 246.66 8.57 262.88 327.41 616.75 342.02 616.75"/><polygon class="cls-17" points="229.51 616.75 8.57 371.54 8.57 387.76 214.89 616.75 229.51 616.75"/><path class="cls-18" d="M44.54,616.75H68.38L8.57,550.37v33.2L38.67,617C40.62,616.84,42.58,616.75,44.54,616.75Z"/><polygon class="cls-19" points="116.99 616.75 8.57 496.42 8.57 512.64 102.38 616.75 116.99 616.75"/><polygon class="cls-20" points="442.25 407.31 75.41 0.16 45.5 0.16 442.25 440.51 442.25 407.31"/></g></g><rect class="cls-21" x="111.52" y="503.62" width="232.01" height="49.02" rx="16.43"/><path class="cls-22" d="M325.61,81.94V96.15h-4V81.94a9.36,9.36,0,0,0,2,.21A9.5,9.5,0,0,0,325.61,81.94Z"/><path class="cls-23" d="M340.61,80V96.15h-4V80a10.2,10.2,0,0,0,2,.2A11,11,0,0,0,340.61,80Z"/><path class="cls-24" d="M355.61,86.15v10h-4v-10l0-.18a10.87,10.87,0,0,0,3.94,0Z"/><path class="cls-25" d="M325.61,81.94a9.5,9.5,0,0,1-2,.21,9.36,9.36,0,0,1-2-.21,10.38,10.38,0,0,1-8-10.27c0-5.78,4.48-29.52,10-29.52,2.4,0,4.6,4.47,6.32,10h0a91.89,91.89,0,0,0-2.36,15.94,12.47,12.47,0,0,0,4.24,9.51A10,10,0,0,1,325.61,81.94Z"/><path class="cls-26" d="M343.61,76.72a8.73,8.73,0,0,0,.24,2.06l-.24.06a10.53,10.53,0,0,1-3,1.12,11,11,0,0,1-2,.19,10.2,10.2,0,0,1-2-.2,10.5,10.5,0,0,1-4.76-2.34,12.47,12.47,0,0,1-4.24-9.51A91.89,91.89,0,0,1,330,52.16c2-8.95,5.14-18,8.64-18,4.11,0,7.69,12.47,9.58,22.61C345.43,63.49,343.61,73.4,343.61,76.72Z"/><path class="cls-27" d="M348.19,56.76c1.56-3.81,3.42-6.61,5.42-6.61,5.52,0,10,21.36,10,26.57a9.6,9.6,0,0,1-8,9.25,10.87,10.87,0,0,1-3.94,0,9.77,9.77,0,0,1-7.79-7.19,8.73,8.73,0,0,1-.24-2.06C343.61,73.4,345.43,63.49,348.19,56.76Z"/><path class="cls-28" d="M323.61,82.15a9.36,9.36,0,0,1-2-.21V96.15h2v-10a2,2,0,0,1,2-2V81.94A9.5,9.5,0,0,1,323.61,82.15Z"/><path class="cls-22" d="M323.61,86.15v10h2v-12A2,2,0,0,0,323.61,86.15Z"/><path class="cls-23" d="M338.61,84.15v12h2v-14A2,2,0,0,0,338.61,84.15Z"/><path class="cls-29" d="M338.61,80.15a10.2,10.2,0,0,1-2-.2v16.2h2v-12a2,2,0,0,1,2-2V80A11,11,0,0,1,338.61,80.15Z"/><path class="cls-23" d="M355.58,86a10.87,10.87,0,0,1-3.94,0l0,.18v10h2v-6a2,2,0,0,1,2-2v-2Z"/><path class="cls-24" d="M353.61,90.15v6h2v-8A2,2,0,0,0,353.61,90.15Z"/><path class="cls-30" d="M348.61,74.15c0-7,2-16,3.14-20.72a4,4,0,0,1,3.06-2.94,2.54,2.54,0,0,0-1.2-.34c-2,0-3.86,2.8-5.42,6.61-2.76,6.73-4.58,16.64-4.58,20a8.73,8.73,0,0,0,.24,2.06A9.77,9.77,0,0,0,351.64,86a10.87,10.87,0,0,0,3.94,0,9.73,9.73,0,0,0,7.88-7.63C361.06,81.27,348.61,83.94,348.61,74.15Z"/><path class="cls-31" d="M348.19,56.76c-.49-2.68-1.11-5.52-1.83-8.24-1.52.87-2.94,3.24-4.17,6.24a64.4,64.4,0,0,0-2.78,8.9,3.91,3.91,0,0,1-7.7-.67c-.06-.88-.1-1.83-.1-2.84,0-8.29,4-18.85,5.94-23.55a4,4,0,0,1,2.18-2.15,2.44,2.44,0,0,0-1.12-.3c-3.5,0-6.62,9.06-8.64,18a91.89,91.89,0,0,0-2.36,15.94,12.47,12.47,0,0,0,4.24,9.51A10.5,10.5,0,0,0,336.61,80a10.2,10.2,0,0,0,2,.2c.28,0,.55,0,.83,0a11.33,11.33,0,0,0,1.17-.15,10.53,10.53,0,0,0,3-1.12l.24-.06a8.73,8.73,0,0,1-.24-2.06C343.61,73.4,345.43,63.49,348.19,56.76Z"/><path class="cls-32" d="M327.61,68.1A91.89,91.89,0,0,1,330,52.16h0a41.38,41.38,0,0,0-2.2-5.77A86.69,86.69,0,0,0,325,56.16a91.89,91.89,0,0,0-2.36,15.94v0a2,2,0,0,1-3.28,1.59,5.51,5.51,0,0,1-1.72-2.57c-.76-7.68,3.18-20.65,5.06-26.27a4,4,0,0,1,2.13-2.36,2.24,2.24,0,0,0-1.19-.37c-5.52,0-10,23.74-10,29.52a10.38,10.38,0,0,0,8,10.27,9.36,9.36,0,0,0,2,.21,9.5,9.5,0,0,0,2-.21,8.54,8.54,0,0,0,1.22-.36,10,10,0,0,0,5-4A12.47,12.47,0,0,1,327.61,68.1Z"/><path class="cls-33" d="M354.5,51.48a2,2,0,0,0-.55,2.78,9.1,9.1,0,0,1,.49.83,2,2,0,0,0,3.68-.36,12.71,12.71,0,0,0-2.41-3.57A2,2,0,0,0,354.5,51.48Z"/><path class="cls-33" d="M357.58,57.23a2,2,0,0,0-1.34,2.5,107.71,107.71,0,0,1,3,14.7,2,2,0,0,0,2,1.72l.29,0a2,2,0,0,0,1.7-2.26c-.29-2-.77-5.13-1.44-8.42a67.53,67.53,0,0,0-2.43-7.9A2,2,0,0,0,357.58,57.23Z"/><path class="cls-30" d="M338.64,40.89a19.24,19.24,0,0,0,1,3.34,40.82,40.82,0,0,0,1.15,4,1.87,1.87,0,0,0,3.5.33,3.94,3.94,0,0,0,.35-1.88,14.5,14.5,0,0,0-.77-4.63,5.35,5.35,0,0,0-1.22-2.15,4.26,4.26,0,0,0-2.81-1.26C338.6,38.77,338.56,40.26,338.64,40.89Z"/><text class="cls-34" transform="translate(366.75 72.33) scale(0.89 1)">x 100</text><text class="cls-35" transform="translate(146.37 534.67)">B<tspan class="cls-36" x="18.41" y="0">r</tspan><tspan x="30.2" y="0">onze </tspan><tspan class="cls-37" x="101.7" y="0">T</tspan><tspan class="cls-38" x="117.08" y="0">r</tspan><tspan x="128.87" y="0">ee</tspan></text><text class="cls-39" transform="translate(66.55 104.81)">I<tspan class="cls-40" x="4.4" y="0">r</tspan><tspan x="10.66" y="0">on</tspan></text><path class="cls-41" d="M222.92,416.09,218.51,419a8.18,8.18,0,0,0-3.7,6.68h0l-14-3.49a16.69,16.69,0,0,0-5.76-.42l-30.71,3.91,21-14a16.79,16.79,0,0,1,9.33-2.82h20.13V377.1a102.12,102.12,0,0,0,21,2.39,92,92,0,0,0,12.6-.92V408.9h20.13a16.74,16.74,0,0,1,9.32,2.82l21,14-34.12-3.95L240,425.88v-.67a11,11,0,0,0-7.52-10.42,10.73,10.73,0,0,0-3.45-.55A11,11,0,0,0,222.92,416.09Z"/><path class="cls-42" d="M240,425.88v4l4.2,8.4H231.57l-16.8-4.2V426a.73.73,0,0,1,0-.29,8.18,8.18,0,0,1,3.7-6.68l4.41-2.94a11,11,0,0,1,6.09-1.85,10.73,10.73,0,0,1,3.45.55A11,11,0,0,1,240,425.21Z"/><path class="cls-43" d="M134.94,341.68s40.5,27.1,79.83,35.42v17.14C164.43,384.28,134.94,341.68,134.94,341.68Z"/><path class="cls-43" d="M336.61,341.68s-32.81,47.39-88.23,53.86v-17C290.14,372.81,336.61,341.68,336.61,341.68Z"/><path class="cls-21" d="M248.38,378.57a92,92,0,0,1-12.6.92,102.12,102.12,0,0,1-21-2.39c-39.33-8.32-79.83-35.42-79.83-35.42,16.8-12.61,100.84-163.87,100.84-163.87s84,151.26,100.83,163.87C336.61,341.68,290.14,372.81,248.38,378.57Z"/><path class="cls-44" d="M223.17,400.5a8.4,8.4,0,0,1,8.4-8.4h16.81V378.57a92,92,0,0,1-12.6.92,102.12,102.12,0,0,1-21-2.39v31.8A8.4,8.4,0,0,0,223.17,400.5Z"/><path class="cls-44" d="M206.36,413.1H191.54a8.48,8.48,0,0,0-3.76.89l-23.43,11.72,30.71-3.91a16.69,16.69,0,0,1,5.76.42l14,3.49v-4.2A8.42,8.42,0,0,0,206.36,413.1Z"/><path class="cls-42" d="M268.51,408.9H248.38a8.41,8.41,0,0,0,8.4,8.41h11.43a8.59,8.59,0,0,1,2.31.32l28.28,8.08-21-14A16.74,16.74,0,0,0,268.51,408.9Z"/><path class="cls-45" d="M240,425.88v-.67a11,11,0,0,0-7.52-10.42,10.73,10.73,0,0,0-3.45-.55,11,11,0,0,0-5.94,1.78,12,12,0,0,1,4.3,9.16v4.73l1.88,3.76a8.39,8.39,0,0,0,7.52,4.64h7.41l-4.2-8.4Z"/><path class="cls-21" d="M211.11,324.29c5.76,3.73,16.79,9,33.07,9,17.21,0,32.46-7.83,40.41-12.8A8.39,8.39,0,0,0,288,310.26L235.78,177.81,207.42,315.52A8.41,8.41,0,0,0,211.11,324.29Z"/><path class="cls-46" d="M180.22,335.85c9.76,7.46,29.27,18.43,59.76,18.43,36.43,0,70.24-20.88,82.93-29.72-29.3-42.66-87.13-146.75-87.13-146.75L288,310.26a8.39,8.39,0,0,1-3.36,10.21c-7.95,5-23.2,12.8-40.41,12.8-16.28,0-27.31-5.25-33.07-9a8.41,8.41,0,0,1-3.69-8.77l28.36-137.71-59.63,143.1A12.67,12.67,0,0,0,180.22,335.85Z"/><path class="cls-47" d="M322.91,324.56c-12.69,8.84-46.5,29.72-82.93,29.72-30.49,0-50-11-59.76-18.43a12.67,12.67,0,0,1-4.07-14.94l59.63-143.1s-84,151.26-100.84,163.87c0,0,40.5,27.1,79.83,35.42a102.12,102.12,0,0,0,21,2.39,92,92,0,0,0,12.6-.92c41.76-5.76,88.23-36.89,88.23-36.89C333.75,339.53,328.92,333.31,322.91,324.56Z"/><polygon class="cls-48" points="73.33 124.13 75.86 125.41 64.77 147.59 57.54 137.94 45.49 140.35 56.94 117.43 58 117.8 64.05 124.78 73.33 124.13"/><polygon class="cls-48" points="106.35 117.46 117.8 140.35 105.75 137.94 98.52 147.59 87.43 125.41 89.89 124.18 99.09 124.86 105.19 117.84 106.35 117.46"/><path class="cls-49" d="M106.35,117.46l-1.16.38-6.1,7-9.2-.68-2.46,1.23-5.79,2.89-5.78-2.89-2.53-1.28-9.28.65-6-7-1.06-.36-7.69-2.55-2.94-8.82-7-6.1L40,90.75l-4.12-8.24L40,74.19l-.65-9.28,7-6,2.89-8.75,8.84-2.94,6.1-7,9.21.67,8.24-4.12L90,40.88l9.28-.65,6.05,7L114,50.11,117,59l7,6.1-.67,9.2,4.12,8.25-4.17,8.31.65,9.28-7,6.05L114,114.88Zm9-34.95a33.75,33.75,0,1,0-33.75,33.74A33.76,33.76,0,0,0,115.39,82.51Z"/><circle class="cls-21" cx="81.64" cy="82.51" r="33.74"/><ellipse class="cls-50" cx="97.75" cy="67.31" rx="3.96" ry="5.51" transform="translate(-18.96 88.88) rotate(-45.02)"/><ellipse class="cls-50" cx="102.57" cy="76.98" rx="1.99" ry="2.77" transform="translate(-24.39 95.12) rotate(-45.02)"/><ellipse class="cls-50" cx="101.96" cy="80.6" rx="0.99" ry="1.38" transform="translate(-27.13 95.74) rotate(-45.02)"/><polygon class="cls-51" points="61.8 129.42 57.54 137.94 64.77 147.59 72.86 131.4 64.05 132.01 61.8 129.42"/><polygon class="cls-51" points="99.09 132.09 90.45 131.45 98.52 147.59 105.75 137.94 101.46 129.37 99.09 132.09"/><polygon class="cls-51" points="58 125.03 61.8 129.42 64.12 124.78 64.05 124.78 58 117.8 56.94 117.43 53.84 123.64 56.94 124.66 58 125.03"/><polygon class="cls-52" points="73.33 124.13 64.12 124.78 61.8 129.42 64.05 132.01 72.86 131.4 75.86 125.41 73.33 124.13"/><polygon class="cls-52" points="101.46 129.37 99.16 124.78 99.09 124.86 89.89 124.18 87.43 125.41 90.45 131.45 99.09 132.09 101.46 129.37"/><polygon class="cls-51" points="105.19 117.84 99.16 124.78 101.46 129.37 105.19 125.07 106.35 124.69 109.44 123.65 106.35 117.46 105.19 117.84"/><path class="cls-53" d="M81.64,43.94a38.57,38.57,0,1,0,38.57,38.57A38.57,38.57,0,0,0,81.64,43.94Zm0,72.31a33.75,33.75,0,1,1,33.75-33.74A33.75,33.75,0,0,1,81.64,116.25Z"/><path class="cls-46" d="M57.54,68.05a33.68,33.68,0,0,1,1.8-10.82,33.72,33.72,0,1,0,54.24,36.09,33.7,33.7,0,0,1-56-25.27Z"/><path class="cls-54" d="M81.64,46.35A36.16,36.16,0,1,0,117.8,82.51,36.16,36.16,0,0,0,81.64,46.35Zm0,69.9a33.75,33.75,0,1,1,33.75-33.74A33.75,33.75,0,0,1,81.64,116.25Z"/><path d="M129.59,81.43l-3.82-7.65.62-8.54a2.44,2.44,0,0,0-.82-2l-6.52-5.67-2.74-8.21a2.4,2.4,0,0,0-1.52-1.52l-8.12-2.71-5.6-6.47a2.45,2.45,0,0,0-2-.83l-8.63.59-7.73-3.86a2.41,2.41,0,0,0-2.16,0l-7.65,3.82-8.54-.62a2.35,2.35,0,0,0-2,.82L56.7,45.1l-8.2,2.74A2.41,2.41,0,0,0,47,49.36l-2.7,8.12-6.48,5.6a2.43,2.43,0,0,0-.83,2l.6,8.63-3.87,7.73a2.41,2.41,0,0,0,0,2.16l3.83,7.65-.62,8.54a2.39,2.39,0,0,0,.82,2l6.52,5.68,2.73,8.2a2.39,2.39,0,0,0,1.53,1.52l5,1.69L43.33,139.28A2.41,2.41,0,0,0,46,142.72l10.56-2.11L62.84,149a2.43,2.43,0,0,0,1.93,1H65a2.44,2.44,0,0,0,1.94-1.33l8.43-16.87-4.31-2.15L64.36,143l-4.89-6.52a2.4,2.4,0,0,0-2.4-.92L49.85,137l7.91-15.82,4.45,5.16a2.52,2.52,0,0,0,2,.83l8.63-.6,7.73,3.87a2.46,2.46,0,0,0,2.16,0l7.66-3.83,8.53.62a2.36,2.36,0,0,0,2-.82l4.59-5.28L113.44,137l-7.22-1.44a2.4,2.4,0,0,0-2.4.92L98.93,143l-1.87-3.74-4.31,2.16,3.61,7.22A2.42,2.42,0,0,0,98.3,150h.22a2.4,2.4,0,0,0,1.92-1l6.32-8.42,10.56,2.11a2.41,2.41,0,0,0,2.63-3.44l-10.21-20.42,5.05-1.69a2.4,2.4,0,0,0,1.52-1.52l2.71-8.12,6.48-5.59a2.41,2.41,0,0,0,.82-2l-.59-8.62,3.86-7.73A2.41,2.41,0,0,0,129.59,81.43Zm-8.16,17.65-6.06,5.24a2.32,2.32,0,0,0-.71,1.06l-2.54,7.6-7.69,2.57a2.4,2.4,0,0,0-1.05.7l-5.32,6.11-8-.58a2.37,2.37,0,0,0-1.26.24l-7.17,3.59L74.4,122a2.42,2.42,0,0,0-1.08-.26h-.17l-8.08.56-5.24-6.07a2.4,2.4,0,0,0-1.06-.71L51.17,113,48.6,105.3a2.27,2.27,0,0,0-.7-1l-6.11-5.32.59-8a2.46,2.46,0,0,0-.25-1.25l-3.59-7.17,3.62-7.25A2.31,2.31,0,0,0,42.41,74l-.56-8.08,6.07-5.24a2.46,2.46,0,0,0,.71-1.06L51.17,52l7.68-2.56a2.46,2.46,0,0,0,1.06-.71l5.31-6.1,8,.58A2.46,2.46,0,0,0,74.47,43l7.17-3.58L88.89,43a2.51,2.51,0,0,0,1.24.25l8.08-.56,5.24,6.06a2.45,2.45,0,0,0,1.07.72l7.6,2.53,2.56,7.69a2.49,2.49,0,0,0,.7,1.05l6.11,5.32-.58,8a2.36,2.36,0,0,0,.25,1.25l3.58,7.17-3.62,7.24a2.46,2.46,0,0,0-.25,1.25Z"/><path d="M81.64,113.84A31.37,31.37,0,0,1,50.31,82.51H45.49A36.16,36.16,0,0,0,116.3,92.84l-4.62-1.38A31.51,31.51,0,0,1,81.64,113.84Z"/><path d="M81.64,46.35A36.34,36.34,0,0,0,49,67l4.35,2.07A31.34,31.34,0,0,1,113,82.51a31.92,31.92,0,0,1-.32,4.48l4.77.68a35.62,35.62,0,0,0,.37-5.16A36.2,36.2,0,0,0,81.64,46.35Z"/><path d="M51.61,73.55,47,72.18a37.69,37.69,0,0,0-1.14,5.16l4.78.69A29.56,29.56,0,0,1,51.61,73.55Z"/><rect x="88.87" y="130.43" width="4.82" height="5.38" transform="translate(-49.9 54.88) rotate(-26.57)"/></svg>