<svg id="레이어_1" data-name="레이어 1" xmlns="http://www.w3.org/2000/svg" xmlns:xlink="http://www.w3.org/1999/xlink" viewBox="0 0 451.83 616.13"><defs><style>.cls-1{fill:url(#무제_그라디언트_87);}.cls-2{fill:url(#무제_그라디언트_13);}.cls-3{clip-path:url(#clip-path);}.cls-4{fill:url(#무제_그라디언트_78);}.cls-5{fill:url(#무제_그라디언트_78-2);}.cls-6{fill:url(#무제_그라디언트_78-3);}.cls-7{fill:url(#무제_그라디언트_78-4);}.cls-8{fill:url(#무제_그라디언트_78-5);}.cls-9{fill:url(#무제_그라디언트_78-6);}.cls-10{fill:url(#무제_그라디언트_78-7);}.cls-11{fill:url(#무제_그라디언트_78-8);}.cls-12{fill:url(#무제_그라디언트_78-9);}.cls-13{fill:url(#무제_그라디언트_78-10);}.cls-14{fill:url(#무제_그라디언트_78-11);}.cls-15{fill:url(#무제_그라디언트_78-12);}.cls-16{fill:url(#무제_그라디언트_78-13);}.cls-17{fill:url(#무제_그라디언트_78-14);}.cls-18{fill:url(#무제_그라디언트_78-15);}.cls-19{fill:url(#무제_그라디언트_78-16);}.cls-20{fill:url(#무제_그라디언트_78-17);}.cls-21{fill:#54e0e9;}.cls-22{fill:#714226;}.cls-23{fill:#7c4026;}.cls-24{fill:#9a6948;}.cls-25{fill:#004a2d;}.cls-26{fill:#009e60;}.cls-27{fill:#00e088;}.cls-28{fill:#422716;}.cls-29{fill:#59341e;}.cls-30{fill:#00c477;}.cls-31{fill:#007145;}.cls-32{fill:#003b24;}.cls-33{fill:#00ff9b;}.cls-34{font-size:17px;}.cls-34,.cls-35,.cls-39{font-family:Cafe24Ssurround, Cafe24 Ssurround;}.cls-35{font-size:25.42px;fill:#434440;}.cls-36{letter-spacing:-0.06em;}.cls-37{letter-spacing:-0.03em;}.cls-38{letter-spacing:0em;}.cls-39{font-size:19px;}.cls-39,.cls-42{fill:#fff;}.cls-40{letter-spacing:-0.03em;}.cls-41{fill:#5d5cff;}.cls-43{fill:#7a6bff;}.cls-44{fill:#a672f1;}.cls-45{fill:#c7ccf0;}.cls-46{fill:#e1e7f7;}.cls-47{fill:#fff978;}.cls-48{fill:#ffdf64;}.cls-49{fill:#ffce54;}.cls-50{fill:#f7f7ff;}.cls-51{fill:#fb9881;}.cls-52{fill:#5258e2;}.cls-53{fill:#7062ff;}.cls-54{fill:#8b69ff;}.cls-55{fill:#4f54d9;}.cls-56{fill:#f6fafd;}.cls-57{fill:#2f5224;}.cls-58{fill:#52a147;}.cls-59{fill:#7bc24f;}.cls-60{fill:#5d241d;}.cls-61{fill:#233d1b;}.cls-62{fill:#39632c;}.cls-63{fill:#44853b;}.cls-64{fill:#8ee05b;}.cls-65{fill:#704d35;}.cls-66{fill:#664530;}</style><linearGradient id="무제_그라디언트_87" x1="21.46" y1="306.63" x2="428.24" y2="306.63" gradientTransform="translate(0 -32.83) scale(1 1.11)" gradientUnits="userSpaceOnUse"><stop offset="0" stop-color="#fff"/><stop offset="1" stop-color="#fff" stop-opacity="0.5"/></linearGradient><linearGradient id="무제_그라디언트_13" x1="28.53" y1="221.23" x2="430.35" y2="398" gradientUnits="userSpaceOnUse"><stop offset="0" stop-color="#83eaf1"/><stop offset="0.14" stop-color="#81e6f2" stop-opacity="0.99"/><stop offset="0.31" stop-color="#7ddcf4" stop-opacity="0.96"/><stop offset="0.51" stop-color="#75cbf7" stop-opacity="0.91"/><stop offset="0.71" stop-color="#6ab4fc" stop-opacity="0.85"/><stop offset="0.82" stop-color="#63a4ff" stop-opacity="0.8"/></linearGradient><clipPath id="clip-path"><rect class="cls-1" x="21.46" y="14.03" width="406.79" height="586.92" rx="32.28"/></clipPath><linearGradient id="무제_그라디언트_78" x1="9.07" y1="386.6" x2="406.43" y2="386.6" xlink:href="#무제_그라디언트_87"/><linearGradient id="무제_그라디언트_78-2" x1="9.07" y1="307.2" x2="442.76" y2="307.2" xlink:href="#무제_그라디언트_87"/><linearGradient id="무제_그라디언트_78-3" x1="9.07" y1="442.86" x2="293.92" y2="442.86" xlink:href="#무제_그라디언트_87"/><linearGradient id="무제_그라디언트_78-4" x1="9.07" y1="499.11" x2="181.4" y2="499.11" xlink:href="#무제_그라디언트_87"/><linearGradient id="무제_그라디언트_78-5" x1="271.03" y1="115.59" x2="442.76" y2="115.59" xlink:href="#무제_그라디언트_87"/><linearGradient id="무제_그라디언트_78-6" x1="158.51" y1="171.84" x2="442.76" y2="171.84" xlink:href="#무제_그라디언트_87"/><linearGradient id="무제_그라디언트_78-7" x1="222.42" y1="139.89" x2="442.76" y2="139.89" xlink:href="#무제_그라디언트_87"/><linearGradient id="무제_그라디언트_78-8" x1="383.55" y1="59.33" x2="442.76" y2="59.33" xlink:href="#무제_그라디언트_87"/><linearGradient id="무제_그라디언트_78-9" x1="334.94" y1="83.63" x2="442.76" y2="83.63" xlink:href="#무제_그라디언트_87"/><linearGradient id="무제_그라디언트_78-10" x1="109.9" y1="196.15" x2="442.76" y2="196.15" xlink:href="#무제_그라디언트_87"/><linearGradient id="무제_그라디언트_78-11" x1="9.07" y1="252.41" x2="442.76" y2="252.41" xlink:href="#무제_그라디언트_87"/><linearGradient id="무제_그라디언트_78-12" x1="9.07" y1="362.29" x2="442.76" y2="362.29" xlink:href="#무제_그라디언트_87"/><linearGradient id="무제_그라디언트_78-13" x1="9.07" y1="418.55" x2="342.53" y2="418.55" xlink:href="#무제_그라디언트_87"/><linearGradient id="무제_그라디언트_78-14" x1="9.07" y1="474.81" x2="230.01" y2="474.81" xlink:href="#무제_그라디언트_87"/><linearGradient id="무제_그라디언트_78-15" x1="9.07" y1="555.47" x2="68.88" y2="555.47" xlink:href="#무제_그라디언트_87"/><linearGradient id="무제_그라디언트_78-16" x1="9.07" y1="531.07" x2="117.49" y2="531.07" xlink:href="#무제_그라디언트_87"/><linearGradient id="무제_그라디언트_78-17" x1="46" y1="228.1" x2="442.76" y2="228.1" xlink:href="#무제_그라디언트_87"/></defs><rect class="cls-2" x="6.42" width="438.99" height="616.13" rx="24.51"/><g id="line"><rect class="cls-1" x="21.46" y="14.03" width="406.79" height="586.92" rx="32.28"/><g class="cls-3"><polygon class="cls-4" points="406.43 616.75 9.07 175.73 9.07 208.93 376.52 616.75 406.43 616.75"/><polygon class="cls-5" points="9.07 50.85 9.07 84.06 442.75 565.38 442.75 532.18 9.07 50.85"/><polygon class="cls-6" points="293.92 616.75 9.07 300.61 9.07 333.81 264 616.75 293.92 616.75"/><polygon class="cls-7" points="181.4 616.75 9.07 425.49 9.07 458.69 151.49 616.75 181.4 616.75"/><polygon class="cls-8" points="442.75 157.55 300.94 0.16 271.03 0.16 442.75 190.75 442.75 157.55"/><polygon class="cls-9" points="442.75 282.43 188.43 0.16 158.51 0.16 442.75 315.63 442.75 282.43"/><polygon class="cls-10" points="442.75 228.48 237.03 0.16 222.42 0.16 442.75 244.7 442.75 228.48"/><polygon class="cls-11" points="442.75 32.67 413.46 0.16 383.55 0.16 442.75 65.87 442.75 32.67"/><polygon class="cls-12" points="442.75 103.6 349.55 0.16 334.94 0.16 442.75 119.82 442.75 103.6"/><polygon class="cls-13" points="442.75 353.36 124.52 0.16 109.9 0.16 442.75 369.58 442.75 353.36"/><polygon class="cls-14" points="12 0.16 9.07 0.16 9.07 13.13 442.75 494.46 442.75 478.24 12 0.16"/><polygon class="cls-15" points="442.75 616.75 442.75 603.11 9.07 121.78 9.07 138 440.43 616.75 442.75 616.75"/><polygon class="cls-16" points="342.52 616.75 9.07 246.66 9.07 262.88 327.91 616.75 342.52 616.75"/><polygon class="cls-17" points="230.01 616.75 9.07 371.54 9.07 387.76 215.39 616.75 230.01 616.75"/><path class="cls-18" d="M45,616.75H68.88L9.07,550.37v33.2L39.17,617C41.12,616.84,43.08,616.75,45,616.75Z"/><polygon class="cls-19" points="117.49 616.75 9.07 496.42 9.07 512.64 102.88 616.75 117.49 616.75"/><polygon class="cls-20" points="442.75 407.31 75.91 0.16 46 0.16 442.75 440.51 442.75 407.31"/></g></g><rect class="cls-21" x="111.52" y="503.62" width="232.01" height="49.02" rx="16.43"/><path class="cls-22" d="M325.61,81.94V96.15h-4V81.94a9.36,9.36,0,0,0,2,.21A9.5,9.5,0,0,0,325.61,81.94Z"/><path class="cls-23" d="M340.61,80V96.15h-4V80a10.2,10.2,0,0,0,2,.2A11,11,0,0,0,340.61,80Z"/><path class="cls-24" d="M355.61,86.15v10h-4v-10l0-.18a10.87,10.87,0,0,0,3.94,0Z"/><path class="cls-25" d="M325.61,81.94a9.5,9.5,0,0,1-2,.21,9.36,9.36,0,0,1-2-.21,10.38,10.38,0,0,1-8-10.27c0-5.78,4.48-29.52,10-29.52,2.4,0,4.6,4.47,6.32,10h0a91.89,91.89,0,0,0-2.36,15.94,12.47,12.47,0,0,0,4.24,9.51A10,10,0,0,1,325.61,81.94Z"/><path class="cls-26" d="M343.61,76.72a8.73,8.73,0,0,0,.24,2.06l-.24.06a10.53,10.53,0,0,1-3,1.12,11,11,0,0,1-2,.19,10.2,10.2,0,0,1-2-.2,10.5,10.5,0,0,1-4.76-2.34,12.47,12.47,0,0,1-4.24-9.51A91.89,91.89,0,0,1,330,52.16c2-8.95,5.14-18,8.64-18,4.11,0,7.69,12.47,9.58,22.61C345.43,63.49,343.61,73.4,343.61,76.72Z"/><path class="cls-27" d="M348.19,56.76c1.56-3.81,3.42-6.61,5.42-6.61,5.52,0,10,21.36,10,26.57a9.6,9.6,0,0,1-8,9.25,10.87,10.87,0,0,1-3.94,0,9.77,9.77,0,0,1-7.79-7.19,8.73,8.73,0,0,1-.24-2.06C343.61,73.4,345.43,63.49,348.19,56.76Z"/><path class="cls-28" d="M323.61,82.15a9.36,9.36,0,0,1-2-.21V96.15h2v-10a2,2,0,0,1,2-2V81.94A9.5,9.5,0,0,1,323.61,82.15Z"/><path class="cls-22" d="M323.61,86.15v10h2v-12A2,2,0,0,0,323.61,86.15Z"/><path class="cls-23" d="M338.61,84.15v12h2v-14A2,2,0,0,0,338.61,84.15Z"/><path class="cls-29" d="M338.61,80.15a10.2,10.2,0,0,1-2-.2v16.2h2v-12a2,2,0,0,1,2-2V80A11,11,0,0,1,338.61,80.15Z"/><path class="cls-23" d="M355.58,86a10.87,10.87,0,0,1-3.94,0l0,.18v10h2v-6a2,2,0,0,1,2-2v-2Z"/><path class="cls-24" d="M353.61,90.15v6h2v-8A2,2,0,0,0,353.61,90.15Z"/><path class="cls-30" d="M348.61,74.15c0-7,2-16,3.14-20.72a4,4,0,0,1,3.06-2.94,2.54,2.54,0,0,0-1.2-.34c-2,0-3.86,2.8-5.42,6.61-2.76,6.73-4.58,16.64-4.58,20a8.73,8.73,0,0,0,.24,2.06A9.77,9.77,0,0,0,351.64,86a10.87,10.87,0,0,0,3.94,0,9.73,9.73,0,0,0,7.88-7.63C361.06,81.27,348.61,83.94,348.61,74.15Z"/><path class="cls-31" d="M348.19,56.76c-.49-2.68-1.11-5.52-1.83-8.24-1.52.87-2.94,3.24-4.17,6.24a64.4,64.4,0,0,0-2.78,8.9,3.91,3.91,0,0,1-7.7-.67c-.06-.88-.1-1.83-.1-2.84,0-8.29,4-18.85,5.94-23.55a4,4,0,0,1,2.18-2.15,2.44,2.44,0,0,0-1.12-.3c-3.5,0-6.62,9.06-8.64,18a91.89,91.89,0,0,0-2.36,15.94,12.47,12.47,0,0,0,4.24,9.51A10.5,10.5,0,0,0,336.61,80a10.2,10.2,0,0,0,2,.2c.28,0,.55,0,.83,0a11.33,11.33,0,0,0,1.17-.15,10.53,10.53,0,0,0,3-1.12l.24-.06a8.73,8.73,0,0,1-.24-2.06C343.61,73.4,345.43,63.49,348.19,56.76Z"/><path class="cls-32" d="M327.61,68.1A91.89,91.89,0,0,1,330,52.16h0a41.38,41.38,0,0,0-2.2-5.77A86.69,86.69,0,0,0,325,56.16a91.89,91.89,0,0,0-2.36,15.94v0a2,2,0,0,1-3.28,1.59,5.51,5.51,0,0,1-1.72-2.57c-.76-7.68,3.18-20.65,5.06-26.27a4,4,0,0,1,2.13-2.36,2.24,2.24,0,0,0-1.19-.37c-5.52,0-10,23.74-10,29.52a10.38,10.38,0,0,0,8,10.27,9.36,9.36,0,0,0,2,.21,9.5,9.5,0,0,0,2-.21,8.54,8.54,0,0,0,1.22-.36,10,10,0,0,0,5-4A12.47,12.47,0,0,1,327.61,68.1Z"/><path class="cls-33" d="M354.5,51.48a2,2,0,0,0-.55,2.78,9.1,9.1,0,0,1,.49.83,2,2,0,0,0,3.68-.36,12.71,12.71,0,0,0-2.41-3.57A2,2,0,0,0,354.5,51.48Z"/><path class="cls-33" d="M357.58,57.23a2,2,0,0,0-1.34,2.5,107.71,107.71,0,0,1,3,14.7,2,2,0,0,0,2,1.72l.29,0a2,2,0,0,0,1.7-2.26c-.29-2-.77-5.13-1.44-8.42a67.53,67.53,0,0,0-2.43-7.9A2,2,0,0,0,357.58,57.23Z"/><path class="cls-30" d="M338.64,40.89a19.24,19.24,0,0,0,1,3.34,40.82,40.82,0,0,0,1.15,4,1.87,1.87,0,0,0,3.5.33,3.94,3.94,0,0,0,.35-1.88,14.5,14.5,0,0,0-.77-4.63,5.35,5.35,0,0,0-1.22-2.15,4.26,4.26,0,0,0-2.81-1.26C338.6,38.77,338.56,40.26,338.64,40.89Z"/><text class="cls-34" transform="translate(369.92 71.43) scale(0.89 1)">x 1M</text><text class="cls-35" transform="translate(136.32 534.67)">Dimaond <tspan class="cls-36" x="126.41" y="0">T</tspan><tspan class="cls-37" x="141.79" y="0">r</tspan><tspan class="cls-38" x="153.59" y="0">ee</tspan></text><text class="cls-39" transform="translate(440.82 552.64) rotate(-90)">Next<tspan class="cls-40" x="45.69" y="0">r</tspan><tspan x="54.51" y="0">ee</tspan></text><text class="cls-39" transform="translate(15.77 158.93) rotate(-90)">Next<tspan class="cls-40" x="45.69" y="0">r</tspan><tspan x="54.51" y="0">ee</tspan></text><path class="cls-41" d="M112,35.84l-8.57,8.56H69.19l-8.57-8.56Z"/><path class="cls-42" d="M90.61,57.26l-.3.25-4-4.54-4,4.54-.3-.25L69.19,44.4h34.27Z"/><polygon class="cls-43" points="82.34 57.51 77.33 63.25 49.91 35.84 60.62 35.84 69.19 44.4 82.04 57.26 82.34 57.51"/><polygon class="cls-43" points="122.74 35.84 95.32 63.25 90.31 57.51 90.61 57.26 103.46 44.4 112.03 35.84 122.74 35.84"/><polygon class="cls-44" points="77.33 63.25 71.33 70.11 37.06 35.84 49.91 35.84 77.33 63.25"/><polygon class="cls-44" points="135.59 35.84 101.32 70.11 95.32 63.25 122.74 35.84 135.59 35.84"/><polygon class="cls-45" points="79.9 93.67 86.32 115.09 79.68 106.8 69.19 93.67 79.9 93.67"/><polygon class="cls-45" points="86.32 115.09 92.75 93.67 103.46 93.67 92.96 106.8 86.32 115.09"/><polygon class="cls-46" points="86.32 72.25 79.9 93.67 69.19 93.67 79.68 80.56 86.32 72.25"/><polygon class="cls-42" points="86.32 72.25 92.75 93.67 86.32 115.09 79.9 93.67 86.32 72.25"/><polygon class="cls-46" points="92.96 80.56 103.46 93.67 92.75 93.67 86.32 72.25 92.96 80.56"/><polygon class="cls-47" points="71.33 70.11 79.68 80.56 69.19 93.67 58.48 93.67 49.91 74.39 71.33 70.11"/><polygon class="cls-47" points="69.19 93.67 79.68 106.8 71.33 117.23 49.91 112.95 58.48 93.67 69.19 93.67"/><polygon class="cls-47" points="92.96 106.8 101.32 117.23 86.32 134.37 71.33 117.23 79.68 106.8 86.32 115.09 92.96 106.8"/><polygon class="cls-47" points="114.17 93.67 122.74 112.95 101.32 117.23 92.96 106.8 103.46 93.67 114.17 93.67"/><polygon class="cls-47" points="122.74 74.39 114.17 93.67 103.46 93.67 92.96 80.56 101.32 70.11 122.74 74.39"/><polygon class="cls-47" points="95.32 63.25 101.32 70.11 92.96 80.56 86.32 72.25 79.68 80.56 71.33 70.11 77.33 63.25 82.34 57.51 86.32 52.97 90.31 57.51 95.32 63.25"/><polygon class="cls-48" points="79.68 80.56 71.33 70.11 49.91 74.39 74.29 87.3 79.68 80.56"/><polygon class="cls-49" points="74.29 87.3 49.91 74.39 58.48 93.67 69.19 93.67 74.29 87.3"/><polygon class="cls-49" points="74.28 100.04 49.91 112.95 71.33 117.23 79.68 106.8 74.28 100.04"/><polygon class="cls-48" points="69.19 93.67 58.48 93.67 49.91 112.95 74.28 100.04 69.19 93.67"/><polygon class="cls-48" points="79.68 106.8 71.33 117.23 86.32 134.37 86.32 115.09 79.68 106.8"/><polygon class="cls-47" points="86.32 115.09 86.32 134.37 101.32 117.23 92.96 106.8 86.32 115.09"/><polygon class="cls-48" points="92.96 106.8 101.32 117.23 122.74 112.95 98.36 100.04 92.96 106.8"/><polygon class="cls-47" points="103.46 93.67 98.36 100.04 122.74 112.95 114.17 93.67 103.46 93.67"/><polygon class="cls-47" points="98.36 87.3 122.74 74.39 101.32 70.11 92.96 80.56 98.36 87.3"/><polygon class="cls-48" points="103.46 93.67 114.17 93.67 122.74 74.39 98.36 87.3 103.46 93.67"/><polygon class="cls-49" points="86.32 72.25 86.32 52.97 82.34 57.51 77.33 63.25 71.33 70.11 79.68 80.56 86.32 72.25"/><polygon class="cls-48" points="92.96 80.56 101.32 70.11 95.32 63.25 90.31 57.51 86.32 52.97 86.32 72.25 92.96 80.56"/><polygon class="cls-50" points="92.75 93.67 86.32 72.25 79.9 93.67 86.32 87.24 92.75 93.67"/><polygon class="cls-50" points="86.32 100.09 79.9 93.67 86.32 115.09 92.75 93.67 86.32 100.09"/><path class="cls-51" d="M105.13,92.33,88,70.91a2.22,2.22,0,0,0-3.35,0L67.51,92.33a2.16,2.16,0,0,0,0,2.68l17.14,21.42a2.15,2.15,0,0,0,3.35,0L105.13,95A2.14,2.14,0,0,0,105.13,92.33ZM86.32,115.09,69.19,93.67,86.32,72.25l17.14,21.42Z"/><path class="cls-52" d="M103.46,35.84l-1,1.91a4.29,4.29,0,0,1-3.83,2.37H74a4.3,4.3,0,0,1-3.84-2.37l-1-1.91H60.62l8.57,8.56h34.27L112,35.84Z"/><polygon class="cls-53" points="76.68 51.9 71.33 57.26 77.33 63.25 82.34 57.51 82.04 57.26 76.68 51.9"/><polygon class="cls-53" points="96.02 51.84 90.61 57.26 90.31 57.51 95.32 63.25 101.69 56.88 96.02 51.84"/><polygon class="cls-54" points="64.9 63.68 71.33 70.11 77.33 63.25 71.33 57.26 64.9 63.68"/><polygon class="cls-54" points="95.32 63.25 101.32 70.11 108.5 62.92 101.69 56.88 95.32 63.25"/><path class="cls-55" d="M70.65,41.19c0,.59.36,1.07.8,1.07h24.1c.44,0,.8-.48.8-1.07s-.36-1.07-.8-1.07H71.45C71,40.12,70.65,40.6,70.65,41.19Z"/><path class="cls-55" d="M98.49,41.19a1.07,1.07,0,0,0,1.07,1.07h2.14a1.07,1.07,0,1,0,0-2.14H99.56A1.07,1.07,0,0,0,98.49,41.19Z"/><ellipse class="cls-56" cx="94.21" cy="86.62" rx="1.77" ry="2.46" transform="translate(-33.65 92.03) rotate(-45.02)"/><ellipse class="cls-56" cx="93.66" cy="89.83" rx="0.88" ry="1.23" transform="translate(-36.09 92.59) rotate(-45.02)"/><path d="M88,70.91a2.22,2.22,0,0,0-3.35,0L67.51,92.33a2.16,2.16,0,0,0,0,2.68l17.14,21.42a2.15,2.15,0,0,0,3.35,0L105.13,95a2.14,2.14,0,0,0,0-2.68Zm-1.68,36.72-4.19-14,4.19-14,4.19,14Zm-8-16.1H73.64l7.46-9.32Zm0,4.28,2.8,9.32-7.46-9.32Zm16,0H99l-7.45,9.32Zm0-4.28-2.79-9.32L99,91.53Z"/><path d="M137.57,35a2.16,2.16,0,0,0-2-1.33H37.06a2.15,2.15,0,0,0-1.52,3.66L42,43.78l3-3L42.23,38H49L74.39,63.35,71.22,67,57.85,53.6l-3,3L67,68.79l-17.49,3.5a2.15,2.15,0,0,0-1.54,3l8.18,18.41L48,112.08a2.15,2.15,0,0,0,1.54,3l20.7,4.14,14.52,16.59a2.14,2.14,0,0,0,3.22,0l14.52-16.59,20.71-4.14a2.16,2.16,0,0,0,1.48-1.12,2.11,2.11,0,0,0,0-1.85l-8.18-18.41,8.18-18.41a2.11,2.11,0,0,0,0-1.85,2.16,2.16,0,0,0-1.48-1.12l-17.5-3.5L137.1,37.35A2.14,2.14,0,0,0,137.57,35ZM87.93,51.56a2.21,2.21,0,0,0-3.22,0l-2.49,2.85L65.79,38h41.06L90.43,54.41ZM55.08,38h4.65L79.39,57.64l-2.17,2.48Zm57.7,53.55h-5v4.28h5l6.91,15.56-17.51,3.5-4.33-5.41-3.35,2.68,4,5-12.2,13.94-12.2-13.94,4-5-3.34-2.67-4.33,5.4L53,111.37l6.92-15.56h5V91.53h-5L53,76l17.52-3.51,4.33,5.42,3.35-2.68-4-5,12.2-14,12.2,14-4,5,3.35,2.68,4.33-5.41L119.69,76ZM101.42,67l-3.17-3.62,15.29-15.29-3-3L95.42,60.12l-2.17-2.48L112.91,38h4.65l-2.76,2.77,3,3,5.8-5.8h6.8Z"/><rect x="47.76" y="45.66" width="4.28" height="6.05" transform="translate(-19.81 49.56) rotate(-45.01)"/><rect x="77.75" y="42.26" width="19.28" height="4.28"/><path class="cls-42" d="M316.5,351.38l0,.43-11.62,11.62-23-7.67a11.53,11.53,0,0,0,6.82-4.8l4.61-6.9v-3.91a15.59,15.59,0,0,0,4.18,4.38C303.06,348.71,309.72,350.65,316.5,351.38Z"/><path class="cls-42" d="M188.65,305.33,173.16,317H151.63a84,84,0,0,0,17.08-17.12,6.93,6.93,0,0,1,1.43-1.62,6.82,6.82,0,0,1,2-.89c.27-.08.54-.2.81-.31l.23.58Z"/><path class="cls-42" d="M213.28,291.24,196.4,305.33h-7.75l-15.49-7.74-.23-.58a57.25,57.25,0,0,0,9.91-4.61c2.6-1.51,5.27-3.57,5.81-6.43l7.71,0c6.43,0,11.31-2.48,16.65-6.66l6.63,6.62Z"/><path class="cls-42" d="M228,263.7l7.13,10.65L219.64,286,213,279.35c1.09-.82,2.17-1.75,3.29-2.72C220.84,272.72,225.21,268.77,228,263.7Z"/><path class="cls-42" d="M254.14,259.55l-7.39,14.8H235.13L228,263.7a24.87,24.87,0,0,0,3.22-12.55s16.53.27,22.15-6c0,.11,0,.27,0,.42a5.45,5.45,0,0,1-.7,1.86c-1.55,3.06-3,6.78-1.2,9.72A7.18,7.18,0,0,0,254.14,259.55Z"/><path class="cls-42" d="M280.13,277.91l-17.89-3.56H246.75l7.39-14.8a21.7,21.7,0,0,0,4.22,1.63c3.14.93,6.28,1.9,9.38,2.83a3,3,0,0,1,1.58.85,3.42,3.42,0,0,1,.35,2.17c0,3.1,2.52,5.69,5.08,7.59A36,36,0,0,0,280.13,277.91Z"/><path class="cls-57" d="M151.63,317c-2.52,1.94-5.11,3.8-7.79,5.54-1.66,1.09-3.25,2.56-5,3.8a11.71,11.71,0,0,1-7,2.28h-1a11.87,11.87,0,0,1-9.29-19.29,10.89,10.89,0,0,0,.93-1.35,2.6,2.6,0,0,0,.5-1.47,2.77,2.77,0,0,0-.62-1.48c-.31-.46-.62-1-.93-1.51a18.52,18.52,0,0,1-2.48-9.52v-3.26A18.84,18.84,0,0,1,122.16,280c5.34-7.63,14.36-13.41,23.43-16,3.91-1.09,12.08-1.28,15.95-1.28l.78-.58c.69.93,1.43,1.82,2.13,2.67a50,50,0,0,0,13.17,10.92A3,3,0,0,1,179,277.1a5.31,5.31,0,0,1,.08,1.74,6.46,6.46,0,0,0,3.29,5.62c1.9,1.12,2.36,1.55,6.27,1.51-.54,2.86-3.21,4.92-5.81,6.43a57.25,57.25,0,0,1-9.91,4.61c-.27.11-.54.23-.81.31a6.82,6.82,0,0,0-2,.89,6.93,6.93,0,0,0-1.43,1.62A84,84,0,0,1,151.63,317Z"/><path class="cls-57" d="M254.14,181.24a3.79,3.79,0,0,1-.11,3.37,4.42,4.42,0,0,1-3.1,1.74,65.12,65.12,0,0,1-10.57,1.48A8.45,8.45,0,0,1,239,193h-3.87a96,96,0,0,0-21.5,3.17,72.89,72.89,0,0,0-17.46,7.21,24.41,24.41,0,0,1-8.87-4.07c-1.24-1-2.48-2.29-2.48-4a5.66,5.66,0,0,1,.89-2.71,19.32,19.32,0,0,1,6.66-6.78,4.88,4.88,0,0,0,1.4-1,6,6,0,0,0,1-2c3.53-9.26,12.63-15.34,21.22-16.54a35.53,35.53,0,0,1,7.29-.31c2,.12,3.87.43,5.81.74,1.62.27,3.25.54,4.87.93a37,37,0,0,1,18.25,10.8A8.89,8.89,0,0,1,254.14,181.24Z"/><path class="cls-58" d="M228,263.7c-2.79,5.07-7.16,9-11.7,12.93-1.12,1-2.2,1.9-3.29,2.72-5.34,4.18-10.22,6.66-16.65,6.66l-7.71,0c-3.91,0-4.37-.39-6.27-1.51a6.46,6.46,0,0,1-3.29-5.62,5.31,5.31,0,0,0-.08-1.74,3,3,0,0,0-1.39-1.36,50,50,0,0,1-13.17-10.92c-.7-.85-1.44-1.74-2.13-2.67a35.82,35.82,0,0,1-3.41-5.23,13,13,0,0,1-1.28-5.92l0-5.43c0-8.09,3.06-12.43,7-17.19a44.67,44.67,0,0,1,13.13-10.58,15.41,15.41,0,0,0,4.07-3.17,46.91,46.91,0,0,1,5.19-4.88,62.43,62.43,0,0,1,9.1-6.35,72.89,72.89,0,0,1,17.46-7.21,96,96,0,0,1,21.5-3.17h15.49c1,0,2,.19,3,.31a127.69,127.69,0,0,1,17.12,3.29,9.52,9.52,0,0,1,4.61,2.36c1.35,1.43-.16,4.14-1.43,5.66,0,0,15.49,0,15.49,11.61v3.88c-11.08,0-22.12,2.9-30.71,9.45-4,3-7.6,7.63-6.24,12.31a12.28,12.28,0,0,1,1,3.22c-5.62,6.31-22.15,6-22.15,6A24.87,24.87,0,0,1,228,263.7Z"/><path class="cls-59" d="M280.13,277.91a36,36,0,0,1-5.38-3.29c-2.56-1.9-5.08-4.49-5.08-7.59a3.42,3.42,0,0,0-.35-2.17,3,3,0,0,0-1.58-.85c-3.1-.93-6.24-1.9-9.38-2.83a21.7,21.7,0,0,1-4.22-1.63,7.18,7.18,0,0,1-2.71-2.44c-1.78-2.94-.35-6.66,1.2-9.72a5.45,5.45,0,0,0,.7-1.86c0-.15,0-.31,0-.42a12.28,12.28,0,0,0-1-3.22c-1.36-4.68,2.28-9.29,6.24-12.31,8.59-6.55,19.63-9.45,30.71-9.45a66.58,66.58,0,0,1,12.12,1.12,32.57,32.57,0,0,1,10.38,3.45,42.94,42.94,0,0,0,5.46,3.25,39.71,39.71,0,0,0,4.72,1.32,20.57,20.57,0,0,1,13.52,11.81,10.55,10.55,0,0,1,8,7.44c6.19,5,12.78,11.11,14.79,18.66,1.28,4.61.66,9.57-.74,14.18-.92,3.14-2.47,6.43-5.57,7.82-2.52,1.13-5.46.66-8.06-.23a21.86,21.86,0,0,0-2.75-.85,18.08,18.08,0,0,0-2.94-.12c-7-.08-13.13-5.65-20.06-5a92.36,92.36,0,0,1-22.66-.24A52.36,52.36,0,0,1,280.13,277.91Z"/><path class="cls-58" d="M293.22,340.15a8.63,8.63,0,0,1-1.36-5.15,65.58,65.58,0,0,1-10.61-1.47,4.44,4.44,0,0,1-2.94-1.59c-.08,0-.12-.12-.16-.15a3.93,3.93,0,0,1-.11-3.37,8.66,8.66,0,0,1,1.93-2.79,15.3,15.3,0,0,1,1.36-1.32A36.76,36.76,0,0,1,293,316.57a33.89,33.89,0,0,1,5.3-1.75c1.59-.38,3.22-.66,4.85-.93a57.44,57.44,0,0,1,5.8-.73,34.84,34.84,0,0,1,7.29.31c8.63,1.2,17.69,7.28,21.22,16.53a6.13,6.13,0,0,0,1.08,2.06,5.83,5.83,0,0,0,1.36,1,19.29,19.29,0,0,1,6.66,6.77,5.78,5.78,0,0,1,.93,2.71c0,1.71-1.28,3-2.52,4-5.57,4.23-12.62,5.15-19.36,5.31a63.93,63.93,0,0,1-9.06-.43c-6.78-.73-13.44-2.67-19.1-6.85A15.59,15.59,0,0,1,293.22,340.15Z"/><path class="cls-24" d="M281.79,355.76a11.87,11.87,0,0,1-2,.31L247,358.43a45.9,45.9,0,0,0-31.92,15.84,22.8,22.8,0,0,0-3.21,4.65l3.87,3.87,7.75,7.75,7.74,7.75L239,406l-38.73-7.74L165.42,406H130.56v-3.87l33.5-6.7a5.34,5.34,0,0,0,2.21-1h3v-7.74a40.16,40.16,0,0,1,4-15.46c5.23-11.27,17.54-24.94,46.4-27.15H258a19.36,19.36,0,0,0,13.78-5.73l5.93-5.89.58-.5a4.44,4.44,0,0,0,2.94,1.59A65.58,65.58,0,0,0,291.86,335a8.63,8.63,0,0,0,1.36,5.15v3.91l-4.61,6.9A11.53,11.53,0,0,1,281.79,355.76Z"/><path class="cls-24" d="M274.63,292.17,293,316.57a36.76,36.76,0,0,0-11.62,7.74l-13.79-20a7.92,7.92,0,0,0-4.49-3.88l-6.12-2.05a7.67,7.67,0,0,0-4.92,0L214.37,311a7.73,7.73,0,0,1-9.37-3.87l-.86-1.75H196.4l16.88-14.09,6.36,6.35L248,286.94a16.22,16.22,0,0,1,5.43-1h8.83A15.45,15.45,0,0,1,274.63,292.17Z"/><polygon class="cls-60" points="266.11 390.54 223.51 390.54 215.76 382.79 231.25 378.92 239 378.92 266.11 390.54"/><path class="cls-60" d="M173.16,371.17l.08,0a40.16,40.16,0,0,0-4,15.46v7.74h-3a4.78,4.78,0,0,0,1.16-6.16,2.94,2.94,0,0,0-.16-.31c-6-9.6-19.79-10.45-27.8-2.47l-1.16,1.2H118.94l15.49-7.75,6.16-8.21a18.23,18.23,0,0,1,14.52-7.28H156a17.94,17.94,0,0,1,10.07,3.06Z"/><path class="cls-61" d="M168.71,299.83a6.93,6.93,0,0,1,1.43-1.62,6.82,6.82,0,0,1,2-.89c.27-.08.54-.2.81-.31a57.25,57.25,0,0,0,9.91-4.61c2.6-1.51,5.27-3.57,5.81-6.43-3.91,0-4.37-.39-6.27-1.51a6.46,6.46,0,0,1-3.29-5.62,5.31,5.31,0,0,0-.08-1.74,3,3,0,0,0-1.39-1.36,50,50,0,0,1-13.17-10.92c-.58-.7-1.17-1.44-1.76-2.2a42.74,42.74,0,0,0-17.3,14.51,20.81,20.81,0,0,0-3.21,11.36v3.44A20.41,20.41,0,0,0,144.66,302c.31.58.62,1.11.93,1.6a3,3,0,0,1,.62,1.56,2.87,2.87,0,0,1-.51,1.56,9.65,9.65,0,0,1-.93,1.43,12.9,12.9,0,0,0-2.59,7.83,13.08,13.08,0,0,0,1.72,6.46c2.65-1.73,5.23-3.58,7.73-5.5A84.22,84.22,0,0,0,168.71,299.83Z"/><path class="cls-62" d="M193.73,196.51a6.1,6.1,0,0,0,1-2c3.53-9.26,12.63-15.34,21.22-16.54a35.53,35.53,0,0,1,7.29-.31c2,.12,3.87.43,5.81.74,1.62.27,3.25.54,4.88.93a36.1,36.1,0,0,1,14.68,7.5c.76-.15,1.52-.25,2.28-.42a4.46,4.46,0,0,0,3.1-1.74,3.79,3.79,0,0,0,.11-3.37,8.89,8.89,0,0,0-1.93-2.79A37,37,0,0,0,234,167.66c-1.63-.39-3.26-.66-4.88-.93-1.94-.31-3.84-.62-5.81-.74a35.53,35.53,0,0,0-7.29.31c-8.59,1.2-17.69,7.28-21.22,16.54a6,6,0,0,1-1,2,4.88,4.88,0,0,1-1.4,1,19.32,19.32,0,0,0-6.66,6.78,5.66,5.66,0,0,0-.89,2.71c0,1.7,1.24,3,2.48,4,.48.35,1,.66,1.47,1a18.62,18.62,0,0,1,3.6-2.83A4.88,4.88,0,0,0,193.73,196.51Z"/><path class="cls-63" d="M320.37,339.77c-6.78-.74-13.44-2.68-19.09-6.86a15.49,15.49,0,0,1-4.19-4.38,8.55,8.55,0,0,1-1.35-5.15,65.28,65.28,0,0,1-10.61-1.47c-.28-.07-.55-.13-.82-.21a38.38,38.38,0,0,0-3,2.61,15.3,15.3,0,0,0-1.36,1.32,8.66,8.66,0,0,0-1.93,2.79,3.93,3.93,0,0,0,.11,3.37s.08.11.16.15a4.44,4.44,0,0,0,2.94,1.59A65.58,65.58,0,0,0,291.86,335a8.63,8.63,0,0,0,1.36,5.15,15.59,15.59,0,0,0,4.18,4.38c5.66,4.18,12.32,6.12,19.1,6.85a63.93,63.93,0,0,0,9.06.43c6.74-.16,13.78-1.08,19.36-5.31,1.24-1,2.52-2.28,2.52-4a5.78,5.78,0,0,0-.93-2.71,20.37,20.37,0,0,0-1.79-2.51c-4.74,2.19-10.1,2.78-15.29,2.9A65.43,65.43,0,0,1,320.37,339.77Z"/><path class="cls-58" d="M335.89,277.76a29.9,29.9,0,0,1-8.24-3c-4.66-2.73-8-7.4-12.73-9.93-5.55-3-12.18-2.56-18.42-3.23s-13.19-3.16-15.45-9c-.79-2.05-1-4.52-2.76-5.88a7.43,7.43,0,0,0-4.09-1.18,88.35,88.35,0,0,0-12.81-.09,29.51,29.51,0,0,1-8-.2c0,.11,0,.23,0,.35a5.45,5.45,0,0,1-.7,1.86c-1.55,3.06-3,6.78-1.2,9.72a7.18,7.18,0,0,0,2.71,2.44,21.7,21.7,0,0,0,4.22,1.63c3.14.93,6.28,1.9,9.38,2.83a3,3,0,0,1,1.58.85,3.42,3.42,0,0,1,.35,2.17c0,3.1,2.52,5.69,5.08,7.59a36,36,0,0,0,5.38,3.29,52.36,52.36,0,0,0,15.45,4.84,92.36,92.36,0,0,0,22.66.24c6.93-.66,13.09,4.91,20.06,5a18.08,18.08,0,0,1,2.94.12A21.86,21.86,0,0,1,344,289c2.6.89,5.54,1.36,8.06.23,3.1-1.39,4.65-4.68,5.57-7.82a33,33,0,0,0,1.33-6.73,16.54,16.54,0,0,1-6,3.5C347.49,279.91,341.5,279.13,335.89,277.76Z"/><path class="cls-64" d="M358.36,267.18c-2-7.55-8.6-13.63-14.79-18.66a10.55,10.55,0,0,0-8-7.44A20.57,20.57,0,0,0,322,229.27a39.71,39.71,0,0,1-4.72-1.32,42.94,42.94,0,0,1-5.46-3.25,32.57,32.57,0,0,0-10.38-3.45,66.58,66.58,0,0,0-12.12-1.12c-11.08,0-22.12,2.9-30.71,9.45-4,3-7.6,7.63-6.24,12.31.11.34.25.68.38,1a24.22,24.22,0,0,1,2-1.71c8.6-6.55,19.64-9.45,30.71-9.45a66.6,66.6,0,0,1,12.13,1.12A32.57,32.57,0,0,1,308,236.32a42.94,42.94,0,0,0,5.46,3.25,39.19,39.19,0,0,0,4.72,1.32,20.54,20.54,0,0,1,13.52,11.81,10.52,10.52,0,0,1,8,7.43c5.87,4.77,12,10.5,14.39,17.5a16.64,16.64,0,0,0,4.87-3A21.22,21.22,0,0,0,358.36,267.18Z"/><path class="cls-63" d="M186.61,260.93c2.06.87,3.79,2.39,5.79,3.4a13.57,13.57,0,0,0,15.68-2.9c4.54-5,4.84-13,9.77-17.59,4.32-4.06,10.85-4.34,16.41-6.41a9.92,9.92,0,0,0,3.41-1.93c2.1-2,2.51-5.1,3.51-7.81,2.28-6.25,7.84-10.44,13.59-13.33,2.93-1.47,6.17-2.26,8.84-4.1A50.86,50.86,0,0,1,274,204.41c1.24-1.54,2.55-4.06,1.26-5.43a9.52,9.52,0,0,0-4.61-2.36q-4.14-1.11-8.34-1.9c-.23.25-.45.5-.69.73-2.79,2.65-6.44,4.18-10.06,5.49s-7.34,2.48-10.55,4.6c-4.12,2.72-7.17,6.88-11.4,9.43-10.53,6.38-25.19,1.22-35.75,7.55-2.5,1.51-4.64,3.6-7.21,5a15.78,15.78,0,0,1-16.93-1.56,5.86,5.86,0,0,1-1.34-1.47,37.7,37.7,0,0,0-3.77,3.91c-3.91,4.76-7,9.1-7,17.19l0,5.43a13,13,0,0,0,1.28,5.92,35.82,35.82,0,0,0,3.41,5.23c.29.39.59.74.89,1.12a34.84,34.84,0,0,0,7.13-1C175.73,260.92,181.5,258.77,186.61,260.93Z"/><path class="cls-58" d="M169.75,225.94a15.78,15.78,0,0,0,16.93,1.56c2.57-1.38,4.71-3.47,7.21-5,10.56-6.33,25.22-1.17,35.75-7.55,4.23-2.55,7.28-6.71,11.4-9.43,3.21-2.12,6.93-3.3,10.55-4.6s7.27-2.84,10.06-5.49c.24-.23.46-.48.69-.73q-4.36-.84-8.78-1.39c-1-.12-2-.27-3-.31H235.09a96,96,0,0,0-21.5,3.17,72.89,72.89,0,0,0-17.46,7.21,62.43,62.43,0,0,0-9.1,6.35,46.91,46.91,0,0,0-5.19,4.88,15.41,15.41,0,0,1-4.07,3.17,49.23,49.23,0,0,0-9.36,6.67A5.86,5.86,0,0,0,169.75,225.94Z"/><path class="cls-57" d="M273.86,204.64c.05-.07.11-.16.17-.23a50.86,50.86,0,0,0-10.42,5.85c-2.67,1.84-5.91,2.63-8.84,4.1-5.75,2.89-11.31,7.08-13.59,13.33-1,2.71-1.41,5.83-3.51,7.81a9.92,9.92,0,0,1-3.41,1.93c-5.56,2.07-12.09,2.35-16.41,6.41-4.93,4.62-5.23,12.59-9.77,17.59a13.57,13.57,0,0,1-15.68,2.9c-2-1-3.73-2.53-5.79-3.4-5.11-2.16-10.88,0-16.27,1.31a34.84,34.84,0,0,1-7.13,1c.42.52.83,1.06,1.24,1.55a50,50,0,0,0,13.17,10.92A3,3,0,0,1,179,277.1a5.31,5.31,0,0,1,.08,1.74,6.46,6.46,0,0,0,3.29,5.62c1.9,1.12,2.36,1.55,6.27,1.51l7.71,0c6.43,0,11.31-2.48,16.65-6.66,1.09-.82,2.17-1.75,3.29-2.72,4.54-3.91,8.91-7.86,11.7-12.93a24.87,24.87,0,0,0,3.22-12.55s16.53.27,22.15-6a12.28,12.28,0,0,0-1-3.22c-1.36-4.68,2.28-9.29,6.24-12.31,8.59-6.55,19.63-9.45,30.71-9.45v-3.88C289.35,204.64,273.86,204.64,273.86,204.64Z"/><path class="cls-65" d="M281.25,333.53a4.44,4.44,0,0,1-2.94-1.59l-.58.5-5.84,5.8,4.22,1.81a3.88,3.88,0,0,1-.3,7.24l-1.95.65-50.35,3.87s-31,3.87-31,31h0a9.15,9.15,0,0,1-7.64,9l-15.6,2.6h-3a5.34,5.34,0,0,1-2.21,1l-33.5,6.7V406h34.86l34.85-7.74L239,406l-7.75-7.74-7.74-7.75-7.75-7.75-3.87-3.87a22.8,22.8,0,0,1,3.21-4.65A45.9,45.9,0,0,1,247,358.43l32.76-2.36a10,10,0,0,0,1.74-.25,11.49,11.49,0,0,0,7.09-4.86l4.61-6.9v-3.91a8.63,8.63,0,0,1-1.36-5.15A65.58,65.58,0,0,1,281.25,333.53Z"/><path class="cls-65" d="M205,307.08a7.73,7.73,0,0,0,9.37,3.87L252,298.4a7.67,7.67,0,0,1,4.92,0l6.12,2.05a7.92,7.92,0,0,1,4.49,3.88l13.79,20A36.76,36.76,0,0,1,293,316.57l-5-6.66-3.14,1.57a3.88,3.88,0,0,1-5.05-1.47l-3.87-6.44a26,26,0,0,0-32.82-10.37l-27.31,12.14,3.88-7.75h0l-6.36-6.35L196.4,305.33h7.74Z"/><path class="cls-66" d="M280.13,277.92a36,36,0,0,1-5.38-3.29,19.13,19.13,0,0,1-2.54-2.23L263,270.56a3.82,3.82,0,0,0-.75-.08H250.85l4.71-9.42,1.05-.45a16.08,16.08,0,0,1-2.47-1.05,8.84,8.84,0,0,1-1.53-1.06c-.05.08-.16.11-.2.19l-5.89,11.79H235.13a.93.93,0,0,0-.24,0l-5.44-8.1-.53-.61c-.29.64-.58,1.28-.92,1.88s-.77,1.18-1.15,1.76l4.57,6.84-13,9.73-3.92-3.92c-.49.42-1,.87-1.5,1.24s-1,.79-1.56,1.17l3.94,4-20.39,17h-6.35a3.82,3.82,0,0,0-1.94.58l-11.06-6.14c-.9.37-1.8.79-2.72,1.11a6.72,6.72,0,0,1-.81.31c-.39.13-.76.26-1.13.42l12.26,6.81-11.38,8.53H156.38c-1.54,1.34-3.13,2.63-4.75,3.88-1.39,1.06-2.85,2-4.28,3l.84.42a3.86,3.86,0,0,0,1.73.41h23.24a3.82,3.82,0,0,0,2.32-.78l14.46-10.84h6.46a3.88,3.88,0,0,0,2.48-.9l3.57-3L216.05,294l6-5,14.36-10.76h25.43l17.48,3.48,1.47.31a4.43,4.43,0,0,0,.8.08A3.84,3.84,0,0,0,285,280,44.54,44.54,0,0,1,280.13,277.92Z"/><path class="cls-66" d="M316.5,351.39c-1.48-.16-2.95-.41-4.4-.7L303.79,359l-17.26-5.75a11.43,11.43,0,0,1-4.74,2.51,11,11,0,0,1-2,.31l-2.11.15.69,1.33a3.89,3.89,0,0,0,2.21,1.89l23.05,7.67a3.93,3.93,0,0,0,1.22.19,3.87,3.87,0,0,0,2.74-1.13l14.4-14.4C320.15,351.72,318.32,351.62,316.5,351.39Z"/></svg>