<svg id="레이어_1" data-name="레이어 1" xmlns="http://www.w3.org/2000/svg" xmlns:xlink="http://www.w3.org/1999/xlink" viewBox="0 0 451.83 616.13"><defs><style>.cls-1{fill:url(#무제_그라디언트_87);}.cls-2{fill:url(#linear-gradient);}.cls-3{clip-path:url(#clip-path);}.cls-4{fill:url(#무제_그라디언트_78);}.cls-5{fill:url(#무제_그라디언트_78-2);}.cls-6{fill:url(#무제_그라디언트_78-3);}.cls-7{fill:url(#무제_그라디언트_78-4);}.cls-8{fill:url(#무제_그라디언트_78-5);}.cls-9{fill:url(#무제_그라디언트_78-6);}.cls-10{fill:url(#무제_그라디언트_78-7);}.cls-11{fill:url(#무제_그라디언트_78-8);}.cls-12{fill:url(#무제_그라디언트_78-9);}.cls-13{fill:url(#무제_그라디언트_78-10);}.cls-14{fill:url(#무제_그라디언트_78-11);}.cls-15{fill:url(#무제_그라디언트_78-12);}.cls-16{fill:url(#무제_그라디언트_78-13);}.cls-17{fill:url(#무제_그라디언트_78-14);}.cls-18{fill:url(#무제_그라디언트_78-15);}.cls-19{fill:url(#무제_그라디언트_78-16);}.cls-20{fill:url(#무제_그라디언트_78-17);}.cls-21{fill:#ffdf64;}.cls-22{fill:#714226;}.cls-23{fill:#7c4026;}.cls-24{fill:#9a6948;}.cls-25{fill:#004a2d;}.cls-26{fill:#009e60;}.cls-27{fill:#00e088;}.cls-28{fill:#422716;}.cls-29{fill:#59341e;}.cls-30{fill:#00c477;}.cls-31{fill:#007145;}.cls-32{fill:#003b24;}.cls-33{fill:#00ff9b;}.cls-34,.cls-42{font-size:19px;font-family:Cafe24Ssurround;}.cls-35{font-size:25.42px;fill:#434440;font-family:CookieRun-Regular, CookieRun;}.cls-36{letter-spacing:-0.03em;}.cls-37{letter-spacing:-0.01em;}.cls-38{letter-spacing:0em;}.cls-39{letter-spacing:-0.06em;}.cls-40{letter-spacing:-0.02em;}.cls-41{letter-spacing:0em;}.cls-42,.cls-50{fill:#fff;}.cls-43{fill:#a672f1;}.cls-44{fill:#b785ff;}.cls-45{fill:#8163ff;}.cls-46{fill:#fb9881;}.cls-47{fill:#ffce54;}.cls-48{fill:#fff978;}.cls-49{fill:#ffb844;}.cls-51{fill:#fea740;}.cls-52{fill:#bf9259;}.cls-53{fill:#ffe24f;}.cls-54{fill:#ffd146;}.cls-55{fill:#ffb746;}.cls-56{fill:#916b42;}.cls-57{fill:#845335;}.cls-58{fill:#ffc146;}.cls-59{fill:#eeab41;}.cls-60{fill:#d9882b;}.cls-61{fill:#faf6c8;}.cls-62{fill:#faf180;}</style><linearGradient id="무제_그라디언트_87" x1="21.46" y1="306.63" x2="428.24" y2="306.63" gradientTransform="translate(0 -32.83) scale(1 1.11)" gradientUnits="userSpaceOnUse"><stop offset="0" stop-color="#fff"/><stop offset="1" stop-color="#fff" stop-opacity="0.5"/></linearGradient><linearGradient id="linear-gradient" x1="28.01" y1="221" x2="429.84" y2="397.77" gradientUnits="userSpaceOnUse"><stop offset="0.03" stop-color="#ff0" stop-opacity="0.8"/><stop offset="0.3" stop-color="#ef5734" stop-opacity="0.8"/><stop offset="0.55" stop-color="#ff0" stop-opacity="0.4"/><stop offset="0.99" stop-color="#fb7ba2" stop-opacity="0.5"/></linearGradient><clipPath id="clip-path"><rect class="cls-1" x="21.46" y="14.03" width="406.79" height="586.92" rx="32.28"/></clipPath><linearGradient id="무제_그라디언트_78" x1="9.07" y1="386.6" x2="406.43" y2="386.6" xlink:href="#무제_그라디언트_87"/><linearGradient id="무제_그라디언트_78-2" x1="9.07" y1="307.2" x2="442.76" y2="307.2" xlink:href="#무제_그라디언트_87"/><linearGradient id="무제_그라디언트_78-3" x1="9.07" y1="442.86" x2="293.92" y2="442.86" xlink:href="#무제_그라디언트_87"/><linearGradient id="무제_그라디언트_78-4" x1="9.07" y1="499.11" x2="181.4" y2="499.11" xlink:href="#무제_그라디언트_87"/><linearGradient id="무제_그라디언트_78-5" x1="271.03" y1="115.59" x2="442.76" y2="115.59" xlink:href="#무제_그라디언트_87"/><linearGradient id="무제_그라디언트_78-6" x1="158.51" y1="171.84" x2="442.76" y2="171.84" xlink:href="#무제_그라디언트_87"/><linearGradient id="무제_그라디언트_78-7" x1="222.42" y1="139.89" x2="442.76" y2="139.89" xlink:href="#무제_그라디언트_87"/><linearGradient id="무제_그라디언트_78-8" x1="383.55" y1="59.33" x2="442.76" y2="59.33" xlink:href="#무제_그라디언트_87"/><linearGradient id="무제_그라디언트_78-9" x1="334.94" y1="83.63" x2="442.76" y2="83.63" xlink:href="#무제_그라디언트_87"/><linearGradient id="무제_그라디언트_78-10" x1="109.9" y1="196.15" x2="442.76" y2="196.15" xlink:href="#무제_그라디언트_87"/><linearGradient id="무제_그라디언트_78-11" x1="9.07" y1="252.41" x2="442.76" y2="252.41" xlink:href="#무제_그라디언트_87"/><linearGradient id="무제_그라디언트_78-12" x1="9.07" y1="362.29" x2="442.76" y2="362.29" xlink:href="#무제_그라디언트_87"/><linearGradient id="무제_그라디언트_78-13" x1="9.07" y1="418.55" x2="342.53" y2="418.55" xlink:href="#무제_그라디언트_87"/><linearGradient id="무제_그라디언트_78-14" x1="9.07" y1="474.81" x2="230.01" y2="474.81" xlink:href="#무제_그라디언트_87"/><linearGradient id="무제_그라디언트_78-15" x1="9.07" y1="555.47" x2="68.88" y2="555.47" xlink:href="#무제_그라디언트_87"/><linearGradient id="무제_그라디언트_78-16" x1="9.07" y1="531.07" x2="117.49" y2="531.07" xlink:href="#무제_그라디언트_87"/><linearGradient id="무제_그라디언트_78-17" x1="46" y1="228.1" x2="442.76" y2="228.1" xlink:href="#무제_그라디언트_87"/></defs><rect class="cls-2" x="6.42" width="438.99" height="616.13" rx="24.51"/><g id="line"><rect class="cls-1" x="21.46" y="14.03" width="406.79" height="586.92" rx="32.28"/><g class="cls-3"><polygon class="cls-4" points="406.43 616.75 9.07 175.73 9.07 208.93 376.52 616.75 406.43 616.75"/><polygon class="cls-5" points="9.07 50.85 9.07 84.06 442.75 565.38 442.75 532.18 9.07 50.85"/><polygon class="cls-6" points="293.92 616.75 9.07 300.61 9.07 333.81 264 616.75 293.92 616.75"/><polygon class="cls-7" points="181.4 616.75 9.07 425.49 9.07 458.69 151.49 616.75 181.4 616.75"/><polygon class="cls-8" points="442.75 157.55 300.94 0.16 271.03 0.16 442.75 190.75 442.75 157.55"/><polygon class="cls-9" points="442.75 282.43 188.43 0.16 158.51 0.16 442.75 315.63 442.75 282.43"/><polygon class="cls-10" points="442.75 228.48 237.03 0.16 222.42 0.16 442.75 244.7 442.75 228.48"/><polygon class="cls-11" points="442.75 32.67 413.46 0.16 383.55 0.16 442.75 65.87 442.75 32.67"/><polygon class="cls-12" points="442.75 103.6 349.55 0.16 334.94 0.16 442.75 119.82 442.75 103.6"/><polygon class="cls-13" points="442.75 353.36 124.52 0.16 109.9 0.16 442.75 369.58 442.75 353.36"/><polygon class="cls-14" points="12 0.16 9.07 0.16 9.07 13.13 442.75 494.46 442.75 478.24 12 0.16"/><polygon class="cls-15" points="442.75 616.75 442.75 603.11 9.07 121.78 9.07 138 440.43 616.75 442.75 616.75"/><polygon class="cls-16" points="342.52 616.75 9.07 246.66 9.07 262.88 327.91 616.75 342.52 616.75"/><polygon class="cls-17" points="230.01 616.75 9.07 371.54 9.07 387.76 215.39 616.75 230.01 616.75"/><path class="cls-18" d="M45,616.75H68.88L9.07,550.37v33.2L39.17,617C41.12,616.84,43.08,616.75,45,616.75Z"/><polygon class="cls-19" points="117.49 616.75 9.07 496.42 9.07 512.64 102.88 616.75 117.49 616.75"/><polygon class="cls-20" points="442.75 407.31 75.91 0.16 46 0.16 442.75 440.51 442.75 407.31"/></g></g><rect class="cls-21" x="111.52" y="503.62" width="232.01" height="49.02" rx="16.43"/><path class="cls-22" d="M325.61,81.94V96.15h-4V81.94a9.36,9.36,0,0,0,2,.21A9.5,9.5,0,0,0,325.61,81.94Z"/><path class="cls-23" d="M340.61,80V96.15h-4V80a10.2,10.2,0,0,0,2,.2A11,11,0,0,0,340.61,80Z"/><path class="cls-24" d="M355.61,86.15v10h-4v-10l0-.18a10.87,10.87,0,0,0,3.94,0Z"/><path class="cls-25" d="M325.61,81.94a9.5,9.5,0,0,1-2,.21,9.36,9.36,0,0,1-2-.21,10.38,10.38,0,0,1-8-10.27c0-5.78,4.48-29.52,10-29.52,2.4,0,4.6,4.47,6.32,10h0a91.89,91.89,0,0,0-2.36,15.94,12.47,12.47,0,0,0,4.24,9.51A10,10,0,0,1,325.61,81.94Z"/><path class="cls-26" d="M343.61,76.72a8.73,8.73,0,0,0,.24,2.06l-.24.06a10.53,10.53,0,0,1-3,1.12,11,11,0,0,1-2,.19,10.2,10.2,0,0,1-2-.2,10.5,10.5,0,0,1-4.76-2.34,12.47,12.47,0,0,1-4.24-9.51A91.89,91.89,0,0,1,330,52.16c2-8.95,5.14-18,8.64-18,4.11,0,7.69,12.47,9.58,22.61C345.43,63.49,343.61,73.4,343.61,76.72Z"/><path class="cls-27" d="M348.19,56.76c1.56-3.81,3.42-6.61,5.42-6.61,5.52,0,10,21.36,10,26.57a9.6,9.6,0,0,1-8,9.25,10.87,10.87,0,0,1-3.94,0,9.77,9.77,0,0,1-7.79-7.19,8.73,8.73,0,0,1-.24-2.06C343.61,73.4,345.43,63.49,348.19,56.76Z"/><path class="cls-28" d="M323.61,82.15a9.36,9.36,0,0,1-2-.21V96.15h2v-10a2,2,0,0,1,2-2V81.94A9.5,9.5,0,0,1,323.61,82.15Z"/><path class="cls-22" d="M323.61,86.15v10h2v-12A2,2,0,0,0,323.61,86.15Z"/><path class="cls-23" d="M338.61,84.15v12h2v-14A2,2,0,0,0,338.61,84.15Z"/><path class="cls-29" d="M338.61,80.15a10.2,10.2,0,0,1-2-.2v16.2h2v-12a2,2,0,0,1,2-2V80A11,11,0,0,1,338.61,80.15Z"/><path class="cls-23" d="M355.58,86a10.87,10.87,0,0,1-3.94,0l0,.18v10h2v-6a2,2,0,0,1,2-2v-2Z"/><path class="cls-24" d="M353.61,90.15v6h2v-8A2,2,0,0,0,353.61,90.15Z"/><path class="cls-30" d="M348.61,74.15c0-7,2-16,3.14-20.72a4,4,0,0,1,3.06-2.94,2.54,2.54,0,0,0-1.2-.34c-2,0-3.86,2.8-5.42,6.61-2.76,6.73-4.58,16.64-4.58,20a8.73,8.73,0,0,0,.24,2.06A9.77,9.77,0,0,0,351.64,86a10.87,10.87,0,0,0,3.94,0,9.73,9.73,0,0,0,7.88-7.63C361.06,81.27,348.61,83.94,348.61,74.15Z"/><path class="cls-31" d="M348.19,56.76c-.49-2.68-1.11-5.52-1.83-8.24-1.52.87-2.94,3.24-4.17,6.24a64.4,64.4,0,0,0-2.78,8.9,3.91,3.91,0,0,1-7.7-.67c-.06-.88-.1-1.83-.1-2.84,0-8.29,4-18.85,5.94-23.55a4,4,0,0,1,2.18-2.15,2.44,2.44,0,0,0-1.12-.3c-3.5,0-6.62,9.06-8.64,18a91.89,91.89,0,0,0-2.36,15.94,12.47,12.47,0,0,0,4.24,9.51A10.5,10.5,0,0,0,336.61,80a10.2,10.2,0,0,0,2,.2c.28,0,.55,0,.83,0a11.33,11.33,0,0,0,1.17-.15,10.53,10.53,0,0,0,3-1.12l.24-.06a8.73,8.73,0,0,1-.24-2.06C343.61,73.4,345.43,63.49,348.19,56.76Z"/><path class="cls-32" d="M327.61,68.1A91.89,91.89,0,0,1,330,52.16h0a41.38,41.38,0,0,0-2.2-5.77A86.69,86.69,0,0,0,325,56.16a91.89,91.89,0,0,0-2.36,15.94v0a2,2,0,0,1-3.28,1.59,5.51,5.51,0,0,1-1.72-2.57c-.76-7.68,3.18-20.65,5.06-26.27a4,4,0,0,1,2.13-2.36,2.24,2.24,0,0,0-1.19-.37c-5.52,0-10,23.74-10,29.52a10.38,10.38,0,0,0,8,10.27,9.36,9.36,0,0,0,2,.21,9.5,9.5,0,0,0,2-.21,8.54,8.54,0,0,0,1.22-.36,10,10,0,0,0,5-4A12.47,12.47,0,0,1,327.61,68.1Z"/><path class="cls-33" d="M354.5,51.48a2,2,0,0,0-.55,2.78,9.1,9.1,0,0,1,.49.83,2,2,0,0,0,3.68-.36,12.71,12.71,0,0,0-2.41-3.57A2,2,0,0,0,354.5,51.48Z"/><path class="cls-33" d="M357.58,57.23a2,2,0,0,0-1.34,2.5,107.71,107.71,0,0,1,3,14.7,2,2,0,0,0,2,1.72l.29,0a2,2,0,0,0,1.7-2.26c-.29-2-.77-5.13-1.44-8.42a67.53,67.53,0,0,0-2.43-7.9A2,2,0,0,0,357.58,57.23Z"/><path class="cls-30" d="M338.64,40.89a19.24,19.24,0,0,0,1,3.34,40.82,40.82,0,0,0,1.15,4,1.87,1.87,0,0,0,3.5.33,3.94,3.94,0,0,0,.35-1.88,14.5,14.5,0,0,0-.77-4.63,5.35,5.35,0,0,0-1.22-2.15,4.26,4.26,0,0,0-2.81-1.26C338.6,38.77,338.56,40.26,338.64,40.89Z"/><text class="cls-34" transform="translate(368.06 71.83) scale(0.89 1)">x 10K</text><text class="cls-35" transform="translate(166.05 534.67)">G<tspan class="cls-36" x="18.05" y="0">o</tspan><tspan class="cls-37" x="32.64" y="0">l</tspan><tspan class="cls-38" x="39.03" y="0">d </tspan><tspan class="cls-39" x="61.75" y="0">T</tspan><tspan class="cls-40" x="78.03" y="0">r</tspan><tspan class="cls-41" x="89.42" y="0">ee</tspan></text><text class="cls-42" transform="translate(440.82 552.64) rotate(-90)">Nextree</text><text class="cls-42" transform="translate(15.77 158.93) rotate(-90)">Nextree</text><path class="cls-43" d="M98.48,39.17c-7.34-2.61-10-5.82-10-5.82s-7.61,9.1-32.37,9.1V66.34A36.06,36.06,0,0,0,73.48,96.9l9.22,5.71,0-.08,3.79-5.44-9.07-5.87A29.16,29.16,0,0,1,64.17,66.76V48.33c8.28,0,14-1.41,17.78-3,4.74-1.94,6.5-4.15,6.5-4.15s1.76,2.21,6.49,4.15c3.78,1.58,9.51,3,17.78,3V67.39a29.12,29.12,0,0,1-14.36,25.1l-8,4.68,3.74,5.36.18.32L102,98.52a36.13,36.13,0,0,0,18.77-31.39V42.45C110.76,42.45,103.52,41,98.48,39.17Z"/><path class="cls-21" d="M90.41,97.17l-2,1.15-1.92-1.23-9.07-5.87A29.16,29.16,0,0,1,64.17,66.76V48.33c8.28,0,14-1.41,17.78-3l6.5,6.21,6.49-6.21c3.78,1.58,9.51,3,17.78,3V67.39a29.12,29.12,0,0,1-14.36,25.1Z"/><path class="cls-44" d="M88.45,33.35s-7.61,9.1-32.37,9.1V66.34A36.06,36.06,0,0,0,73.48,96.9l9.22,5.71,5.75,3.56,5.88-3.32L102,98.52a36.13,36.13,0,0,0,18.77-31.39V42.45c-10,0-17.29-1.5-22.33-3.28C91.14,36.56,88.45,33.35,88.45,33.35Zm30.34,33.78a34.24,34.24,0,0,1-17.74,29.63l-7.71,4.33h0l-4.84,2.73-14-8.64A33.91,33.91,0,0,1,58.11,66.34V44.45c18.26-.37,27.07-5.71,30.34-8.35a31.55,31.55,0,0,0,9.36,5,67.34,67.34,0,0,0,21,3.37Z"/><path class="cls-45" d="M112.72,46.31c-6.67,0-12.55-1-17-2.84A15.64,15.64,0,0,1,90,39.93a2.06,2.06,0,0,0-1.57-.75,2.13,2.13,0,0,0-1.58.73s-1.6,1.88-5.7,3.56c-4.46,1.86-10.33,2.84-17,2.84a2,2,0,0,0-2,2V66.76A31.06,31.06,0,0,0,76.36,92.92l11,7.1a2,2,0,0,0,1.1.32,2,2,0,0,0,1-.28l9.92-5.82a31.3,31.3,0,0,0,15.36-26.85V48.33A2,2,0,0,0,112.72,46.31Zm0,21.08a29.12,29.12,0,0,1-14.36,25.1l-8,4.68-2,1.15-1.92-1.23-9.07-5.87A29.16,29.16,0,0,1,64.17,66.76V48.33c8.28,0,14-1.41,17.78-3,4.74-1.94,6.5-4.15,6.5-4.15s1.76,2.21,6.49,4.15c3.78,1.58,9.51,3,17.78,3Z"/><polygon class="cls-46" points="94.15 102.53 94.33 102.85 88.45 106.17 82.7 102.61 82.74 102.53 86.53 97.08 88.45 98.32 90.41 97.17 94.15 102.53"/><polygon class="cls-47" points="93.35 101.38 88.45 104.14 83.67 101.19 82.74 102.53 82.7 102.61 88.45 106.17 94.33 102.85 94.15 102.53 93.35 101.38"/><path class="cls-48" d="M112.72,48.33c-8.27,0-14-1.41-17.78-3l-6.49,6.21L82,45.34a42.56,42.56,0,0,1-13.7,2.86,38.38,38.38,0,0,0,37.8,37.71,29.11,29.11,0,0,0,6.67-18.52Z"/><path class="cls-49" d="M88.45,41.19S86.69,43.4,82,45.34c-3.78,1.58-9.5,3-17.78,3V66.76A29.16,29.16,0,0,0,77.46,91.22l9.07,5.87,1.92,1.23,2-1.15,8-4.68a29.12,29.12,0,0,0,14.36-25.1V48.33c-8.27,0-14-1.41-17.78-3C90.21,43.4,88.45,41.19,88.45,41.19Zm22.25,26.2A27.2,27.2,0,0,1,97.33,90.75l-7.94,4.67-.89.52-9.94-6.42A27,27,0,0,1,66.2,66.76V50.33a46.46,46.46,0,0,0,16.52-3.12A23.53,23.53,0,0,0,88.45,44a23.32,23.32,0,0,0,5.71,3.25,46.62,46.62,0,0,0,16.54,3.12Z"/><path class="cls-46" d="M94.94,45.34l-6.49,6.21L82,45.34c4.74-1.94,6.5-4.15,6.5-4.15S90.21,43.4,94.94,45.34Z"/><path class="cls-21" d="M88.45,47.51,84.76,44A24,24,0,0,1,82,45.34l6.5,6.21,6.49-6.21A24.78,24.78,0,0,1,92.13,44Z"/><ellipse class="cls-50" cx="103.99" cy="55.01" rx="1.67" ry="2.32" transform="translate(-8.43 89.68) rotate(-45.02)"/><ellipse class="cls-50" cx="103.99" cy="63.07" rx="3.32" ry="4.62" transform="translate(-14.13 92.05) rotate(-45.02)"/><path class="cls-49" d="M68.22,92l-.49.62-5.58,7.47-.1.14A46.58,46.58,0,0,1,54.55,94l-7.41,7.53-5.22-3.48L48,92V79.87L65.1,90.15Z"/><path class="cls-49" d="M135,98.08l-5.22,3.48L122.35,94a47,47,0,0,1-7.5,6.21l-.1-.14-5.22-7L108.68,92l4-2.43,16.19-9.71V92Z"/><path class="cls-47" d="M47.14,101.56,54.55,94a46.58,46.58,0,0,0,7.5,6.21A47.53,47.53,0,0,0,122.35,94l7.4,7.53,5.22,5.28a65.13,65.13,0,0,1-93,0Z"/><path class="cls-49" d="M129.71,101.51a65.06,65.06,0,0,1-82.53,0l0,0-5.22,5.28a65.13,65.13,0,0,0,93.05,0l-5.22-5.28Z"/><path class="cls-51" d="M129.75,101.56,135,98.08,128.91,92l-5.47,3.12Q126.59,98.34,129.75,101.56Z"/><path class="cls-51" d="M41.92,98.08l5.22,3.48,6.32-6.43L48,92Z"/><path class="cls-50" d="M88.45,106.17l5.88-3.32L102,98.52a38.15,38.15,0,0,0,6.64-4.73l.85-.65,5.22,7,.1.14a47.36,47.36,0,0,1-52.8,0l.1-.14,5.58-7.47.49.37a38.52,38.52,0,0,0,5.26,3.9l9.22,5.71Z"/><path d="M61.55,81a33.12,33.12,0,0,1-3.44-14.66V44.45c18.26-.37,27.07-5.71,30.34-8.35,2.73,2.2,9.32,6.29,22,7.79l.48-4C95.36,38,90,32.09,90,32.05a2.09,2.09,0,0,0-3.1,0c-.07.08-7.28,8.38-30.82,8.38a2,2,0,0,0-2,2V66.33a37.22,37.22,0,0,0,3.86,16.45Z"/><path d="M118.79,67.14a33.15,33.15,0,0,1-.6,6.28l4,.77a37.1,37.1,0,0,0,.68-7V42.45a2,2,0,0,0-2-2c-2,0-4-.07-5.93-.19l-.27,4c1.36.09,2.76.15,4.18.18Z"/><path d="M115.71,81l3.67,1.7a36.32,36.32,0,0,0,1.67-4.27l-3.85-1.24A32,32,0,0,1,115.71,81Z"/><path d="M136.41,105.42l-3.49-3.55,3.18-2.11a2,2,0,0,0,.89-1.48,2,2,0,0,0-.59-1.63l-5.47-5.48V79.87a2,2,0,0,0-3.07-1.73L107.64,90.27a2,2,0,0,0-1,1.35,2,2,0,0,0,.37,1.6l4.84,6.46a45,45,0,0,1-19.11,6.37L103,100.28a40.72,40.72,0,0,0,4-2.59l-2.39-3.27a35.59,35.59,0,0,1-3.63,2.34L95,100.17,93.33,97.8l6.06-3.57a31.28,31.28,0,0,0,15.36-26.85v-19a2,2,0,0,0-2-2C95.59,46.31,90.07,40,90,39.92a2.06,2.06,0,0,0-1.57-.75,1.92,1.92,0,0,0-1.58.74c0,.06-5.57,6.4-22.71,6.4a2,2,0,0,0-2,2v5.24H66.2V50.32a48.09,48.09,0,0,0,15.28-2.64L87.05,53a2,2,0,0,0,2.8,0l5.57-5.33a48.09,48.09,0,0,0,15.28,2.64V67.38A27.23,27.23,0,0,1,97.34,90.75L88.5,96l-9.93-6.43A27,27,0,0,1,66.2,66.77V57.62H62.15v9.15A31,31,0,0,0,76.37,92.92l7.3,4.73-1.55,2.22-7.58-4.69c-.39-.24-.77-.48-1.14-.73L71.14,97.8c.42.28.84.56,1.27.82l12,7.44A44.81,44.81,0,0,1,65,99.68l4.85-6.46a2,2,0,0,0-.58-3L49,78.14A2,2,0,0,0,46,79.87v11.3l-5.48,5.48a2,2,0,0,0-.58,1.63,2,2,0,0,0,.89,1.48L44,101.87l-3.49,3.55a2,2,0,0,0,0,2.84,67.14,67.14,0,0,0,95.93,0A2,2,0,0,0,136.41,105.42Zm-48-56.67-3-2.86a20.74,20.74,0,0,0,3-2,21,21,0,0,0,3,2Zm23.19,43.84,15.24-9.15V92a2.05,2.05,0,0,0,.59,1.43l4.33,4.32L130,98.94l-6.23-6.33a2.1,2.1,0,0,0-2.89,0,45.78,45.78,0,0,1-5.64,4.82ZM87.07,99.85l.28.17a2,2,0,0,0,2.12,0l.36-.21,1.61,2.3-2.94,1.66L85.57,102Zm-42-2.09,4.32-4.32A2,2,0,0,0,50,92V83.44l15.25,9.15-3.63,4.84A45.87,45.87,0,0,1,56,92.61a2,2,0,0,0-2.88,0l-6.24,6.33Zm43.35,26.61a62.85,62.85,0,0,1-43.67-17.55l9.79-9.94a49.45,49.45,0,0,0,67.76,0l9.78,9.94A62.83,62.83,0,0,1,88.45,124.37Z"/><path d="M81.79,111.28a.28.28,0,0,1,.24-.09.28.28,0,0,1,.21.14.55.55,0,0,1,.05.37c-.44,2.64-.87,5.29-1.31,7.93a2.09,2.09,0,0,1-1.06,1.63,2.51,2.51,0,0,1-2.45-.23,4.58,4.58,0,0,1-1.56-1.33,3.29,3.29,0,0,1-.66-1.63.38.38,0,0,1,.07-.34.24.24,0,0,1,.24-.11.32.32,0,0,1,.27.1A.47.47,0,0,1,76,118a2.27,2.27,0,0,0,.44,1.15,3.35,3.35,0,0,0,1.24,1,2,2,0,0,0,1.76.2,1.33,1.33,0,0,0,.76-1l.18-.94a1.87,1.87,0,0,1-1,.65,2.07,2.07,0,0,1-1.43-.17,3.22,3.22,0,0,1-1.76-2.26,4.8,4.8,0,0,1,.17-2.79,5.59,5.59,0,0,1,1.39-2.25,2.57,2.57,0,0,1,2.18-.85,1.53,1.53,0,0,1,1,.48,2.91,2.91,0,0,1,.55,1.2l.16-.84A.57.57,0,0,1,81.79,111.28Zm-3.67,1a4.78,4.78,0,0,0-1.05,1.89,4.43,4.43,0,0,0-.17,2.28,2.27,2.27,0,0,0,1.28,1.67,1.43,1.43,0,0,0,1.79-.41,4.63,4.63,0,0,0,1-2.28,6.09,6.09,0,0,0,0-2.49c-.2-.8-.58-1.23-1.16-1.33A1.78,1.78,0,0,0,78.12,112.26Z"/><path d="M89,113a8.46,8.46,0,0,1,.76,3.49,7,7,0,0,1-.66,3.52,2.46,2.46,0,0,1-2.43,1.53,2.68,2.68,0,0,1-2.32-1.84,6.91,6.91,0,0,1-.39-3.5,8.13,8.13,0,0,1,1-3.33,2.38,2.38,0,0,1,2.08-1.45C87.9,111.43,88.53,112,89,113Zm-3.59.57a7.11,7.11,0,0,0-.71,2.73,6.12,6.12,0,0,0,.3,2.82,2,2,0,0,0,1.7,1.43,1.81,1.81,0,0,0,1.78-1.21,6.07,6.07,0,0,0,.53-2.83,7,7,0,0,0-.54-2.83c-.36-.84-.84-1.27-1.47-1.29S85.88,112.77,85.45,113.57Z"/><path d="M91.57,108a.23.23,0,0,1,.2-.12A.26.26,0,0,1,92,108a.69.69,0,0,1,.14.39q.64,6.1,1.28,12.2a.56.56,0,0,1-.09.41.41.41,0,0,1-.26.19.34.34,0,0,1-.3-.09.55.55,0,0,1-.15-.38l-1.08-12.34A.72.72,0,0,1,91.57,108Z"/><path d="M101.59,117.08a.61.61,0,0,1,0,.4.49.49,0,0,1-.21.24.32.32,0,0,1-.27,0,.31.31,0,0,1-.2-.24l-.18-.57a3.28,3.28,0,0,1-.5,1.21,3.13,3.13,0,0,1-1.2,1.06,1.92,1.92,0,0,1-2.47-.49,5.69,5.69,0,0,1-1.23-3,7.77,7.77,0,0,1,.08-3.3c.29-1,.8-1.53,1.58-1.65a2,2,0,0,1,1.09.15,3.21,3.21,0,0,1,1,.77L98,108.27a.5.5,0,0,1,0-.32.19.19,0,0,1,.18-.1.42.42,0,0,1,.23.1.7.7,0,0,1,.2.32Q100.12,112.68,101.59,117.08ZM96,113a6.79,6.79,0,0,0,0,2.62,5.1,5.1,0,0,0,1,2.35,1.43,1.43,0,0,0,1.82.45,2.31,2.31,0,0,0,1.26-1.74,4.65,4.65,0,0,0-.18-2.34,5,5,0,0,0-1.09-2,1.76,1.76,0,0,0-1.63-.7C96.58,111.72,96.2,112.16,96,113Z"/><path class="cls-24" d="M214.88,386.8l-4.07,32.52-14.22,11.17a9.89,9.89,0,0,1-4.31,1h-.2a9.7,9.7,0,0,1-3.62-18.7l9.1-3.66a8.11,8.11,0,0,0,5.13-7.52V386.8l.12-1.18c3.9.45,7.92.81,12.07,1Z"/><path class="cls-24" d="M271.78,421.79a9.72,9.72,0,0,1-9.71,9.72h-.2a9.86,9.86,0,0,1-4.31-1l-14.23-11.17-4.06-32.52v-.2c4.14-.17,8.17-.53,12.07-1l.12,1.18v14.83a8.11,8.11,0,0,0,5.12,7.52l9.11,3.66A9.67,9.67,0,0,1,271.78,421.79Z"/><path class="cls-52" d="M214.88,386.8v-.2c2.64.12,5.36.2,8.13.2h8.13c2.76,0,5.48-.08,8.13-.2v.2l4.06,32.52,8.66,9.83a7.94,7.94,0,0,1,3.53,6.59v0a7.9,7.9,0,0,1-7.92,7.92h-5a8,8,0,0,1-5.61-2.31l-9.88-9.88-9.87,9.88a8,8,0,0,1-5.61,2.31h-5a7.91,7.91,0,0,1-7.93-7.92v0a7.93,7.93,0,0,1,3.54-6.59l8.65-9.83Z"/><path class="cls-53" d="M304.62,240.23l-.32.25c0,20.2-34.55,36.58-77.23,36.58s-77.22-16.38-77.22-36.58l-.33-.25c18.5-25.81,44.22-48.53,77.55-48.53S286.13,214.42,304.62,240.23Z"/><path class="cls-54" d="M332.63,291.4c-2.4,24.76-46.22,44.84-101.49,46.62H223c-55.28-1.78-99.09-21.86-101.49-46.62,6-14.3,15.28-33.45,28-51.17l.33.25c0,20.2,34.55,36.58,77.22,36.58s77.23-16.38,77.23-36.58l.32-.25C317.35,258,326.65,277.1,332.63,291.4Z"/><path class="cls-55" d="M340.88,327.54v15a8.12,8.12,0,0,1-2.76,6.09c-9.07,7.85-39.63,31.38-86.78,36.95-3.9.45-7.93.81-12.07,1-2.65.12-5.37.2-8.13.2H223c-2.77,0-5.49-.08-8.13-.2-4.15-.17-8.17-.53-12.07-1-47.15-5.57-77.72-29.1-86.78-36.95a8.09,8.09,0,0,1-2.76-6.09v-15a80.47,80.47,0,0,1,5.52-29.43c.82-2.07,1.71-4.31,2.73-6.71,2.4,24.76,46.21,44.84,101.49,46.62h8.13c55.27-1.78,99.09-21.86,101.49-46.62,1,2.4,1.91,4.64,2.72,6.71A80.28,80.28,0,0,1,340.88,327.54Z"/><path class="cls-56" d="M235.2,394.93h5.08l-1-8.13H214.88l-4.07,32.52-8.65,9.83a7.93,7.93,0,0,0-3.54,6.59v0a7.91,7.91,0,0,0,7.93,7.92h5a8,8,0,0,0,5.61-2.31l9.87-9.88V403.06A8.13,8.13,0,0,1,235.2,394.93Z"/><path class="cls-57" d="M271.72,421.36a4,4,0,0,1-5.82,3.14l-14-7a8.13,8.13,0,0,1-4.49-7.27v-7.17a8.08,8.08,0,0,1,4.06-7V386.8l-.12-1.18c-3.67.42-7.45.75-11.32.93l-.75.25,1,8.13,3.05,24.39,14.23,11.17a9.86,9.86,0,0,0,4.31,1h.2a9.72,9.72,0,0,0,9.71-9.72C271.78,421.65,271.72,421.51,271.72,421.36Z"/><path class="cls-57" d="M214.13,386.55c-3.88-.18-7.66-.51-11.32-.93l-.12,1.18v9.26a8.08,8.08,0,0,1,4.06,7v7.17a8.13,8.13,0,0,1-4.49,7.27l-14,7a4,4,0,0,1-5.82-3.14c0,.15-.07.29-.07.43a9.73,9.73,0,0,0,9.72,9.72h.2a9.89,9.89,0,0,0,4.31-1l14.22-11.17,4.07-32.52Z"/><path class="cls-58" d="M162.1,260.2c21.63-42.95,57.21-66.16,60.61-68.31-31.21,1.88-55.51,23.67-73.19,48.34l.33.25C149.85,247.75,154.38,254.51,162.1,260.2Z"/><path class="cls-59" d="M157.49,325.49a58.23,58.23,0,0,1-3.42-46.44,157.71,157.71,0,0,1,8-18.85c-7.72-5.69-12.25-12.45-12.25-19.72l-.33-.25c-12.72,17.72-22,36.87-28,51.17C122.82,304.89,136.44,317,157.49,325.49Z"/><path class="cls-60" d="M243.33,358.35c-18.42.87-33.44-.33-45.66-2.76a57.89,57.89,0,0,1-40.18-30.1c-21.05-8.51-34.67-20.6-36-34.09-1,2.4-1.91,4.64-2.73,6.71a80.47,80.47,0,0,0-5.52,29.43v15a8.09,8.09,0,0,0,2.76,6.09c9.06,7.85,39.63,31.38,86.78,36.95,3.9.45,7.92.81,12.07,1,2.64.12,5.36.2,8.13.2h8.13c2.76,0,5.48-.08,8.13-.2,4.14-.17,8.17-.53,12.07-1,47.15-5.57,77.71-29.1,86.78-36.95a8.12,8.12,0,0,0,2.76-6.09v-15a81.06,81.06,0,0,0-2-17.43C328.63,327.13,302.71,355.52,243.33,358.35Z"/><path class="cls-61" d="M227.46,200.84a12.2,12.2,0,0,0,8.75,14.86,50.18,50.18,0,0,1,6.57,2.2,12.34,12.34,0,0,0,4.62.91,12.16,12.16,0,0,0,8-21.31,73.57,73.57,0,0,0-19.75-5.22A12.17,12.17,0,0,0,227.46,200.84Z"/><path class="cls-61" d="M304.3,240.48l.17-.13A171.9,171.9,0,0,0,279.81,213a12.19,12.19,0,0,0-16,18.37c9.85,8.61,18.57,19.39,26,30.39C298.89,255.76,304.3,248.43,304.3,240.48Z"/><path class="cls-62" d="M304.3,240.48c0,8-5.41,15.28-14.5,21.28a278.73,278.73,0,0,1,18.91,32.86,12.15,12.15,0,0,0,23.08-5.16,272.33,272.33,0,0,0-22-41.67c-1.7-2.49-3.49-5-5.31-7.44Z"/></svg>