<svg id="레이어_1" data-name="레이어 1" xmlns="http://www.w3.org/2000/svg" xmlns:xlink="http://www.w3.org/1999/xlink" viewBox="0 0 451.83 616.13"><defs><style>.cls-1{fill:url(#무제_그라디언트_87);}.cls-2{fill:url(#무제_그라디언트_26);}.cls-3{clip-path:url(#clip-path);}.cls-4{fill:url(#무제_그라디언트_78);}.cls-5{fill:url(#무제_그라디언트_78-2);}.cls-6{fill:url(#무제_그라디언트_78-3);}.cls-7{fill:url(#무제_그라디언트_78-4);}.cls-8{fill:url(#무제_그라디언트_78-5);}.cls-9{fill:url(#무제_그라디언트_78-6);}.cls-10{fill:url(#무제_그라디언트_78-7);}.cls-11{fill:url(#무제_그라디언트_78-8);}.cls-12{fill:url(#무제_그라디언트_78-9);}.cls-13{fill:url(#무제_그라디언트_78-10);}.cls-14{fill:url(#무제_그라디언트_78-11);}.cls-15{fill:url(#무제_그라디언트_78-12);}.cls-16{fill:url(#무제_그라디언트_78-13);}.cls-17{fill:url(#무제_그라디언트_78-14);}.cls-18{fill:url(#무제_그라디언트_78-15);}.cls-19{fill:url(#무제_그라디언트_78-16);}.cls-20{fill:url(#무제_그라디언트_78-17);}.cls-21{fill:url(#무제_그라디언트_28);}.cls-22{fill:#714226;}.cls-23{fill:#7c4026;}.cls-24{fill:#9a6948;}.cls-25{fill:#004a2d;}.cls-26{fill:#009e60;}.cls-27{fill:#00e088;}.cls-28{fill:#422716;}.cls-29{fill:#59341e;}.cls-30{fill:#00c477;}.cls-31{fill:#007145;}.cls-32{fill:#003b24;}.cls-33{fill:#00ff9b;}.cls-34,.cls-54{font-size:19px;}.cls-34,.cls-35,.cls-52,.cls-54{font-family:Cafe24Ssurround, Cafe24 Ssurround;}.cls-35{font-size:25.42px;}.cls-35,.cls-54{fill:#fff;}.cls-36{letter-spacing:-0.03em;}.cls-37{letter-spacing:-0.06em;}.cls-38{letter-spacing:0em;}.cls-39{fill:#008f57;}.cls-40{fill:#af7a58;}.cls-41{fill:#a56645;}.cls-42{fill:#6f3529;}.cls-43{fill:#5d241d;}.cls-44{fill:#00613b;}.cls-45{fill:#f7f7ff;}.cls-46{fill:#e1e7f7;}.cls-47{fill:#ffdf64;}.cls-48{fill:#ffb844;}.cls-49{fill:#727272;}.cls-50{fill:#fe792c;}.cls-51{fill:#fb9881;}.cls-52{font-size:13.49px;}.cls-53{letter-spacing:-0.03em;}.cls-55{letter-spacing:-0.03em;}</style><linearGradient id="무제_그라디언트_87" x1="22.52" y1="308.06" x2="429.31" y2="308.06" gradientTransform="translate(0 -32.83) scale(1 1.11)" gradientUnits="userSpaceOnUse"><stop offset="0" stop-color="#fff"/><stop offset="1" stop-color="#fff" stop-opacity="0.5"/></linearGradient><linearGradient id="무제_그라디언트_26" x1="210.23" y1="251.68" x2="253.13" y2="405.9" gradientUnits="userSpaceOnUse"><stop offset="0" stop-color="#15ff78"/><stop offset="0.12" stop-color="#16fe7c" stop-opacity="0.98"/><stop offset="0.26" stop-color="#1bfa88" stop-opacity="0.93"/><stop offset="0.41" stop-color="#22f59d" stop-opacity="0.84"/><stop offset="0.58" stop-color="#2bedb9" stop-opacity="0.72"/><stop offset="0.75" stop-color="#37e3dd" stop-opacity="0.57"/><stop offset="0.82" stop-color="#3ddeed" stop-opacity="0.5"/></linearGradient><clipPath id="clip-path"><rect class="cls-1" x="22.52" y="15.62" width="406.79" height="586.92" rx="32.28"/></clipPath><linearGradient id="무제_그라디언트_78" x1="10.14" y1="388.03" x2="407.5" y2="388.03" xlink:href="#무제_그라디언트_87"/><linearGradient id="무제_그라디언트_78-2" x1="10.14" y1="308.63" x2="443.82" y2="308.63" xlink:href="#무제_그라디언트_87"/><linearGradient id="무제_그라디언트_78-3" x1="10.14" y1="444.29" x2="294.98" y2="444.29" xlink:href="#무제_그라디언트_87"/><linearGradient id="무제_그라디언트_78-4" x1="10.14" y1="500.54" x2="182.46" y2="500.54" xlink:href="#무제_그라디언트_87"/><linearGradient id="무제_그라디언트_78-5" x1="272.09" y1="117.02" x2="443.82" y2="117.02" xlink:href="#무제_그라디언트_87"/><linearGradient id="무제_그라디언트_78-6" x1="159.58" y1="173.27" x2="443.82" y2="173.27" xlink:href="#무제_그라디언트_87"/><linearGradient id="무제_그라디언트_78-7" x1="223.48" y1="141.32" x2="443.82" y2="141.32" xlink:href="#무제_그라디언트_87"/><linearGradient id="무제_그라디언트_78-8" x1="384.61" y1="60.76" x2="443.82" y2="60.76" xlink:href="#무제_그라디언트_87"/><linearGradient id="무제_그라디언트_78-9" x1="336" y1="85.06" x2="443.82" y2="85.06" xlink:href="#무제_그라디언트_87"/><linearGradient id="무제_그라디언트_78-10" x1="110.97" y1="197.58" x2="443.82" y2="197.58" xlink:href="#무제_그라디언트_87"/><linearGradient id="무제_그라디언트_78-11" x1="10.14" y1="253.84" x2="443.82" y2="253.84" xlink:href="#무제_그라디언트_87"/><linearGradient id="무제_그라디언트_78-12" x1="10.14" y1="363.72" x2="443.82" y2="363.72" xlink:href="#무제_그라디언트_87"/><linearGradient id="무제_그라디언트_78-13" x1="10.14" y1="419.98" x2="343.59" y2="419.98" xlink:href="#무제_그라디언트_87"/><linearGradient id="무제_그라디언트_78-14" x1="10.14" y1="476.24" x2="231.07" y2="476.24" xlink:href="#무제_그라디언트_87"/><linearGradient id="무제_그라디언트_78-15" x1="10.14" y1="556.9" x2="69.95" y2="556.9" xlink:href="#무제_그라디언트_87"/><linearGradient id="무제_그라디언트_78-16" x1="10.14" y1="532.5" x2="118.56" y2="532.5" xlink:href="#무제_그라디언트_87"/><linearGradient id="무제_그라디언트_78-17" x1="47.06" y1="229.53" x2="443.82" y2="229.53" xlink:href="#무제_그라디언트_87"/><linearGradient id="무제_그라디언트_28" x1="110.7" y1="511.67" x2="339.56" y2="549.55" gradientUnits="userSpaceOnUse"><stop offset="0" stop-color="#dcdcdc"/><stop offset="0.92" stop-color="#292929"/></linearGradient></defs><rect class="cls-2" x="6.42" width="438.99" height="616.13" rx="24.51"/><g id="line"><rect class="cls-1" x="22.52" y="15.62" width="406.79" height="586.92" rx="32.28"/><g class="cls-3"><polygon class="cls-4" points="407.5 618.34 10.14 177.32 10.14 210.52 377.58 618.34 407.5 618.34"/><polygon class="cls-5" points="10.14 52.44 10.14 85.64 443.82 566.97 443.82 533.77 10.14 52.44"/><polygon class="cls-6" points="294.98 618.34 10.14 302.2 10.14 335.4 265.07 618.34 294.98 618.34"/><polygon class="cls-7" points="182.46 618.34 10.14 427.07 10.14 460.28 152.55 618.34 182.46 618.34"/><polygon class="cls-8" points="443.82 159.14 302.01 1.75 272.09 1.75 443.82 192.34 443.82 159.14"/><polygon class="cls-9" points="443.82 284.01 189.49 1.75 159.58 1.75 443.82 317.22 443.82 284.01"/><polygon class="cls-10" points="443.82 230.07 238.1 1.75 223.49 1.75 443.82 246.29 443.82 230.07"/><polygon class="cls-11" points="443.82 34.26 414.52 1.75 384.61 1.75 443.82 67.46 443.82 34.26"/><polygon class="cls-12" points="443.82 105.19 350.62 1.75 336 1.75 443.82 121.41 443.82 105.19"/><polygon class="cls-13" points="443.82 354.94 125.58 1.75 110.97 1.75 443.82 371.17 443.82 354.94"/><polygon class="cls-14" points="13.07 1.75 10.14 1.75 10.14 14.71 443.82 496.04 443.82 479.82 13.07 1.75"/><polygon class="cls-15" points="443.82 618.34 443.82 604.7 10.14 123.37 10.14 139.59 441.49 618.34 443.82 618.34"/><polygon class="cls-16" points="343.59 618.34 10.14 248.25 10.14 264.47 328.98 618.34 343.59 618.34"/><polygon class="cls-17" points="231.07 618.34 10.14 373.13 10.14 389.35 216.46 618.34 231.07 618.34"/><path class="cls-18" d="M46.1,618.34H70L10.14,552v33.2l30.09,33.41C42.18,618.43,44.14,618.34,46.1,618.34Z"/><polygon class="cls-19" points="118.56 618.34 10.14 498 10.14 514.22 103.94 618.34 118.56 618.34"/><polygon class="cls-20" points="443.82 408.89 76.97 1.75 47.06 1.75 443.82 442.1 443.82 408.89"/></g></g><rect class="cls-21" x="107.6" y="505.85" width="232.01" height="49.02" rx="16.43"/><path class="cls-22" d="M325.61,81.94V96.15h-4V81.94a9.36,9.36,0,0,0,2,.21A9.5,9.5,0,0,0,325.61,81.94Z"/><path class="cls-23" d="M340.61,80V96.15h-4V80a10.2,10.2,0,0,0,2,.2A11,11,0,0,0,340.61,80Z"/><path class="cls-24" d="M355.61,86.15v10h-4v-10l0-.18a10.87,10.87,0,0,0,3.94,0Z"/><path class="cls-25" d="M325.61,81.94a9.5,9.5,0,0,1-2,.21,9.36,9.36,0,0,1-2-.21,10.38,10.38,0,0,1-8-10.27c0-5.78,4.48-29.52,10-29.52,2.4,0,4.6,4.47,6.32,10h0a91.89,91.89,0,0,0-2.36,15.94,12.47,12.47,0,0,0,4.24,9.51A10,10,0,0,1,325.61,81.94Z"/><path class="cls-26" d="M343.61,76.72a8.73,8.73,0,0,0,.24,2.06l-.24.06a10.53,10.53,0,0,1-3,1.12,11,11,0,0,1-2,.19,10.2,10.2,0,0,1-2-.2,10.5,10.5,0,0,1-4.76-2.34,12.47,12.47,0,0,1-4.24-9.51A91.89,91.89,0,0,1,330,52.16c2-8.95,5.14-18,8.64-18,4.11,0,7.69,12.47,9.58,22.61C345.43,63.49,343.61,73.4,343.61,76.72Z"/><path class="cls-27" d="M348.19,56.76c1.56-3.81,3.42-6.61,5.42-6.61,5.52,0,10,21.36,10,26.57a9.6,9.6,0,0,1-8,9.25,10.87,10.87,0,0,1-3.94,0,9.77,9.77,0,0,1-7.79-7.19,8.73,8.73,0,0,1-.24-2.06C343.61,73.4,345.43,63.49,348.19,56.76Z"/><path class="cls-28" d="M323.61,82.15a9.36,9.36,0,0,1-2-.21V96.15h2v-10a2,2,0,0,1,2-2V81.94A9.5,9.5,0,0,1,323.61,82.15Z"/><path class="cls-22" d="M323.61,86.15v10h2v-12A2,2,0,0,0,323.61,86.15Z"/><path class="cls-23" d="M338.61,84.15v12h2v-14A2,2,0,0,0,338.61,84.15Z"/><path class="cls-29" d="M338.61,80.15a10.2,10.2,0,0,1-2-.2v16.2h2v-12a2,2,0,0,1,2-2V80A11,11,0,0,1,338.61,80.15Z"/><path class="cls-23" d="M355.58,86a10.87,10.87,0,0,1-3.94,0l0,.18v10h2v-6a2,2,0,0,1,2-2v-2Z"/><path class="cls-24" d="M353.61,90.15v6h2v-8A2,2,0,0,0,353.61,90.15Z"/><path class="cls-30" d="M348.61,74.15c0-7,2-16,3.14-20.72a4,4,0,0,1,3.06-2.94,2.54,2.54,0,0,0-1.2-.34c-2,0-3.86,2.8-5.42,6.61-2.76,6.73-4.58,16.64-4.58,20a8.73,8.73,0,0,0,.24,2.06A9.77,9.77,0,0,0,351.64,86a10.87,10.87,0,0,0,3.94,0,9.73,9.73,0,0,0,7.88-7.63C361.06,81.27,348.61,83.94,348.61,74.15Z"/><path class="cls-31" d="M348.19,56.76c-.49-2.68-1.11-5.52-1.83-8.24-1.52.87-2.94,3.24-4.17,6.24a64.4,64.4,0,0,0-2.78,8.9,3.91,3.91,0,0,1-7.7-.67c-.06-.88-.1-1.83-.1-2.84,0-8.29,4-18.85,5.94-23.55a4,4,0,0,1,2.18-2.15,2.44,2.44,0,0,0-1.12-.3c-3.5,0-6.62,9.06-8.64,18a91.89,91.89,0,0,0-2.36,15.94,12.47,12.47,0,0,0,4.24,9.51A10.5,10.5,0,0,0,336.61,80a10.2,10.2,0,0,0,2,.2c.28,0,.55,0,.83,0a11.33,11.33,0,0,0,1.17-.15,10.53,10.53,0,0,0,3-1.12l.24-.06a8.73,8.73,0,0,1-.24-2.06C343.61,73.4,345.43,63.49,348.19,56.76Z"/><path class="cls-32" d="M327.61,68.1A91.89,91.89,0,0,1,330,52.16h0a41.38,41.38,0,0,0-2.2-5.77A86.69,86.69,0,0,0,325,56.16a91.89,91.89,0,0,0-2.36,15.94v0a2,2,0,0,1-3.28,1.59,5.51,5.51,0,0,1-1.72-2.57c-.76-7.68,3.18-20.65,5.06-26.27a4,4,0,0,1,2.13-2.36,2.24,2.24,0,0,0-1.19-.37c-5.52,0-10,23.74-10,29.52a10.38,10.38,0,0,0,8,10.27,9.36,9.36,0,0,0,2,.21,9.5,9.5,0,0,0,2-.21,8.54,8.54,0,0,0,1.22-.36,10,10,0,0,0,5-4A12.47,12.47,0,0,1,327.61,68.1Z"/><path class="cls-33" d="M354.5,51.48a2,2,0,0,0-.55,2.78,9.1,9.1,0,0,1,.49.83,2,2,0,0,0,3.68-.36,12.71,12.71,0,0,0-2.41-3.57A2,2,0,0,0,354.5,51.48Z"/><path class="cls-33" d="M357.58,57.23a2,2,0,0,0-1.34,2.5,107.71,107.71,0,0,1,3,14.7,2,2,0,0,0,2,1.72l.29,0a2,2,0,0,0,1.7-2.26c-.29-2-.77-5.13-1.44-8.42a67.53,67.53,0,0,0-2.43-7.9A2,2,0,0,0,357.58,57.23Z"/><path class="cls-30" d="M338.64,40.89a19.24,19.24,0,0,0,1,3.34,40.82,40.82,0,0,0,1.15,4,1.87,1.87,0,0,0,3.5.33,3.94,3.94,0,0,0,.35-1.88,14.5,14.5,0,0,0-.77-4.63,5.35,5.35,0,0,0-1.22-2.15,4.26,4.26,0,0,0-2.81-1.26C338.6,38.77,338.56,40.26,338.64,40.89Z"/><text class="cls-34" transform="translate(370.87 72.33) scale(0.89 1)">x 10</text><text class="cls-35" transform="translate(166.16 536.05)">I<tspan class="cls-36" x="8.29" y="0">r</tspan><tspan x="20.08" y="0">on </tspan><tspan class="cls-37" x="61.42" y="0">T</tspan><tspan class="cls-36" x="76.81" y="0">r</tspan><tspan class="cls-38" x="88.6" y="0">ee</tspan></text><path class="cls-39" d="M307.42,238.67a23.77,23.77,0,0,1-2,9.55,32,32,0,0,1,11.31,39.23,39.94,39.94,0,1,1-68.45,35.08c-.28,0-.52,0-.8,0a23.69,23.69,0,0,1-12-3.27c-.32-.16-.6-.32-.92-.52a31.43,31.43,0,0,1-15.07,3.79,32.38,32.38,0,0,1-5.59-.52,23.94,23.94,0,0,1-14.38,31.13,18.38,18.38,0,0,1-3.52,1,24,24,0,0,1-28.45-23.58v-.32a31.44,31.44,0,0,1-19.94,4,5.33,5.33,0,0,1-1.12-.12,31.95,31.95,0,0,1-14.42-56.86,7.88,7.88,0,0,0,1.08-11.3,24,24,0,0,1,13.38-38.8,25.56,25.56,0,0,1,4.84-.52,8.19,8.19,0,0,0,8.19-8.23,22.84,22.84,0,0,1,.56-4.88,24,24,0,0,1,18.3-18.3,22.82,22.82,0,0,1,4.87-.56,8.19,8.19,0,0,0,8.23-8v-.2a25.55,25.55,0,0,1,.52-4.83A24,24,0,0,1,237,176.1c1.76,3.55,6,4.91,9.87,3.83a30.86,30.86,0,0,1,8.63-1.2,32,32,0,0,1,32,32,30.8,30.8,0,0,1-.32,4.31A23.93,23.93,0,0,1,307.42,238.67Z"/><path class="cls-40" d="M251.48,402.64v0a7.78,7.78,0,0,1-7.79,7.8h-5a7.82,7.82,0,0,1-5.51-2.28l-9.71-9.71-9.71,9.71a7.84,7.84,0,0,1-5.51,2.28h-5a7.78,7.78,0,0,1-7.79-7.8v0a7.81,7.81,0,0,1,3.48-6.47l12.5-9.67V343.83a23.84,23.84,0,0,0,2.4-21.78,32.38,32.38,0,0,0,5.59.52,31.43,31.43,0,0,0,15.07-3.79c.32.2.6.36.92.52v67.2l12.5,9.67A7.81,7.81,0,0,1,251.48,402.64Z"/><path class="cls-25" d="M248.28,322.53a40,40,0,0,0,31.33,31.21l-.16.8s-4,8-32,8v-40C247.76,322.57,248,322.53,248.28,322.53Z"/><path class="cls-25" d="M199.54,353.18v9.35c0,2.2-5.36,4-12,4s-12-4-12-8c0,4-9.35,8-16,8-8,0-12-7.15-12-16-4,0-8-4-8-8a8,8,0,0,1,8-8l0-.28a31.44,31.44,0,0,0,19.94-4v.32A24,24,0,0,0,196,354.14,18.38,18.38,0,0,0,199.54,353.18Z"/><path class="cls-41" d="M211.52,343.83V386.5l-18,11a9.67,9.67,0,0,1-4.23,1h-.2a9.53,9.53,0,0,1-3.56-18.38l8.95-3.6a8,8,0,0,0,5-7.39V353.18A23.75,23.75,0,0,0,211.52,343.83Z"/><path class="cls-41" d="M267.46,388.94a9.55,9.55,0,0,1-9.55,9.55h-.2a9.64,9.64,0,0,1-4.23-1l-18-11V319.3a23.69,23.69,0,0,0,12,3.27v46.55a8,8,0,0,0,5,7.39l9,3.6A9.5,9.5,0,0,1,267.46,388.94Z"/><path class="cls-41" d="M211.52,361.69V386.5L199,396.17a7.81,7.81,0,0,0-3.48,6.47v0a7.78,7.78,0,0,0,7.79,7.8h5a7.84,7.84,0,0,0,5.51-2.28l9.71-9.71V345.06A24.71,24.71,0,0,1,211.52,361.69Z"/><path class="cls-42" d="M203.53,365v5.33a16,16,0,0,1-6.65,13l-11.54,8.31a4,4,0,0,1-5.72-3.08c0,.14-.06.27-.06.42a9.56,9.56,0,0,0,9.55,9.55h.2a9.67,9.67,0,0,0,4.23-1l18-11V361.69A34,34,0,0,1,203.53,365Z"/><path class="cls-42" d="M261.68,391.6l-11.55-8.31a16,16,0,0,1-6.64-13v-34.9a57.34,57.34,0,0,1-8-1.17V386.5l18,11a9.64,9.64,0,0,0,4.23,1h.2a9.55,9.55,0,0,0,9.55-9.55c0-.15-.06-.28-.06-.42A4,4,0,0,1,261.68,391.6Z"/><path class="cls-23" d="M234.58,318.78a31.43,31.43,0,0,1-15.07,3.79,32.38,32.38,0,0,1-5.59-.52,23.84,23.84,0,0,1-2.4,21.78v17.86a24.71,24.71,0,0,0,12-16.63,35.31,35.31,0,0,0,0-14.5,73.24,73.24,0,0,0,12,3.69V319.3C235.18,319.14,234.9,319,234.58,318.78Z"/><path class="cls-43" d="M203.53,351.32a23,23,0,0,1-4,1.86v12.74c1.41-.27,2.73-.58,4-.93a34,34,0,0,0,8-3.3V343.83A24.05,24.05,0,0,1,203.53,351.32Z"/><path class="cls-43" d="M243.49,322.19a23.84,23.84,0,0,1-8-2.89v14.95a57.34,57.34,0,0,0,8,1.17c1.45.1,2.79.14,4,.13v-13A22.86,22.86,0,0,1,243.49,322.19Z"/><path class="cls-44" d="M247.09,297c-.93,3.5-4.18,9.59-15.59,9.59h-24s4,24-16,24-20-24-20-24-11.07,21.21-24,4c-7.22-9.64-4.28-22.14-.81-30.58a70.72,70.72,0,0,1-12.71-5,7.48,7.48,0,0,1-2,2.31,31.95,31.95,0,0,0,14.42,56.86,5.33,5.33,0,0,0,1.12.12,31.44,31.44,0,0,0,19.94-4v.32A24,24,0,0,0,196,354.14a18.38,18.38,0,0,0,3.52-1,23.91,23.91,0,0,0,14.38-31.13,32.38,32.38,0,0,0,5.59.52,31.43,31.43,0,0,0,15.07-3.79c.32.2.6.36.92.52a23.69,23.69,0,0,0,12,3.27h.09A81.16,81.16,0,0,1,247.09,297Z"/><path class="cls-31" d="M317,286.61h-1.63s0,32-24,32-44-24-44-24a10.54,10.54,0,0,1-.39,2.4,81.16,81.16,0,0,0,.48,25.57c.24,0,.46,0,.71,0a40,40,0,0,0,31.33,31.21,38,38,0,0,0,6.09.73c.48,0,.93,0,1.42.06a42.32,42.32,0,0,0,6.95-.51,39.92,39.92,0,0,0,22.66-66.57C316.85,287.18,316.93,286.89,317,286.61Z"/><path class="cls-30" d="M203.48,207.44c0-.25.05-.48.05-.74,0,.26-.05.49-.05.74a23.84,23.84,0,0,0,12,3.26c32-12,44,16,44,16,0,15.46,8.51,24,24,24,13.27,0,24-5.35,24-12A23.93,23.93,0,0,0,287.12,215a30.8,30.8,0,0,0,.32-4.31,32,32,0,0,0-32-32,30.86,30.86,0,0,0-8.63,1.2c-3.83,1.08-8.11-.28-9.87-3.83a24,24,0,0,0-44.91,5.59,25.55,25.55,0,0,0-.52,4.83v.2A23.91,23.91,0,0,0,203.48,207.44Z"/><path class="cls-26" d="M203.48,207.44a23.91,23.91,0,0,1-11.94-20.72,8.18,8.18,0,0,1-8.23,8,22.82,22.82,0,0,0-4.87.56,24,24,0,0,0-18.3,18.3,22.84,22.84,0,0,0-.56,4.88,8.19,8.19,0,0,1-8.19,8.23,25.56,25.56,0,0,0-4.84.52A24,24,0,0,0,133.17,266a8,8,0,0,1,.9,9,70.72,70.72,0,0,0,12.71,5,61.9,61.9,0,0,0,16.8,2.61s24,0,24-20c0,0,4-28-12-32C175.56,230.67,202.88,230.64,203.48,207.44Z"/><path class="cls-45" d="M108.34,116.51a69,69,0,0,0-9-3.27,66.37,66.37,0,0,0-37,.13,65.62,65.62,0,0,0-8.87,3.24,70.43,70.43,0,0,0-7.4,3.86c-1.26-2.7-2.54-5.38-3.82-8.08s-2.68-5.7-4-8.54q2.35-1.41,4.75-2.62a84.9,84.9,0,0,1,7.77-3.49,81.84,81.84,0,0,1,60.17.1,84.17,84.17,0,0,1,7.76,3.53c1.6.81,3.2,1.71,4.79,2.64-1.32,2.82-2.66,5.62-4,8.42l-3.72,7.88A69.6,69.6,0,0,0,108.34,116.51Z"/><path class="cls-46" d="M46,120.47a70.43,70.43,0,0,1,7.4-3.86,54.89,54.89,0,0,0,4.94,4L42.24,132.64V122.5l-8.11-2,8.07-8.08C43.48,115.09,44.76,117.77,46,120.47Z"/><path class="cls-46" d="M119.36,122.5v10.14l-16.1-12.07a61.87,61.87,0,0,0,5.08-4.06,69.6,69.6,0,0,1,7.38,3.8l3.72-7.88,8,8Z"/><path class="cls-47" d="M99.33,113.24a69,69,0,0,1,9,3.27,61.87,61.87,0,0,1-5.08,4.06A104,104,0,0,1,80.8,132.64a104.15,104.15,0,0,1-22.44-12.07,54.89,54.89,0,0,1-4.94-4,65.62,65.62,0,0,1,8.87-3.24l.25.79A81,81,0,0,0,80.8,124.53a81,81,0,0,0,18.26-10.37Z"/><path class="cls-47" d="M52.39,39.3c4.26,2.84,16.46,4.68,23.4,5.54a42,42,0,0,0,10,0c6.94-.86,19.14-2.7,23.4-5.54l10.15,10.14c-10.15,30.44,0,24.35,0,46.68a19.92,19.92,0,0,1-.73,5.25,84.17,84.17,0,0,0-7.76-3.53,16.15,16.15,0,0,0,.37-3.49c0-18.45-8-13.41,0-38.56l-8-8.38c-3.34,2.36-13,3.88-18.46,4.57a30.88,30.88,0,0,1-7.92,0c-5.48-.69-15.12-2.21-18.46-4.57l-8,8.38c8,25.15,0,20.11,0,38.56a17.25,17.25,0,0,0,.34,3.39,84.9,84.9,0,0,0-7.77,3.49,19.69,19.69,0,0,1-.69-5.11c0-22.33,10.15-16.24,0-46.68Z"/><path class="cls-45" d="M99.33,113.24l-.27.92A81,81,0,0,1,80.8,124.53a81,81,0,0,1-18.26-10.37l-.25-.79A66.37,66.37,0,0,1,99.33,113.24Z"/><path class="cls-45" d="M103.22,47.41l8,8.38c-8,25.15,0,20.11,0,38.56a16.15,16.15,0,0,1-.37,3.49,81.84,81.84,0,0,0-60.17-.1,17.25,17.25,0,0,1-.34-3.39c0-18.45,8-13.41,0-38.56l8-8.38c3.34,2.36,13,3.88,18.46,4.57a30.88,30.88,0,0,0,7.92,0C90.24,51.29,99.88,49.77,103.22,47.41Z"/><path class="cls-48" d="M103.35,114.54c-9.09,8-20.67,12.52-21.46,12.83a3.07,3.07,0,0,1-2.18,0c-.79-.3-12.28-4.79-21.35-12.73-1.66.6-3.31,1.24-4.94,2a54.89,54.89,0,0,0,4.94,4A104.15,104.15,0,0,0,80.8,132.64a104,104,0,0,0,22.46-12.07,61.87,61.87,0,0,0,5.08-4.06C106.7,115.78,105,115.13,103.35,114.54Z"/><path class="cls-49" d="M65.5,112.55a74.81,74.81,0,0,0,15.28,8.69,79.87,79.87,0,0,0,15.49-8.76A66.25,66.25,0,0,0,65.5,112.55Z"/><path class="cls-50" d="M99.07,114.15h0l-.13.1c-.46.35-.92.7-1.38,1l-.09.08-1.58,1.11-.19.12c-.47.32-.93.63-1.4.93l-.23.15q-.68.43-1.35.84l-.2.12c-.47.28-.93.56-1.39.82l-.1.06a86.72,86.72,0,0,1-9.24,4.61h0l-.48.2,0,0-.26.1-.07,0-.09,0-.09,0-.07,0-.26-.1,0,0-.48-.2h0a86.72,86.72,0,0,1-9.24-4.61l-.1-.06c-.46-.26-.92-.54-1.39-.82l-.2-.12q-.67-.4-1.35-.84l-.24-.15-1.39-.93-.19-.12-1.58-1.11-.09-.08c-.46-.33-.92-.68-1.38-1l-.13-.1h0l-.76-.61c-1.14.33-2.28.7-3.41,1.1,9.07,7.94,20.56,12.43,21.35,12.73a3.07,3.07,0,0,0,2.18,0c.79-.31,12.37-4.83,21.46-12.83-1.13-.39-2.26-.76-3.4-1.1Z"/><path class="cls-51" d="M81.26,124.34l0,0Z"/><path class="cls-51" d="M81.78,124.13h0Z"/><path class="cls-51" d="M80.71,124.49l-.07,0Z"/><path class="cls-51" d="M79.86,124.14h0Z"/><path class="cls-51" d="M80.38,124.36l0,0Z"/><path class="cls-51" d="M81,124.46l-.07,0Z"/><path class="cls-45" d="M91,119.52a84.84,84.84,0,0,1-9.24,4.61A86.72,86.72,0,0,0,91,119.52Z"/><path class="cls-45" d="M80.8,124.53l-.09,0Z"/><path class="cls-45" d="M81.22,124.36l-.26.1Z"/><path class="cls-45" d="M80.64,124.46l-.26-.1Z"/><path class="cls-45" d="M81.74,124.14l-.48.2Z"/><path class="cls-45" d="M80.89,124.49l-.09,0Z"/><path class="cls-45" d="M80.34,124.34l-.48-.2Z"/><path class="cls-45" d="M79.82,124.13a84.84,84.84,0,0,1-9.24-4.61A86.72,86.72,0,0,0,79.82,124.13Z"/><path class="cls-46" d="M96.27,112.48a79.87,79.87,0,0,1-15.49,8.76,74.81,74.81,0,0,1-15.28-8.69c-1.07.25-2.14.5-3.21.82l.24.78.14.11c.46.35.92.7,1.38,1l.09.08,1.58,1.11.19.12,1.39.93.24.15c.45.28.9.57,1.35.84l.2.12c.47.28.93.56,1.39.82l.1.06a84.84,84.84,0,0,0,9.24,4.61h0l.48.2,0,0,.26.1.07,0,.09,0,.09,0,.07,0,.26-.1,0,0,.48-.2h0A84.84,84.84,0,0,0,91,119.52l.1-.06c.46-.26.92-.54,1.39-.82l.2-.12c.45-.27.9-.56,1.35-.84l.23-.15c.47-.3.93-.61,1.4-.93l.19-.12,1.58-1.11.09-.08c.46-.33.92-.68,1.38-1l.14-.11.26-.91C98.31,113,97.29,112.73,96.27,112.48Z"/><path class="cls-48" d="M50.36,94.35h0a39.81,39.81,0,0,1,2.08-13.58c1.66-5.28,3-9.17-2.08-25h0l1.08-1.12,6.93-7.26h0a6.31,6.31,0,0,0,.69.43c2.93,1.6,8.7,2.78,13.56,3.55,1.54.23,3,.43,4.21.59a30.88,30.88,0,0,0,7.92,0c1.23-.16,2.67-.36,4.21-.59,4.86-.77,10.63-2,13.56-3.55a7.43,7.43,0,0,0,.69-.43h0l6.93,7.26,1.08,1.12h0c-5,15.81-3.74,19.7-2.08,25a40.06,40.06,0,0,1,2.08,13.58h0a16.56,16.56,0,0,1-.09,1.73c0,.2-.06.39-.09.58,0,.39-.1.78-.18,1.16v0c.95.38,1.89.79,2.84,1.2a20.14,20.14,0,0,0,.57-4.69A43,43,0,0,0,112,79.74c-1.5-4.79-2.58-8.25,2.12-23a3,3,0,0,0-.7-3l-8-8.38a3,3,0,0,0-3.94-.39c-1.57,1.09-6.9,2.73-17.13,4a28.36,28.36,0,0,1-7.13,0c-10.22-1.32-15.55-3-17.12-4a3,3,0,0,0-3.94.39l-8,8.38a3,3,0,0,0-.7,3c4.7,14.77,3.62,18.23,2.12,23a43,43,0,0,0-2.26,14.61,19.8,19.8,0,0,0,.55,4.58c.94-.41,1.88-.82,2.83-1.19A17.25,17.25,0,0,1,50.36,94.35Z"/><path class="cls-45" d="M111.06,96.66c0-.19.07-.38.09-.58a16.42,16.42,0,0,0,.09-1.73,40.06,40.06,0,0,0-2.08-13.58c-1.66-5.29-3-9.17,2.08-25l-1.08-1.12-6.93-7.26a7.64,7.64,0,0,1-.7.43c-2.92,1.61-8.7,2.79-13.56,3.55-1.54.24-3,.44-4.22.6a30.72,30.72,0,0,1-7.9,0c-1.24-.16-2.68-.36-4.22-.6-4.86-.76-10.64-1.94-13.56-3.55a7.64,7.64,0,0,1-.7-.43l-6.93,7.26-1.08,1.12c5,15.81,3.74,19.69,2.08,25a39.81,39.81,0,0,0-2.08,13.58,17.25,17.25,0,0,0,.34,3.39c1-.38,1.94-.72,2.91-1.06a13.92,13.92,0,0,1-.21-2.33,36.64,36.64,0,0,1,2-12.79c1.88-6,2.83-10.54-1.59-25L59,51.17C62.56,52.68,68.41,54,76.46,55a33.19,33.19,0,0,0,8.68,0c8-1,13.9-2.32,17.47-3.83l5.19,5.43c-4.42,14.42-3.47,18.94-1.59,25a36.64,36.64,0,0,1,2,12.79,14.91,14.91,0,0,1-.22,2.42c1,.35,1.93.69,2.89,1.07v0C111,97.44,111,97.05,111.06,96.66Z"/><path class="cls-49" d="M107.8,56.6l-5.19-5.43C99,52.68,93.19,54,85.14,55a33.19,33.19,0,0,1-8.68,0c-8-1-13.9-2.32-17.47-3.83L53.8,56.6a92.21,92.21,0,0,1,2.35,9c9.24,12.25,28.64,21,51.6,22.23a37.71,37.71,0,0,0-1.54-6.28C104.33,75.54,103.38,71,107.8,56.6Z"/><ellipse class="cls-49" cx="98.42" cy="63.03" rx="3.33" ry="4.64" transform="translate(-15.73 88.09) rotate(-45.02)"/><ellipse class="cls-49" cx="100.45" cy="71.17" rx="1.67" ry="2.33" transform="translate(-20.9 91.91) rotate(-45.02)"/><ellipse class="cls-49" cx="103.99" cy="60.01" rx="0.84" ry="1.17" transform="translate(-11.97 91.15) rotate(-45.02)"/><path d="M40.24,94l4.06.12a43.54,43.54,0,0,1,2.56-14c1.59-4.85,3-9,.83-19l-4,.86c1.91,8.85.75,12.38-.72,16.84A47.31,47.31,0,0,0,40.24,94Z"/><path d="M42.75,58.09,46.67,57c-.57-2.14-1.27-4.45-2.11-7l8.18-8.18c5.08,2.45,15,4.08,22.8,5a43.06,43.06,0,0,0,10.52,0c7.81-1,17.72-2.59,22.8-5L117,50c-6.08,18.65-4.41,23.75-2.3,30.17a43.82,43.82,0,0,1,2.56,14l4.06-.12a47.31,47.31,0,0,0-2.76-15.14c-2-6.07-3.43-10.45,2.68-28.81a2,2,0,0,0-.49-2.07L110.64,37.86a2,2,0,0,0-2.56-.25c-2.85,1.9-11.06,3.8-22.52,5.21a38.88,38.88,0,0,1-9.52,0c-11.46-1.41-19.67-3.31-22.53-5.21a2,2,0,0,0-2.56.25L40.81,48a2,2,0,0,0-.49,2.07C41.32,53.08,42.11,55.7,42.75,58.09Z"/><path d="M66.77,114.74l-2.3,3.35a83.94,83.94,0,0,0,15.6,8.33,2.06,2.06,0,0,0,.73.14,2,2,0,0,0,.72-.14,83.21,83.21,0,0,0,15.61-8.34l-2.3-3.34a81.89,81.89,0,0,1-14,7.6A81.89,81.89,0,0,1,66.77,114.74Z"/><path d="M107.18,81.25a42.65,42.65,0,0,1,1.35,5.1l4-.76A45.67,45.67,0,0,0,111.05,80c-1.55-5-2.68-8.56,2.12-23.63a2,2,0,0,0-.46-2l-8-8.38a2,2,0,0,0-2.63-.26C99.9,47.26,93.33,48.84,84.49,50a28.49,28.49,0,0,1-7.38,0c-8.85-1.13-15.41-2.71-17.58-4.22A2,2,0,0,0,56.9,46l-8,8.38a2,2,0,0,0-.46,2C53.23,71.49,52.1,75.07,50.55,80a41.87,41.87,0,0,0-2.22,14h4.06a38,38,0,0,1,2-12.83c1.67-5.34,3-9.58-1.77-24.93L58.75,50c4.17,2,11.8,3.27,17.84,4A33,33,0,0,0,85,54c6-.78,13.67-2.08,17.84-4l6.09,6.38C104.18,71.68,105.51,75.92,107.18,81.25Z"/><path d="M113.27,94.08c0-1.46-.06-2.88-.17-4.22l-4,.33c.1,1.24.15,2.55.16,3.9Z"/><path d="M128.91,119l-7-7,3.36-7.13a2,2,0,0,0-.79-2.61,85.18,85.18,0,0,0-58.22-11l.71,4a81,81,0,0,1,53.84,9.55l-6,12.62a69.23,69.23,0,0,0-67.91.16l-6.1-12.93a82.23,82.23,0,0,1,22.23-8.61l-.9-4a86.71,86.71,0,0,0-25,10,2,2,0,0,0-.8,2.61L39.77,112,32.69,119a2,2,0,0,0,.94,3.41l6.58,1.64v8.56a2.05,2.05,0,0,0,1.12,1.82,2.09,2.09,0,0,0,.91.21,2,2,0,0,0,1.22-.4l14.9-11.18A105.5,105.5,0,0,0,80.1,134.55a2.1,2.1,0,0,0,1.4,0,105.5,105.5,0,0,0,21.74-11.46l14.9,11.18a2,2,0,0,0,3.25-1.63v-8.56l6.58-1.64a2.07,2.07,0,0,0,1.46-1.43A2,2,0,0,0,128.91,119Zm-84.64,9.56V122.5a2,2,0,0,0-1.54-2l-4.64-1.16,3.52-3.51,2.58,5.47a2.06,2.06,0,0,0,1.25,1.08,2,2,0,0,0,.59.09,2,2,0,0,0,1-.29c2-1.18,4-2.21,6-3.18.61.53,1.23,1,1.86,1.53Zm36.53,1.88c-2.9-1.14-14.22-5.87-23.5-13.24a64.83,64.83,0,0,1,47.14-.11C95.13,124.56,83.71,129.32,80.8,130.47Zm38.07-9.94a2,2,0,0,0-1.54,2v6.09l-10.7-8c.68-.54,1.35-1.09,2-1.66,2,1,4.07,2,6.06,3.15a2,2,0,0,0,1.62.19,2,2,0,0,0,1.24-1.07l2.49-5.26,3.45,3.46Z"/><text class="cls-52" transform="translate(66.55 104.81)">I<tspan class="cls-53" x="4.4" y="0">r</tspan><tspan x="10.66" y="0">on</tspan></text><text class="cls-54" transform="translate(439.62 550.03) rotate(-90)">Next<tspan class="cls-55" x="45.69" y="0">r</tspan><tspan x="54.51" y="0">ee</tspan></text><text class="cls-54" transform="translate(14.57 156.32) rotate(-90)">Next<tspan class="cls-55" x="45.69" y="0">r</tspan><tspan x="54.51" y="0">ee</tspan></text></svg>