<svg id="레이어_1" data-name="레이어 1" xmlns="http://www.w3.org/2000/svg" xmlns:xlink="http://www.w3.org/1999/xlink" viewBox="0 0 451.83 616.13"><defs><style>.cls-1{fill:url(#무제_그라디언트_87);}.cls-2{fill:url(#무제_그라디언트_36);}.cls-3{clip-path:url(#clip-path);}.cls-4{fill:url(#무제_그라디언트_78);}.cls-5{fill:url(#무제_그라디언트_78-2);}.cls-6{fill:url(#무제_그라디언트_78-3);}.cls-7{fill:url(#무제_그라디언트_78-4);}.cls-8{fill:url(#무제_그라디언트_78-5);}.cls-9{fill:url(#무제_그라디언트_78-6);}.cls-10{fill:url(#무제_그라디언트_78-7);}.cls-11{fill:url(#무제_그라디언트_78-8);}.cls-12{fill:url(#무제_그라디언트_78-9);}.cls-13{fill:url(#무제_그라디언트_78-10);}.cls-14{fill:url(#무제_그라디언트_78-11);}.cls-15{fill:url(#무제_그라디언트_78-12);}.cls-16{fill:url(#무제_그라디언트_78-13);}.cls-17{fill:url(#무제_그라디언트_78-14);}.cls-18{fill:url(#무제_그라디언트_78-15);}.cls-19{fill:url(#무제_그라디언트_78-16);}.cls-20{fill:url(#무제_그라디언트_78-17);}.cls-21{fill:url(#무제_그라디언트_29);}.cls-22{font-size:25.42px;}.cls-22,.cls-24{fill:#fff;font-family:Cafe24Ssurround, Cafe24 Ssurround;}.cls-23{letter-spacing:-0.03em;}.cls-24{font-size:19px;}.cls-25{letter-spacing:-0.03em;}.cls-26{fill:#ef492c;}.cls-27{fill:#fdcf1c;}.cls-28{fill:#faab18;}.cls-29{fill:#f47f1f;}.cls-30{fill:#fff1c5;}.cls-31{fill:#d23d27;}.cls-32{fill:#ad3127;}.cls-33{fill:#f1663a;}.cls-34{fill:none;}.cls-35{fill:#8e3e1e;}.cls-36{fill:#821717;}</style><linearGradient id="무제_그라디언트_87" x1="21.46" y1="306.63" x2="428.24" y2="306.63" gradientTransform="translate(0 -32.83) scale(1 1.11)" gradientUnits="userSpaceOnUse"><stop offset="0" stop-color="#fff"/><stop offset="1" stop-color="#fff" stop-opacity="0.5"/></linearGradient><linearGradient id="무제_그라디언트_36" x1="28.53" y1="221.23" x2="430.35" y2="398" gradientUnits="userSpaceOnUse"><stop offset="0" stop-color="#f1a7f1"/><stop offset="0.09" stop-color="#eda8f1" stop-opacity="0.99"/><stop offset="0.21" stop-color="#e0acf1" stop-opacity="0.95"/><stop offset="0.33" stop-color="#cab3f0" stop-opacity="0.89"/><stop offset="0.46" stop-color="#adbcef" stop-opacity="0.81"/><stop offset="0.6" stop-color="#86c8ef" stop-opacity="0.7"/><stop offset="0.74" stop-color="#58d6ee" stop-opacity="0.58"/><stop offset="0.82" stop-color="#3ddeed" stop-opacity="0.5"/></linearGradient><clipPath id="clip-path"><rect class="cls-1" x="21.46" y="14.03" width="406.79" height="586.92" rx="32.28"/></clipPath><linearGradient id="무제_그라디언트_78" x1="9.07" y1="386.6" x2="406.43" y2="386.6" xlink:href="#무제_그라디언트_87"/><linearGradient id="무제_그라디언트_78-2" x1="9.07" y1="307.2" x2="442.76" y2="307.2" xlink:href="#무제_그라디언트_87"/><linearGradient id="무제_그라디언트_78-3" x1="9.07" y1="442.86" x2="293.92" y2="442.86" xlink:href="#무제_그라디언트_87"/><linearGradient id="무제_그라디언트_78-4" x1="9.07" y1="499.11" x2="181.4" y2="499.11" xlink:href="#무제_그라디언트_87"/><linearGradient id="무제_그라디언트_78-5" x1="271.03" y1="115.59" x2="442.76" y2="115.59" xlink:href="#무제_그라디언트_87"/><linearGradient id="무제_그라디언트_78-6" x1="158.51" y1="171.84" x2="442.76" y2="171.84" xlink:href="#무제_그라디언트_87"/><linearGradient id="무제_그라디언트_78-7" x1="222.42" y1="139.89" x2="442.76" y2="139.89" xlink:href="#무제_그라디언트_87"/><linearGradient id="무제_그라디언트_78-8" x1="383.55" y1="59.33" x2="442.76" y2="59.33" xlink:href="#무제_그라디언트_87"/><linearGradient id="무제_그라디언트_78-9" x1="334.94" y1="83.63" x2="442.76" y2="83.63" xlink:href="#무제_그라디언트_87"/><linearGradient id="무제_그라디언트_78-10" x1="109.9" y1="196.15" x2="442.76" y2="196.15" xlink:href="#무제_그라디언트_87"/><linearGradient id="무제_그라디언트_78-11" x1="9.07" y1="252.41" x2="442.76" y2="252.41" xlink:href="#무제_그라디언트_87"/><linearGradient id="무제_그라디언트_78-12" x1="9.07" y1="362.29" x2="442.76" y2="362.29" xlink:href="#무제_그라디언트_87"/><linearGradient id="무제_그라디언트_78-13" x1="9.07" y1="418.55" x2="342.53" y2="418.55" xlink:href="#무제_그라디언트_87"/><linearGradient id="무제_그라디언트_78-14" x1="9.07" y1="474.81" x2="230.01" y2="474.81" xlink:href="#무제_그라디언트_87"/><linearGradient id="무제_그라디언트_78-15" x1="9.07" y1="555.47" x2="68.88" y2="555.47" xlink:href="#무제_그라디언트_87"/><linearGradient id="무제_그라디언트_78-16" x1="9.07" y1="531.07" x2="117.49" y2="531.07" xlink:href="#무제_그라디언트_87"/><linearGradient id="무제_그라디언트_78-17" x1="46" y1="228.1" x2="442.76" y2="228.1" xlink:href="#무제_그라디언트_87"/><linearGradient id="무제_그라디언트_29" x1="111.52" y1="528.13" x2="343.52" y2="528.13" gradientUnits="userSpaceOnUse"><stop offset="0" stop-color="#e900df"/><stop offset="0.09" stop-color="#e900da" stop-opacity="0.99"/><stop offset="0.2" stop-color="#eb00cb" stop-opacity="0.95"/><stop offset="0.32" stop-color="#ed00b2" stop-opacity="0.9"/><stop offset="0.45" stop-color="#f10090" stop-opacity="0.82"/><stop offset="0.59" stop-color="#f50063" stop-opacity="0.72"/><stop offset="0.72" stop-color="#fa002e" stop-opacity="0.6"/><stop offset="0.82" stop-color="#fe0004" stop-opacity="0.5"/></linearGradient></defs><rect class="cls-2" x="6.42" width="438.99" height="616.13" rx="24.51"/><g id="line"><rect class="cls-1" x="21.46" y="14.03" width="406.79" height="586.92" rx="32.28"/><g class="cls-3"><polygon class="cls-4" points="406.43 616.75 9.07 175.73 9.07 208.93 376.52 616.75 406.43 616.75"/><polygon class="cls-5" points="9.07 50.85 9.07 84.06 442.75 565.38 442.75 532.18 9.07 50.85"/><polygon class="cls-6" points="293.92 616.75 9.07 300.61 9.07 333.81 264 616.75 293.92 616.75"/><polygon class="cls-7" points="181.4 616.75 9.07 425.49 9.07 458.69 151.49 616.75 181.4 616.75"/><polygon class="cls-8" points="442.75 157.55 300.94 0.16 271.03 0.16 442.75 190.75 442.75 157.55"/><polygon class="cls-9" points="442.75 282.43 188.43 0.16 158.51 0.16 442.75 315.63 442.75 282.43"/><polygon class="cls-10" points="442.75 228.48 237.03 0.16 222.42 0.16 442.75 244.7 442.75 228.48"/><polygon class="cls-11" points="442.75 32.67 413.46 0.16 383.55 0.16 442.75 65.87 442.75 32.67"/><polygon class="cls-12" points="442.75 103.6 349.55 0.16 334.94 0.16 442.75 119.82 442.75 103.6"/><polygon class="cls-13" points="442.75 353.36 124.52 0.16 109.9 0.16 442.75 369.58 442.75 353.36"/><polygon class="cls-14" points="12 0.16 9.07 0.16 9.07 13.13 442.75 494.46 442.75 478.24 12 0.16"/><polygon class="cls-15" points="442.75 616.75 442.75 603.11 9.07 121.78 9.07 138 440.43 616.75 442.75 616.75"/><polygon class="cls-16" points="342.52 616.75 9.07 246.66 9.07 262.88 327.91 616.75 342.52 616.75"/><polygon class="cls-17" points="230.01 616.75 9.07 371.54 9.07 387.76 215.39 616.75 230.01 616.75"/><path class="cls-18" d="M45,616.75H68.88L9.07,550.37v33.2L39.17,617C41.12,616.84,43.08,616.75,45,616.75Z"/><polygon class="cls-19" points="117.49 616.75 9.07 496.42 9.07 512.64 102.88 616.75 117.49 616.75"/><polygon class="cls-20" points="442.75 407.31 75.91 0.16 46 0.16 442.75 440.51 442.75 407.31"/></g></g><rect class="cls-21" x="111.52" y="503.62" width="232.01" height="49.02" rx="16.43"/><text class="cls-22" transform="translate(145.74 535.21)">Next<tspan class="cls-23" x="61.15" y="0">r</tspan><tspan x="72.94" y="0">ee Key</tspan></text><text class="cls-24" transform="translate(440.82 552.64) rotate(-90)">Next<tspan class="cls-25" x="45.69" y="0">r</tspan><tspan x="54.51" y="0">ee</tspan></text><text class="cls-24" transform="translate(15.77 158.93) rotate(-90)">Next<tspan class="cls-25" x="45.69" y="0">r</tspan><tspan x="54.51" y="0">ee</tspan></text><polygon class="cls-26" points="171.79 339.37 178.03 383.3 213.65 374.38 215 319.48 171.79 339.37"/><path class="cls-27" d="M241,312.14,283.2,248a5.83,5.83,0,0,1,7.88-1.8l27.56,16.59a48,48,0,0,0,9.71-14.84L301.89,230a5.83,5.83,0,0,1-1.6-8l6.41-9.75a5.82,5.82,0,0,1,3.75-2.52,5.74,5.74,0,0,1,4.43.92l32.76,22.6a28,28,0,0,0,11.68-17.81l-35.14-23.1a5.84,5.84,0,0,1-1.67-8.08l5.48-8.33a40.18,40.18,0,0,0-11.81-11.85,48,48,0,0,0-16.67-6.77l-88.72,135a5.85,5.85,0,0,1-2.28,2L143.3,326.66l14.13,88.08,82.18-23.83.45-75.6A5.89,5.89,0,0,1,241,312.14Zm-22,69.92L175.45,393a4.35,4.35,0,0,1-3.46-.59l0,0a4.36,4.36,0,0,1-1.89-3l-7.39-52a4.38,4.38,0,0,1,2.5-4.59l52.55-24.19a4.34,4.34,0,0,1,4.23.31h0a4.39,4.39,0,0,1,2,3.77l-1.6,65.24A4.39,4.39,0,0,1,219,382.06Z"/><path class="cls-28" d="M359.15,228.27l-52.36-31.81-16.42,25,24.29,17.24s8.91-9.36,10.13-8.56,26.55,10,26.55,10Z"/><polygon class="cls-28" points="326.59 257.9 284.56 230.27 229.56 313.92 226.71 383.29 169.26 396.55 173.06 390.76 166.85 334.34 217.72 308.6 155.91 331.07 160.65 409.65 155.41 418.85 242.63 396.81 246.79 314.92 289.55 251.87 318.88 268.97 326.59 257.9"/><path class="cls-29" d="M355.09,225.74l-48.3-29.28s3.89,8.95.85,11.75c-.74.68-7.35,13.79-7.35,13.79s10.82-7.57,11.57-6.94,30.43,22.05,31.24,21.7,8.32-5.43,8.32-5.43l3.67-5.59"/><path class="cls-29" d="M326.59,257.9l-42-27.63s.42,7.1-1.07,11.36-11.17,22.9-11.17,22.9l13.08-13.21s13.18,6.05,13.69,6.38,18.36,9,18.36,9l4.52-3.57C322.27,262.91,326.59,257.9,326.59,257.9Z"/><polyline class="cls-29" points="165.17 332.79 155.91 331.07 160.65 409.65 171.95 392.36 165.17 332.79"/><polygon class="cls-29" points="226.71 383.29 167.76 396.65 160.65 409.65 237.21 390.19 226.71 383.29"/><path class="cls-30" d="M143,323.47l74.64-26,83.57-131.76s11.63-3.61,25.07,5l-16.13-13.91-13.68-3.76s-89.29,138.46-91.1,138.58S143,323.47,143,323.47Z"/><polygon class="cls-31" points="211.47 324.85 193.85 351.65 176.6 342.49 179.47 378.84 209.65 372.07 211.47 324.85"/><polygon class="cls-32" points="176.6 342.49 179.47 378.84 206.76 370.17 201.65 362.01 187.27 363.03 193.85 351.65 176.6 342.49"/><polygon class="cls-33" points="177.6 340.96 193.56 349.44 209.75 324.81 177.6 340.96"/><polygon class="cls-34" points="171.79 339.37 178.03 383.3 213.65 374.38 215 319.48 171.79 339.37"/><path class="cls-34" d="M241,312.14,283.2,248a5.83,5.83,0,0,1,7.88-1.8l27.56,16.59a48,48,0,0,0,9.71-14.84L301.89,230a5.83,5.83,0,0,1-1.6-8l6.41-9.75a5.82,5.82,0,0,1,3.75-2.52,5.74,5.74,0,0,1,4.43.92l32.76,22.6a28,28,0,0,0,11.68-17.81l-35.14-23.1a5.84,5.84,0,0,1-1.67-8.08l5.48-8.33a40.18,40.18,0,0,0-11.81-11.85,48,48,0,0,0-16.67-6.77l-88.72,135a5.85,5.85,0,0,1-2.28,2L143.3,326.66l14.13,88.08,82.18-23.83.45-75.6A5.89,5.89,0,0,1,241,312.14Zm-22,69.92L175.45,393a4.35,4.35,0,0,1-3.46-.59l0,0a4.36,4.36,0,0,1-1.89-3l-7.39-52a4.38,4.38,0,0,1,2.5-4.59l52.55-24.19a4.34,4.34,0,0,1,4.23.31h0a4.39,4.39,0,0,1,2,3.77l-1.6,65.24A4.39,4.39,0,0,1,219,382.06Z"/><path class="cls-35" d="M251.72,317.11l38.15-58,26.68,16.06a5.82,5.82,0,0,0,7-.76c15.08-14.23,17.28-27.42,17.37-28a5.83,5.83,0,0,0-1.05-4.34l4.21,2.9a5.82,5.82,0,0,0,6,.37c20.55-10.75,21.26-31.76,21.29-32.65a5.83,5.83,0,0,0-2.63-5l-33.3-21.89,4.27-6.5a5.82,5.82,0,0,0,.27-6,51.94,51.94,0,0,0-17.41-19,58.17,58.17,0,0,0-25.51-9.15,5.84,5.84,0,0,0-5.27,2.62l-89.9,136.74-67.65,33.58a5.83,5.83,0,0,0-3.16,6.15L147,423.1a5.83,5.83,0,0,0,2.56,3.95l.08.05a5.84,5.84,0,0,0,4.75.68L247,400.9a5.85,5.85,0,0,0,4.21-5.57Zm-94.29,97.63L143.3,326.66l65.21-32.37a5.85,5.85,0,0,0,2.28-2l88.72-135a48,48,0,0,1,16.67,6.77A40.18,40.18,0,0,1,328,175.93l-5.48,8.33a5.84,5.84,0,0,0,1.67,8.08l35.14,23.1a28,28,0,0,1-11.68,17.81l-32.76-22.6a5.74,5.74,0,0,0-4.43-.92,5.82,5.82,0,0,0-3.75,2.52L300.29,222a5.83,5.83,0,0,0,1.6,8l26.46,17.91a48,48,0,0,1-9.71,14.84l-27.56-16.59a5.83,5.83,0,0,0-7.88,1.8L241,312.14a5.89,5.89,0,0,0-1,3.17l-.45,75.6Z"/><path class="cls-36" d="M222,308.91h0a4.34,4.34,0,0,0-4.23-.31l-52.55,24.19a4.38,4.38,0,0,0-2.5,4.59l7.39,52a4.36,4.36,0,0,0,1.89,3l0,0a4.35,4.35,0,0,0,3.46.59L219,382.06a4.39,4.39,0,0,0,3.31-4.14l1.6-65.24A4.39,4.39,0,0,0,222,308.91ZM178,383.3l-6.25-43.93L215,319.48l-1.35,54.9Z"/></svg>