<svg id="레이어_1" data-name="레이어 1" xmlns="http://www.w3.org/2000/svg" xmlns:xlink="http://www.w3.org/1999/xlink" viewBox="0 0 451.83 616.13"><defs><style>.cls-1{fill:url(#무제_그라디언트_87);}.cls-2{fill:url(#무제_그라디언트_15);}.cls-3{clip-path:url(#clip-path);}.cls-4{fill:url(#무제_그라디언트_78);}.cls-5{fill:url(#무제_그라디언트_78-2);}.cls-6{fill:url(#무제_그라디언트_78-3);}.cls-7{fill:url(#무제_그라디언트_78-4);}.cls-8{fill:url(#무제_그라디언트_78-5);}.cls-9{fill:url(#무제_그라디언트_78-6);}.cls-10{fill:url(#무제_그라디언트_78-7);}.cls-11{fill:url(#무제_그라디언트_78-8);}.cls-12{fill:url(#무제_그라디언트_78-9);}.cls-13{fill:url(#무제_그라디언트_78-10);}.cls-14{fill:url(#무제_그라디언트_78-11);}.cls-15{fill:url(#무제_그라디언트_78-12);}.cls-16{fill:url(#무제_그라디언트_78-13);}.cls-17{fill:url(#무제_그라디언트_78-14);}.cls-18{fill:url(#무제_그라디언트_78-15);}.cls-19{fill:url(#무제_그라디언트_78-16);}.cls-20{fill:url(#무제_그라디언트_78-17);}.cls-21{fill:#c196ff;}.cls-22{fill:#714226;}.cls-23{fill:#7c4026;}.cls-24{fill:#9a6948;}.cls-25{fill:#004a2d;}.cls-26{fill:#009e60;}.cls-27{fill:#00e088;}.cls-28{fill:#422716;}.cls-29{fill:#59341e;}.cls-30{fill:#00c477;}.cls-31{fill:#007145;}.cls-32{fill:#003b24;}.cls-33{fill:#00ff9b;}.cls-34{font-size:17px;}.cls-34,.cls-35,.cls-40,.cls-57{font-family:Cafe24Ssurround, Cafe24 Ssurround;}.cls-35{font-size:25.42px;fill:#434440;}.cls-36{letter-spacing:-0.03em;}.cls-37{letter-spacing:0em;}.cls-38{letter-spacing:-0.06em;}.cls-39{letter-spacing:-0.03em;}.cls-40{font-size:19px;}.cls-40,.cls-60{fill:#fff;}.cls-41{letter-spacing:-0.03em;}.cls-42{fill:#f4700c;}.cls-43{fill:#fea740;}.cls-44{fill:#ffdf64;}.cls-45{fill:#e1e7f7;}.cls-46{fill:#5d5cff;}.cls-47{fill:#8b69ff;}.cls-48{fill:#6960ff;}.cls-49{fill:#b785ff;}.cls-50{fill:#5c5aec;}.cls-51{fill:#ffb844;}.cls-52{fill:#fff978;}.cls-53{fill:#ffce54;}.cls-54{fill:#f7f7ff;}.cls-55{fill:#ff942c;}.cls-56{fill:#f6fafd;}.cls-57{font-size:5px;letter-spacing:0.1em;}.cls-58{letter-spacing:0.07em;}.cls-59{letter-spacing:0.1em;}.cls-61{fill:#2f5224;}.cls-62{fill:#5cb34f;}.cls-63{fill:#7bc24f;}.cls-64{fill:#44853b;}.cls-65{fill:#5d241d;}.cls-66{fill:#8ee05b;}.cls-67{fill:#52a147;}.cls-68{fill:#39632c;}.cls-69{fill:#233d1b;}.cls-70{fill:#7d00d4;}.cls-71{fill:#192b13;}</style><linearGradient id="무제_그라디언트_87" x1="18.95" y1="307.45" x2="425.73" y2="307.45" gradientTransform="translate(0 -32.83) scale(1 1.11)" gradientUnits="userSpaceOnUse"><stop offset="0" stop-color="#fff"/><stop offset="1" stop-color="#fff" stop-opacity="0.5"/></linearGradient><linearGradient id="무제_그라디언트_15" x1="28.53" y1="221.23" x2="430.35" y2="398" gradientUnits="userSpaceOnUse"><stop offset="0" stop-color="#a88beb"/><stop offset="0.2" stop-color="#b091eb" stop-opacity="0.99"/><stop offset="0.45" stop-color="#c5a4eb" stop-opacity="0.96"/><stop offset="0.73" stop-color="#e9c2ec" stop-opacity="0.92"/><stop offset="0.82" stop-color="#f8ceec" stop-opacity="0.9"/></linearGradient><clipPath id="clip-path"><rect class="cls-1" x="18.95" y="14.93" width="406.79" height="586.92" rx="32.28"/></clipPath><linearGradient id="무제_그라디언트_78" x1="6.56" y1="387.41" x2="403.92" y2="387.41" xlink:href="#무제_그라디언트_87"/><linearGradient id="무제_그라디언트_78-2" x1="6.56" y1="308.01" x2="440.25" y2="308.01" xlink:href="#무제_그라디언트_87"/><linearGradient id="무제_그라디언트_78-3" x1="6.56" y1="443.67" x2="291.41" y2="443.67" xlink:href="#무제_그라디언트_87"/><linearGradient id="무제_그라디언트_78-4" x1="6.56" y1="499.93" x2="178.89" y2="499.93" xlink:href="#무제_그라디언트_87"/><linearGradient id="무제_그라디언트_78-5" x1="268.52" y1="116.4" x2="440.25" y2="116.4" xlink:href="#무제_그라디언트_87"/><linearGradient id="무제_그라디언트_78-6" x1="156" y1="172.66" x2="440.25" y2="172.66" xlink:href="#무제_그라디언트_87"/><linearGradient id="무제_그라디언트_78-7" x1="219.91" y1="140.71" x2="440.25" y2="140.71" xlink:href="#무제_그라디언트_87"/><linearGradient id="무제_그라디언트_78-8" x1="381.04" y1="60.14" x2="440.25" y2="60.14" xlink:href="#무제_그라디언트_87"/><linearGradient id="무제_그라디언트_78-9" x1="332.43" y1="84.45" x2="440.25" y2="84.45" xlink:href="#무제_그라디언트_87"/><linearGradient id="무제_그라디언트_78-10" x1="107.39" y1="196.96" x2="440.25" y2="196.96" xlink:href="#무제_그라디언트_87"/><linearGradient id="무제_그라디언트_78-11" x1="6.56" y1="253.22" x2="440.25" y2="253.22" xlink:href="#무제_그라디언트_87"/><linearGradient id="무제_그라디언트_78-12" x1="6.56" y1="363.11" x2="440.25" y2="363.11" xlink:href="#무제_그라디언트_87"/><linearGradient id="무제_그라디언트_78-13" x1="6.56" y1="419.37" x2="340.02" y2="419.37" xlink:href="#무제_그라디언트_87"/><linearGradient id="무제_그라디언트_78-14" x1="6.56" y1="475.63" x2="227.5" y2="475.63" xlink:href="#무제_그라디언트_87"/><linearGradient id="무제_그라디언트_78-15" x1="6.56" y1="556.29" x2="66.37" y2="556.29" xlink:href="#무제_그라디언트_87"/><linearGradient id="무제_그라디언트_78-16" x1="6.56" y1="531.88" x2="114.98" y2="531.88" xlink:href="#무제_그라디언트_87"/><linearGradient id="무제_그라디언트_78-17" x1="43.49" y1="228.92" x2="440.25" y2="228.92" xlink:href="#무제_그라디언트_87"/></defs><rect class="cls-2" x="6.42" width="438.99" height="616.13" rx="24.51"/><g id="line"><rect class="cls-1" x="18.95" y="14.93" width="406.79" height="586.92" rx="32.28"/><g class="cls-3"><polygon class="cls-4" points="403.92 617.65 6.56 176.64 6.56 209.84 374.01 617.65 403.92 617.65"/><polygon class="cls-5" points="6.56 51.76 6.56 84.96 440.25 566.29 440.25 533.09 6.56 51.76"/><polygon class="cls-6" points="291.41 617.65 6.56 301.51 6.56 334.72 261.49 617.65 291.41 617.65"/><polygon class="cls-7" points="178.89 617.65 6.56 426.39 6.56 459.59 148.98 617.65 178.89 617.65"/><polygon class="cls-8" points="440.25 158.46 298.43 1.06 268.52 1.06 440.25 191.66 440.25 158.46"/><polygon class="cls-9" points="440.25 283.33 185.92 1.06 156 1.06 440.25 316.53 440.25 283.33"/><polygon class="cls-10" points="440.25 229.38 234.53 1.06 219.91 1.06 440.25 245.6 440.25 229.38"/><polygon class="cls-11" points="440.25 33.58 410.95 1.06 381.04 1.06 440.25 66.78 440.25 33.58"/><polygon class="cls-12" points="440.25 104.51 347.04 1.06 332.43 1.06 440.25 120.73 440.25 104.51"/><polygon class="cls-13" points="440.25 354.26 122.01 1.06 107.39 1.06 440.25 370.48 440.25 354.26"/><polygon class="cls-14" points="9.49 1.06 6.56 1.06 6.56 14.03 440.25 495.36 440.25 479.14 9.49 1.06"/><polygon class="cls-15" points="440.25 617.65 440.25 604.02 6.56 122.69 6.56 138.91 437.92 617.65 440.25 617.65"/><polygon class="cls-16" points="340.02 617.65 6.56 247.57 6.56 263.79 325.4 617.65 340.02 617.65"/><polygon class="cls-17" points="227.5 617.65 6.56 372.44 6.56 388.66 212.88 617.65 227.5 617.65"/><path class="cls-18" d="M42.53,617.65H66.37L6.56,551.27v33.2l30.1,33.4C38.61,617.74,40.57,617.65,42.53,617.65Z"/><polygon class="cls-19" points="114.98 617.65 6.56 497.32 6.56 513.54 100.37 617.65 114.98 617.65"/><polygon class="cls-20" points="440.25 408.21 73.4 1.06 43.49 1.06 440.25 441.41 440.25 408.21"/></g></g><rect class="cls-21" x="111.52" y="503.62" width="232.01" height="49.02" rx="16.43"/><path class="cls-22" d="M325.61,81.94V96.15h-4V81.94a9.36,9.36,0,0,0,2,.21A9.5,9.5,0,0,0,325.61,81.94Z"/><path class="cls-23" d="M340.61,80V96.15h-4V80a10.2,10.2,0,0,0,2,.2A11,11,0,0,0,340.61,80Z"/><path class="cls-24" d="M355.61,86.15v10h-4v-10l0-.18a10.87,10.87,0,0,0,3.94,0Z"/><path class="cls-25" d="M325.61,81.94a9.5,9.5,0,0,1-2,.21,9.36,9.36,0,0,1-2-.21,10.38,10.38,0,0,1-8-10.27c0-5.78,4.48-29.52,10-29.52,2.4,0,4.6,4.47,6.32,10h0a91.89,91.89,0,0,0-2.36,15.94,12.47,12.47,0,0,0,4.24,9.51A10,10,0,0,1,325.61,81.94Z"/><path class="cls-26" d="M343.61,76.72a8.73,8.73,0,0,0,.24,2.06l-.24.06a10.53,10.53,0,0,1-3,1.12,11,11,0,0,1-2,.19,10.2,10.2,0,0,1-2-.2,10.5,10.5,0,0,1-4.76-2.34,12.47,12.47,0,0,1-4.24-9.51A91.89,91.89,0,0,1,330,52.16c2-8.95,5.14-18,8.64-18,4.11,0,7.69,12.47,9.58,22.61C345.43,63.49,343.61,73.4,343.61,76.72Z"/><path class="cls-27" d="M348.19,56.76c1.56-3.81,3.42-6.61,5.42-6.61,5.52,0,10,21.36,10,26.57a9.6,9.6,0,0,1-8,9.25,10.87,10.87,0,0,1-3.94,0,9.77,9.77,0,0,1-7.79-7.19,8.73,8.73,0,0,1-.24-2.06C343.61,73.4,345.43,63.49,348.19,56.76Z"/><path class="cls-28" d="M323.61,82.15a9.36,9.36,0,0,1-2-.21V96.15h2v-10a2,2,0,0,1,2-2V81.94A9.5,9.5,0,0,1,323.61,82.15Z"/><path class="cls-22" d="M323.61,86.15v10h2v-12A2,2,0,0,0,323.61,86.15Z"/><path class="cls-23" d="M338.61,84.15v12h2v-14A2,2,0,0,0,338.61,84.15Z"/><path class="cls-29" d="M338.61,80.15a10.2,10.2,0,0,1-2-.2v16.2h2v-12a2,2,0,0,1,2-2V80A11,11,0,0,1,338.61,80.15Z"/><path class="cls-23" d="M355.58,86a10.87,10.87,0,0,1-3.94,0l0,.18v10h2v-6a2,2,0,0,1,2-2v-2Z"/><path class="cls-24" d="M353.61,90.15v6h2v-8A2,2,0,0,0,353.61,90.15Z"/><path class="cls-30" d="M348.61,74.15c0-7,2-16,3.14-20.72a4,4,0,0,1,3.06-2.94,2.54,2.54,0,0,0-1.2-.34c-2,0-3.86,2.8-5.42,6.61-2.76,6.73-4.58,16.64-4.58,20a8.73,8.73,0,0,0,.24,2.06A9.77,9.77,0,0,0,351.64,86a10.87,10.87,0,0,0,3.94,0,9.73,9.73,0,0,0,7.88-7.63C361.06,81.27,348.61,83.94,348.61,74.15Z"/><path class="cls-31" d="M348.19,56.76c-.49-2.68-1.11-5.52-1.83-8.24-1.52.87-2.94,3.24-4.17,6.24a64.4,64.4,0,0,0-2.78,8.9,3.91,3.91,0,0,1-7.7-.67c-.06-.88-.1-1.83-.1-2.84,0-8.29,4-18.85,5.94-23.55a4,4,0,0,1,2.18-2.15,2.44,2.44,0,0,0-1.12-.3c-3.5,0-6.62,9.06-8.64,18a91.89,91.89,0,0,0-2.36,15.94,12.47,12.47,0,0,0,4.24,9.51A10.5,10.5,0,0,0,336.61,80a10.2,10.2,0,0,0,2,.2c.28,0,.55,0,.83,0a11.33,11.33,0,0,0,1.17-.15,10.53,10.53,0,0,0,3-1.12l.24-.06a8.73,8.73,0,0,1-.24-2.06C343.61,73.4,345.43,63.49,348.19,56.76Z"/><path class="cls-32" d="M327.61,68.1A91.89,91.89,0,0,1,330,52.16h0a41.38,41.38,0,0,0-2.2-5.77A86.69,86.69,0,0,0,325,56.16a91.89,91.89,0,0,0-2.36,15.94v0a2,2,0,0,1-3.28,1.59,5.51,5.51,0,0,1-1.72-2.57c-.76-7.68,3.18-20.65,5.06-26.27a4,4,0,0,1,2.13-2.36,2.24,2.24,0,0,0-1.19-.37c-5.52,0-10,23.74-10,29.52a10.38,10.38,0,0,0,8,10.27,9.36,9.36,0,0,0,2,.21,9.5,9.5,0,0,0,2-.21,8.54,8.54,0,0,0,1.22-.36,10,10,0,0,0,5-4A12.47,12.47,0,0,1,327.61,68.1Z"/><path class="cls-33" d="M354.5,51.48a2,2,0,0,0-.55,2.78,9.1,9.1,0,0,1,.49.83,2,2,0,0,0,3.68-.36,12.71,12.71,0,0,0-2.41-3.57A2,2,0,0,0,354.5,51.48Z"/><path class="cls-33" d="M357.58,57.23a2,2,0,0,0-1.34,2.5,107.71,107.71,0,0,1,3,14.7,2,2,0,0,0,2,1.72l.29,0a2,2,0,0,0,1.7-2.26c-.29-2-.77-5.13-1.44-8.42a67.53,67.53,0,0,0-2.43-7.9A2,2,0,0,0,357.58,57.23Z"/><path class="cls-30" d="M338.64,40.89a19.24,19.24,0,0,0,1,3.34,40.82,40.82,0,0,0,1.15,4,1.87,1.87,0,0,0,3.5.33,3.94,3.94,0,0,0,.35-1.88,14.5,14.5,0,0,0-.77-4.63,5.35,5.35,0,0,0-1.22-2.15,4.26,4.26,0,0,0-2.81-1.26C338.6,38.77,338.56,40.26,338.64,40.89Z"/><text class="cls-34" transform="translate(365.85 71.43) scale(0.89 1)">x 100K</text><text class="cls-35" transform="translate(137.12 534.67)">Pl<tspan class="cls-36" x="25.96" y="0">a</tspan><tspan class="cls-37" x="41.24" y="0">tinum </tspan><tspan class="cls-38" x="128.93" y="0">T</tspan><tspan class="cls-39" x="144.31" y="0">r</tspan><tspan x="156.1" y="0">ee</tspan></text><text class="cls-40" transform="translate(440.82 552.64) rotate(-90)">Next<tspan class="cls-41" x="45.69" y="0">r</tspan><tspan x="54.51" y="0">ee</tspan></text><text class="cls-40" transform="translate(15.77 158.93) rotate(-90)">Next<tspan class="cls-41" x="45.69" y="0">r</tspan><tspan x="54.51" y="0">ee</tspan></text><rect class="cls-42" x="55.2" y="99.76" width="51.79" height="3.7"/><polygon class="cls-43" points="55.2 99.76 55.2 107.15 38.55 107.15 42.25 101.61 38.55 96.06 49.65 96.06 49.65 99.76 55.2 99.76"/><polygon class="cls-43" points="123.63 96.06 119.93 101.61 123.63 107.15 106.98 107.15 106.98 99.76 112.53 99.76 112.53 96.06 123.63 96.06"/><polygon class="cls-44" points="99.59 37.33 99.59 53.52 62.59 53.52 62.59 37.33 73.69 42.42 81.09 35.02 88.49 42.42 99.59 37.33"/><path class="cls-45" d="M53.35,64.61l3.42,19.72-5.61-3.51A11.13,11.13,0,0,1,46,71.4V67.54a11,11,0,0,1-3.7-8.25V52.87a11,11,0,0,1-3.7-8.25V35l9.84,3.68A11.16,11.16,0,0,1,55,45.6l3.7,11.13Z"/><path class="cls-45" d="M119.93,52.87v6.42a11,11,0,0,1-3.7,8.25V71.4A11.13,11.13,0,0,1,111,80.82l-5.61,3.51,3.42-19.72-5.38-7.88,3.7-11.13a11.16,11.16,0,0,1,6.64-6.9L123.63,35v9.6A11,11,0,0,1,119.93,52.87Z"/><polygon class="cls-46" points="58.73 56.73 60.84 53.68 64.44 60.91 60.74 66.46 53.35 64.61 58.73 56.73"/><polygon class="cls-47" points="56.77 84.33 53.35 64.61 60.74 66.46 66.29 103.45 60.74 107.15 56.77 84.33"/><polygon class="cls-48" points="103.45 56.73 108.83 64.61 101.44 66.46 97.74 60.91 101.34 53.68 103.45 56.73"/><polygon class="cls-47" points="105.41 84.33 101.44 107.15 95.89 103.45 101.44 66.46 108.83 64.61 105.41 84.33"/><polygon class="cls-47" points="101.34 53.68 97.74 60.91 64.44 60.91 60.84 53.68 60.95 53.52 101.23 53.52 101.34 53.68"/><polygon class="cls-49" points="97.74 60.91 101.44 66.46 95.89 103.45 81.09 112.7 66.29 103.45 60.74 66.46 64.44 60.91 97.74 60.91"/><path class="cls-21" d="M97.74,60.91H64.54A35,35,0,0,0,97.29,94.09l4.15-27.63Z"/><polygon class="cls-44" points="112.53 96.06 112.53 99.76 106.98 99.76 102.73 99.76 96.44 99.76 65.74 99.76 59.45 99.76 55.2 99.76 49.65 99.76 49.65 96.06 49.65 88.66 57.53 88.66 64.07 88.66 98.11 88.66 104.65 88.66 112.53 88.66 112.53 96.06"/><polygon class="cls-50" points="66.29 103.45 60.74 107.15 81.09 120.1 81.09 112.7 66.29 103.45"/><polygon class="cls-48" points="81.09 112.7 81.09 120.1 101.44 107.15 95.89 103.45 81.09 112.7"/><polygon class="cls-51" points="112.53 96.06 112.53 99.76 106.98 99.76 106.98 101.61 119.93 101.61 123.63 96.06 112.53 96.06"/><polygon class="cls-51" points="49.65 96.06 49.65 99.76 55.2 99.76 55.2 101.61 42.25 101.61 38.55 96.06 49.65 96.06"/><rect class="cls-52" x="51.5" y="90.51" width="59.19" height="7.4"/><path class="cls-52" d="M88.49,42.42,81.09,35l-7.4,7.4-11.1-5.09v5.55l8.76,4a3.7,3.7,0,0,0,4.16-.74l5.58-5.58,5.58,5.58a3.7,3.7,0,0,0,4.16.74l8.76-4V37.33Z"/><rect class="cls-53" x="62.59" y="51.67" width="36.99" height="1.85"/><path class="cls-54" d="M51.5,71.4V67.54a11,11,0,0,1-3.7-8.25V52.87a11,11,0,0,1-3.7-8.25V37.09L38.55,35v9.6a11,11,0,0,0,3.7,8.25v6.42A11,11,0,0,0,46,67.54V71.4a11.13,11.13,0,0,0,5.21,9.42l5.61,3.51-.69-4A11.08,11.08,0,0,1,51.5,71.4Z"/><path class="cls-54" d="M118.08,37.09v9.38a11,11,0,0,1-3.7,8.25v6.42a11,11,0,0,1-3.7,8.25v3.86a11.06,11.06,0,0,1-5,9.22l-.32,1.86L111,80.82a11.13,11.13,0,0,0,5.21-9.42V67.54a11,11,0,0,0,3.7-8.25V52.87a11,11,0,0,0,3.7-8.25V35Z"/><polygon class="cls-50" points="66.29 103.45 65.74 99.76 59.45 99.76 60.1 103.45 65.74 103.45 66.29 103.45"/><polygon class="cls-50" points="96.44 99.76 95.89 103.45 96.44 103.45 102.08 103.45 102.72 99.76 96.44 99.76"/><polygon class="cls-47" points="65.74 99.76 65.74 99.76 66.29 103.45 95.89 103.45 96.44 99.76 96.44 99.76 65.74 99.76"/><polygon class="cls-55" points="116.23 96.06 116.23 101.61 110.68 101.61 110.68 107.15 106.98 107.15 106.98 99.76 112.53 99.76 112.53 96.06 116.23 96.06"/><polygon class="cls-55" points="45.95 96.06 45.95 101.61 51.5 101.61 51.5 107.15 55.2 107.15 55.2 99.76 49.65 99.76 49.65 96.06 45.95 96.06"/><path class="cls-53" d="M63.52,89.58a.93.93,0,0,0,.92.93H92.19a.93.93,0,0,0,0-1.85H64.44A.92.92,0,0,0,63.52,89.58Z"/><path class="cls-53" d="M95,89.58a.93.93,0,0,0,.93.93h1.85a.93.93,0,0,0,0-1.85H95.89A.93.93,0,0,0,95,89.58Z"/><rect class="cls-53" x="55.2" y="97.91" width="11.1" height="1.85" rx="0.92"/><rect class="cls-53" x="68.14" y="97.91" width="3.7" height="1.85" rx="0.92"/><ellipse class="cls-56" cx="93.45" cy="67.75" rx="3.04" ry="4.23" transform="translate(-20.53 85.96) rotate(-45.02)"/><ellipse class="cls-56" cx="95.3" cy="75.17" rx="1.53" ry="2.12" transform="translate(-25.24 89.44) rotate(-45.02)"/><ellipse class="cls-56" cx="74.48" cy="79.8" rx="0.76" ry="1.06" transform="translate(-34.61 76.08) rotate(-45.02)"/><rect x="88.49" y="86.81" width="3.7" height="3.7"/><path d="M125.26,95.18a1.85,1.85,0,0,0-1.63-1h-9.25V88.66a1.85,1.85,0,0,0-1.85-1.85h-5.68l3.81-21.88a1.87,1.87,0,0,0-.3-1.36l-7.6-11.1a1.87,1.87,0,0,0-1.32-.78V37.33a1.85,1.85,0,0,0-2.62-1.68L88.89,40.2,82.4,33.71a1.86,1.86,0,0,0-2.62,0L73.29,40.2l-9.93-4.55a1.89,1.89,0,0,0-1.77.12,1.87,1.87,0,0,0-.85,1.56V51.69a1.87,1.87,0,0,0-1.32.78l-7.6,11.1a1.87,1.87,0,0,0-.3,1.36l3.81,21.88H49.65a1.85,1.85,0,0,0-1.85,1.85v5.55H38.55A1.85,1.85,0,0,0,37,97.08l3,4.53-3,4.52A1.85,1.85,0,0,0,38.55,109H55.2A1.84,1.84,0,0,0,57,107.15v-5.54h7.4v-3.7H51.5v-7.4H84.79v-3.7H59.08L55.65,67.1,59.1,68l1.48,9.87,3.66-.54-1.56-10.4,2.75-4.13H96.75l2.75,4.13L96.83,84.68l3.66.55L103.08,68l3.45-.86L103.1,86.81H95.89v3.7h14.79v7.4H68.14v3.7H95.9a1.77,1.77,0,0,0-1,.28l-13.82,8.63-13.82-8.63a1.82,1.82,0,0,0-2,0l-5.55,3.7a1.84,1.84,0,0,0,0,3.1L80.1,121.66a1.76,1.76,0,0,0,1,.29,1.78,1.78,0,0,0,1-.29l20.35-12.94a1.84,1.84,0,0,0,0-3.1l-5.55-3.7a1.71,1.71,0,0,0-1-.31h9.21v5.54A1.85,1.85,0,0,0,107,109h16.65a1.85,1.85,0,0,0,1.54-2.87l-3-4.52,3-4.53A1.85,1.85,0,0,0,125.26,95.18Zm-71.91,6.43v3.69H42l1.79-2.67a1.86,1.86,0,0,0,0-2L42,97.91h5.8v1.85a1.85,1.85,0,0,0,1.85,1.85ZM72.92,44.1A1.86,1.86,0,0,0,75,43.73l6.09-6.1,6.09,6.1a1.87,1.87,0,0,0,2.08.37l8.48-3.89V51.67H71.84v3.69h26.6l-1.85,3.7h-31l-1.85-3.7h4.4V51.67h-3.7V40.21ZM56.37,63.46l4.21-6.13,1.73,3.45-2.38,3.57Zm43.5-2.68,1.73-3.45,4.21,6.13-3.56.89ZM66.33,105.66l12.91,8.07v3l-15.11-9.61Zm31.72,1.46-15.11,9.61v-3l12.91-8.07Zm20.34-4.49,1.78,2.67H108.83v-3.69h3.7a1.85,1.85,0,0,0,1.85-1.85V97.91h5.79l-1.78,2.67A1.86,1.86,0,0,0,118.39,102.63Z"/><rect x="61.39" y="81.24" width="3.7" height="3.74" transform="translate(-11.64 10.31) rotate(-8.54)"/><path d="M124.68,33.5a1.81,1.81,0,0,0-1.7-.21L113.14,37a12.88,12.88,0,0,0-7.73,8l-2,6.07,3.51,1.17,2-6.07a9.26,9.26,0,0,1,5.53-5.74l7.34-2.75v6.93a9.2,9.2,0,0,1-3.33,7.1l-7.1,5.92,2.37,2.85,4.36-3.64v2.43a9.19,9.19,0,0,1-3.47,7.22l-2.77,2.22,2.31,2.89.23-.19A9.19,9.19,0,0,1,110,79.25l2,3.14a12.87,12.87,0,0,0,6.08-11V68.34a12.86,12.86,0,0,0,3.7-9.06V53.67a12.91,12.91,0,0,0,3.7-9.05V35A1.85,1.85,0,0,0,124.68,33.5Z"/><path d="M40.4,53.67v5.61a12.86,12.86,0,0,0,3.7,9.06v3.07a12.87,12.87,0,0,0,6.08,11l2-3.14a9.17,9.17,0,0,1-4.34-7.83l.69.56,2.31-2.89L47.57,66.5a9.19,9.19,0,0,1-3.47-7.22V56.85l4.36,3.64,2.37-2.85-7.1-5.92a9.2,9.2,0,0,1-3.33-7.1V37.69l7.34,2.75a9.26,9.26,0,0,1,5.53,5.74l2,6.06,3.51-1.17-2-6.06A12.88,12.88,0,0,0,49,37L39.2,33.29a1.83,1.83,0,0,0-1.71.21A1.87,1.87,0,0,0,36.7,35v9.6A12.91,12.91,0,0,0,40.4,53.67Z"/><text class="cls-57" transform="translate(67.29 95.04)">pl<tspan class="cls-58" x="5.8" y="0">a</tspan><tspan class="cls-59" x="9.31" y="0">tinum</tspan></text><path class="cls-60" d="M196.06,376.34l-20.94-9a7.64,7.64,0,0,1-4.6-7V357.8l-.08-.38a19,19,0,0,0,11.48-7.22l.34-.73a25.31,25.31,0,0,0,11.1,4.22l0,.31v11.55A22.72,22.72,0,0,0,196.06,376.34Z"/><path class="cls-60" d="M227.52,364.29V373l-10.68,3.57-3.72-1.6a7.64,7.64,0,0,1-4.6-7V351.41A26.29,26.29,0,0,0,211,350,26.8,26.8,0,0,0,227.52,364.29Z"/><path class="cls-60" d="M235.12,365.4a26.38,26.38,0,0,0,18.77-7.79l.23.19v13.87a7.59,7.59,0,0,1-4.79,7l-14.21,5.7-18.28-7.83L227.52,373v-8.71A26.36,26.36,0,0,0,235.12,365.4Z"/><path class="cls-60" d="M284.52,339.86v17a7.61,7.61,0,0,1-4.22,6.81l-11,5.51v-19l-.27-.88A30.18,30.18,0,0,0,284.52,339.86Z"/><path class="cls-24" d="M269.32,350.2v21A22.81,22.81,0,0,1,257.84,391l-15.12,8.63-7.6-15.2,14.21-5.7a7.59,7.59,0,0,0,4.79-7V357.8l-.23-.19a26.12,26.12,0,0,0,5.28-7.53c.84,0,1.68.12,2.55.12a30.91,30.91,0,0,0,7.33-.88Z"/><path class="cls-24" d="M216.84,376.57l18.28,7.83,7.6,15.2,7.6,19h-30.4V392l-12.77-5.48a22.94,22.94,0,0,1-13.83-21V354l0-.31a20.16,20.16,0,0,0,3.76.31,26.59,26.59,0,0,0,11.4-2.59V368a7.64,7.64,0,0,0,4.6,7Z"/><path class="cls-61" d="M208.06,288.07a22.94,22.94,0,0,0-6.84,13.07,29.19,29.19,0,0,0-4.1-.34,26.61,26.61,0,0,0-14.86,48.67l-.34.73a19,19,0,0,1-11.48,7.22,17.52,17.52,0,0,1-3.72.38A19,19,0,0,1,149,345.48a15.59,15.59,0,0,1-5.05.92,15.2,15.2,0,0,1-15.2-15.2c0-.54.11-1,.15-1.52a19,19,0,0,1,0-35c0-.5-.15-1-.15-1.52a18.86,18.86,0,0,1,27.63-16.84,15.21,15.21,0,0,1,14.17-9.76l.3,0a26.54,26.54,0,0,0,26.3,22.84,27,27,0,0,0,10.07-2A7.87,7.87,0,0,0,208.06,288.07Z"/><path class="cls-62" d="M303.52,240a26.51,26.51,0,0,1-9.84,20.63,26.19,26.19,0,0,0-9.16-1.63,26.58,26.58,0,0,0-26.6,26.6,28.31,28.31,0,0,0,.34,4,30,30,0,0,0-13.94,5.25,22.74,22.74,0,0,0-36.26-6.8,7.87,7.87,0,0,1-.87-.65,27,27,0,0,1-10.07,2,26.54,26.54,0,0,1-26.3-22.84,21.13,21.13,0,0,1-.3-3.76,25.62,25.62,0,0,1,.3-3.84c-.11,0-.19,0-.3,0a19,19,0,1,1,0-38c.15,0,.27,0,.38,0a20.9,20.9,0,0,1-.38-3.83,19,19,0,0,1,19-19,18.68,18.68,0,0,1,7.56,1.59A26.56,26.56,0,0,1,232.46,190a26.55,26.55,0,0,1,44.46,19.65,24.88,24.88,0,0,1-.3,3.8h.3A26.58,26.58,0,0,1,303.52,240Z"/><path class="cls-63" d="M227.52,364.29A26.8,26.8,0,0,1,211,350a26.29,26.29,0,0,1-2.51,1.37,26.59,26.59,0,0,1-11.4,2.59,20.16,20.16,0,0,1-3.76-.31,25.31,25.31,0,0,1-11.1-4.22,26.61,26.61,0,0,1,14.86-48.67,29.19,29.19,0,0,1,4.1.34,22.94,22.94,0,0,1,6.84-13.07,22.74,22.74,0,0,1,36.26,6.8,30,30,0,0,1,13.94-5.25,28.31,28.31,0,0,1-.34-4,26.58,26.58,0,0,1,26.6-26.6,26.19,26.19,0,0,1,9.16,1.63,17.21,17.21,0,0,1,1.94.8,20.92,20.92,0,0,1,30.7,18.47A21,21,0,0,1,322.48,292a26.58,26.58,0,1,1-32.79,39.75,30.68,30.68,0,0,1-5.17,8.13,30.18,30.18,0,0,1-15.47,9.46,30.91,30.91,0,0,1-7.33.88c-.87,0-1.71-.08-2.55-.12a26.12,26.12,0,0,1-5.28,7.53,26.53,26.53,0,0,1-26.37,6.68Z"/><path class="cls-64" d="M311.12,323.6a26.58,26.58,0,0,1-21.43-10.87,30.68,30.68,0,0,1-5.17,8.13,30.18,30.18,0,0,1-15.47,9.46,30.91,30.91,0,0,1-7.33.88c-.87,0-1.71-.08-2.55-.12a26.12,26.12,0,0,1-5.28,7.53,26.53,26.53,0,0,1-26.37,6.68A26.8,26.8,0,0,1,211,331a26.29,26.29,0,0,1-2.51,1.37,26.59,26.59,0,0,1-11.4,2.59,20.16,20.16,0,0,1-3.76-.31,25.31,25.31,0,0,1-11.1-4.22,26.58,26.58,0,0,1-10-12.55,26.56,26.56,0,0,0,10,31.55,25.31,25.31,0,0,0,11.1,4.22,20.16,20.16,0,0,0,3.76.31,26.59,26.59,0,0,0,11.4-2.59A26.29,26.29,0,0,0,211,350a26.8,26.8,0,0,0,16.49,14.25,26.58,26.58,0,0,0,31.65-14.21c.84,0,1.68.12,2.55.12a30.91,30.91,0,0,0,7.33-.88,30.18,30.18,0,0,0,15.47-9.46,30.68,30.68,0,0,0,5.17-8.13,26.59,26.59,0,0,0,48-15.73,26.16,26.16,0,0,0-1.8-9.44A26.56,26.56,0,0,1,311.12,323.6Z"/><path class="cls-62" d="M322.57,292l-.17,0c-1,10.23-10.53,18.25-22.25,18.25a23.29,23.29,0,0,1-18-8.16,22.82,22.82,0,0,1-4.35,6.1,26,26,0,0,1-13,7.1,29,29,0,0,1-6.17.66c-.73,0-1.44-.06-2.14-.09a19.75,19.75,0,0,1-4.44,5.64,23.59,23.59,0,0,1-15.79,5.85,25,25,0,0,1-6.39-.83A22,22,0,0,1,216,315.88c-.67.37-1.37.71-2.11,1a24.75,24.75,0,0,1-9.58,1.94,19.39,19.39,0,0,1-3.17-.23,22.92,22.92,0,0,1-9.33-3.17A20.29,20.29,0,0,1,183,304.88a26.61,26.61,0,0,0-10.7,13,26.58,26.58,0,0,0,10,12.55,25.31,25.31,0,0,0,11.1,4.22,20.16,20.16,0,0,0,3.76.31,26.59,26.59,0,0,0,11.4-2.59A26.29,26.29,0,0,0,211,331a26.8,26.8,0,0,0,16.49,14.25,26.58,26.58,0,0,0,31.65-14.21c.84,0,1.68.12,2.55.12a30.91,30.91,0,0,0,7.33-.88,30.18,30.18,0,0,0,15.47-9.46,30.68,30.68,0,0,0,5.17-8.13,26.57,26.57,0,0,0,46.22-6.14A26.51,26.51,0,0,0,322.57,292Z"/><path class="cls-65" d="M196.06,376.34a22.67,22.67,0,0,1-2-5l-17.45-7.47a3.85,3.85,0,0,1-2.32-3.51v-4.22a18.93,18.93,0,0,1-3.88,1.26,17.52,17.52,0,0,1-3.72.38v2.58a11.45,11.45,0,0,0,6.9,10.48l20.94,9a3.87,3.87,0,0,0,1.3.31l2.95.15A22.51,22.51,0,0,1,196.06,376.34Z"/><path class="cls-65" d="M223.72,362.78v7.48L215.64,373a3.78,3.78,0,0,0-2.28,2.11l3.48,1.49,5.26,2.25,6.63-2.22a3.8,3.8,0,0,0,2.59-3.6v-7.88a25.73,25.73,0,0,1-3.8-.83A25.06,25.06,0,0,1,223.72,362.78Z"/><path class="cls-65" d="M288.22,334.5a30.59,30.59,0,0,1-3.7,5.36,30.9,30.9,0,0,1-3.8,3.61v13.41a3.8,3.8,0,0,1-2.12,3.41l-9.28,4.65v6.23c0,.62-.07,1.22-.12,1.83h.12a3.74,3.74,0,0,0,1.7-.41l11-5.51a11.34,11.34,0,0,0,6.32-10.2V335A4,4,0,0,0,288.22,334.5Z"/><path class="cls-22" d="M241.35,411a7.6,7.6,0,0,1-7.45-6.11L231.32,392l-27.48-13.74a5.3,5.3,0,0,1-2.92-4.73v-2.85a5.28,5.28,0,0,1,5.28-5.28h2.32v-14a26.59,26.59,0,0,1-11.4,2.59,20.16,20.16,0,0,1-3.76-.31l0,.31v11.55a22.94,22.94,0,0,0,13.83,21L219.92,392v26.6h30.4l-3-7.6Z"/><path class="cls-22" d="M269.05,349.32a30.91,30.91,0,0,1-7.33.88c-.87,0-1.71-.08-2.55-.12a26.12,26.12,0,0,1-5.28,7.53l.23.19v13.87a7.59,7.59,0,0,1-4.79,7l-14.21,5.7,7.6,15.2,8.26-4.72-.47-.7a7.6,7.6,0,0,1,1.76-10.3l4.89-3.66a11.42,11.42,0,0,0,4.56-9.12v-5.7a7.6,7.6,0,0,1,7.6-7.6v-7.6Z"/><path class="cls-66" d="M305.42,259a20.77,20.77,0,0,0-9.8,2.43,17.21,17.21,0,0,0-1.94-.8,26.19,26.19,0,0,0-9.16-1.63,26.58,26.58,0,0,0-26.6,26.6,28.31,28.31,0,0,0,.34,4,30,30,0,0,0-13.94,5.25,22.77,22.77,0,0,0-43.1,6.27l-.3,0v11.4l.3,0a22.94,22.94,0,0,1,6.84-13.07,22.74,22.74,0,0,1,36.26,6.8A30,30,0,0,1,258.26,301a28.31,28.31,0,0,1-.34-4,26.58,26.58,0,0,1,26.6-26.6,26.19,26.19,0,0,1,9.16,1.63,17.21,17.21,0,0,1,1.94.8,20.91,20.91,0,0,1,29.88,12.69A20.74,20.74,0,0,0,305.42,259Z"/><path class="cls-64" d="M273.43,249.1a35.27,35.27,0,0,0-54.12,15.33c.14-5.11-5.46-8.38-10.45-9.52a42,42,0,0,0-23.68,1.51c-1.74.63-3.3,1.56-5.08,1.81-1.95.28-4,0-5.95.38a27.43,27.43,0,0,0-3.36.82,25.11,25.11,0,0,0-.27,3.37,21.13,21.13,0,0,0,.3,3.76,26.54,26.54,0,0,0,26.3,22.84,27,27,0,0,0,10.07-2,7.87,7.87,0,0,0,.87.65,22.74,22.74,0,0,1,36.26,6.8,30,30,0,0,1,13.94-5.25,28.31,28.31,0,0,1-.34-4,26.58,26.58,0,0,1,26.6-26.6,26.19,26.19,0,0,1,9.16,1.63,26.54,26.54,0,0,0,9.41-16.08C293.33,240.78,281.44,242.25,273.43,249.1Z"/><path class="cls-67" d="M296.25,221.75c-1.25,0-2.51-.06-3.76,0-8.19.56-16.52,3.53-22,9.66a28.31,28.31,0,0,0-41.45,1.65,26,26,0,0,0-38.8,6.41,21.35,21.35,0,0,0-15.54-5,31.92,31.92,0,0,0-15.6,5.65,42.71,42.71,0,0,0-6.61,5.62,18.94,18.94,0,0,0,18,13.27c.11,0,.19,0,.3,0,0,.15,0,.31,0,.47a27.43,27.43,0,0,1,3.36-.82c2-.34,4-.1,5.95-.38,1.78-.25,3.34-1.18,5.08-1.81a42,42,0,0,1,23.68-1.51c5,1.14,10.59,4.41,10.45,9.52a35.27,35.27,0,0,1,54.12-15.33c8-6.85,19.9-8.32,29.66-4.55a27.4,27.4,0,0,0,.43-4.55A26.46,26.46,0,0,0,296.25,221.75Z"/><path class="cls-68" d="M136.63,334.38c.12-.66,2.74-10.2,3.12-10.13a8.8,8.8,0,0,1-5.09-3.42,14.52,14.52,0,0,1-2.42-13.77,13,13,0,0,1,4.37-5.84,12.77,12.77,0,0,1,3.21-1.78c.76-.28,3.11-.41,3.37-1.08s-1.62-3.25-1.92-3.89a34.62,34.62,0,0,1-1.74-4.61,24.25,24.25,0,0,1-1-9.65,19.22,19.22,0,0,1,.94-4.07,19,19,0,0,0-10.77,17.06c0,.53.11,1,.15,1.52a19,19,0,0,0,0,35c0,.49-.15,1-.15,1.52A15.15,15.15,0,0,0,136,344.1,36.1,36.1,0,0,1,136.63,334.38Z"/><path class="cls-69" d="M207.19,287.42a27,27,0,0,1-10.07,2,26.54,26.54,0,0,1-26.3-22.84l-.3,0a15.2,15.2,0,0,0-14,9.43c1.19,3.9,2.74,7.7,4.29,11.48.5,1.23,1,2.46,1.61,3.65a22,22,0,0,0,3.68,5.53,30.8,30.8,0,0,0-4.25,3.3,22.26,22.26,0,0,0-3.34,4.32A26.62,26.62,0,0,0,155,314.58c-.92,7.21.8,14.55,3.61,21.25a21.48,21.48,0,0,0-8.81,11.34,19,19,0,0,0,17,10.63,17.52,17.52,0,0,0,3.72-.38,19,19,0,0,0,11.48-7.22l.34-.73a26.61,26.61,0,0,1,14.86-48.67,29.19,29.19,0,0,1,4.1.34,22.94,22.94,0,0,1,6.84-13.07A7.87,7.87,0,0,1,207.19,287.42Z"/><path class="cls-61" d="M158.57,335.83c-2.81-6.7-4.53-14-3.61-21.25a26.62,26.62,0,0,1,3.53-10.27,22.26,22.26,0,0,1,3.34-4.32,30.8,30.8,0,0,1,4.25-3.3,22,22,0,0,1-3.68-5.53c-.6-1.19-1.11-2.42-1.61-3.65-1.55-3.78-3.1-7.58-4.29-11.48,0,.11-.11.22-.15.33a18.37,18.37,0,0,0-16.86-.22,19.22,19.22,0,0,0-.94,4.07,24.25,24.25,0,0,0,1,9.65,34.62,34.62,0,0,0,1.74,4.61c.3.64,2.16,3.29,1.92,3.89s-2.61.8-3.37,1.08a12.77,12.77,0,0,0-3.21,1.78,13,13,0,0,0-4.37,5.84,14.52,14.52,0,0,0,2.42,13.77,8.8,8.8,0,0,0,5.09,3.42c-.38-.07-3,9.47-3.12,10.13a36.1,36.1,0,0,0-.67,9.72,15.11,15.11,0,0,0,8,2.3,15.59,15.59,0,0,0,5.05-.92c.23.59.52,1.14.79,1.69A21.48,21.48,0,0,1,158.57,335.83Z"/><path class="cls-63" d="M159.11,240.11A34.2,34.2,0,0,1,170.64,235a19,19,0,0,1,18.88-17.84,18.68,18.68,0,0,1,7.56,1.59A26.56,26.56,0,0,1,232.46,209a26.53,26.53,0,0,1,41.4,7.27c1.87-1.65,3.06-2.82,3.06-2.82h-.3a24.88,24.88,0,0,0,.3-3.8A26.55,26.55,0,0,0,232.46,190a26.56,26.56,0,0,0-35.38,9.84,18.68,18.68,0,0,0-7.56-1.59,19,19,0,0,0-19,19,20.9,20.9,0,0,0,.38,3.83c-.11,0-.23,0-.38,0a19,19,0,0,0-19,19,18.45,18.45,0,0,0,2,8.21,17.89,17.89,0,0,1-1-2.48A42.71,42.71,0,0,1,159.11,240.11Z"/><path class="cls-70" d="M303.52,224.8a11.4,11.4,0,1,1,0,22.8l-1.06-.27a24.71,24.71,0,0,0,1.06-7.33,26.36,26.36,0,0,0-4.18-14.33l.38-.23A11.35,11.35,0,0,1,303.52,224.8Z"/><path class="cls-70" d="M189.22,288.22l-.35,1.18a11.4,11.4,0,1,1-15.31-14.22A26.68,26.68,0,0,0,189.22,288.22Z"/><path class="cls-70" d="M138.56,305.39l-.07-.83c5.13-.15,9.23-5.17,9.23-11.36,0,5.92,3.72,10.75,8.51,11.32v.08a11.4,11.4,0,1,1-17.67.79Z"/><path class="cls-70" d="M149,345.48a18.9,18.9,0,0,0,8.82,10,11.39,11.39,0,0,1-21.47-5.32,11.54,11.54,0,0,1,1.25-5.21,15,15,0,0,0,6.35,1.41A15.59,15.59,0,0,0,149,345.48Z"/><path class="cls-70" d="M318.07,342.6a11.4,11.4,0,1,1-22.15,3.8,11.17,11.17,0,0,1,2.47-7.07,26.08,26.08,0,0,0,12.73,3.27,26.37,26.37,0,0,0,6.73-.88Z"/><circle class="cls-70" cx="189.52" cy="247.6" r="11.4"/><circle class="cls-70" cx="212.32" cy="213.4" r="11.4"/><circle class="cls-70" cx="257.92" cy="232.4" r="11.4"/><circle class="cls-70" cx="238.92" cy="255.2" r="11.4"/><path class="cls-70" d="M294.36,305.39l-.07-.83c5.13-.15,9.23-5.17,9.23-11.36,0,5.92,3.72,10.75,8.51,11.32v.08a11.4,11.4,0,1,1-17.67.79Z"/><circle class="cls-70" cx="284.52" cy="281.8" r="11.4"/><circle class="cls-70" cx="204.72" cy="323.6" r="11.4"/><path class="cls-70" d="M226,335.79l-.07-.83c5.13-.15,9.23-5.17,9.23-11.36,0,5.92,3.72,10.75,8.51,11.32V335a11.4,11.4,0,1,1-17.67.79Z"/><path class="cls-69" d="M200.92,241.42a12.84,12.84,0,0,1-11.4-6.95,12.83,12.83,0,0,1-24.23-5.87,1.43,1.43,0,1,1,2.85,0,10,10,0,0,0,20,0,1.43,1.43,0,1,1,2.85,0,10,10,0,0,0,19.95,0,1.43,1.43,0,1,1,2.85,0A12.83,12.83,0,0,1,200.92,241.42Z"/><path class="cls-69" d="M267.42,226.22c-4.07,0-7.62-2.62-9.5-6.5-1.88,3.88-5.43,6.5-9.5,6.5-6,0-10.93-5.75-10.93-12.82a1.43,1.43,0,1,1,2.85,0c0,5.5,3.63,10,8.08,10s8.07-4.47,8.07-10a1.43,1.43,0,1,1,2.85,0c0,5.5,3.63,10,8.08,10,4.11,0,7.57-3.81,8-8.85a10.47,10.47,0,0,0,0-1.12,1.43,1.43,0,1,1,2.85,0c0,.46,0,.92,0,1.38C277.69,221.3,273,226.22,267.42,226.22Z"/><path class="cls-61" d="M313,306a9.26,9.26,0,0,1-1-.07,11,11,0,0,1-8.44-6.39,10.75,10.75,0,0,1-9.14,6.42,1.87,1.87,0,0,1-.37,0c-6,0-10.93-5.75-10.93-12.82a1.43,1.43,0,1,1,2.85,0c0,5.47,3.6,9.93,8,10l.28,0c4.33-.12,7.85-4.58,7.85-9.93a1.43,1.43,0,1,1,2.85,0c0,5.15,3.12,9.41,7.26,9.91.33,0,.56.06.82.06,4.45,0,8.07-4.47,8.07-10a1.43,1.43,0,1,1,2.85,0C323.94,300.27,319,306,313,306Z"/><path class="cls-61" d="M244.62,336.42a9.26,9.26,0,0,1-1.05-.07,11,11,0,0,1-8.44-6.39,10.75,10.75,0,0,1-9.14,6.42,1.87,1.87,0,0,1-.37,0c-6,0-10.93-5.75-10.93-12.82a1.43,1.43,0,1,1,2.85,0c0,5.47,3.6,9.93,8,10l.28,0c4.33-.12,7.85-4.58,7.85-9.93a1.43,1.43,0,1,1,2.85,0c0,5.15,3.12,9.41,7.26,9.91.33,0,.56.06.82.06,4.45,0,8.07-4.47,8.07-10a1.43,1.43,0,1,1,2.85,0C255.54,330.67,250.64,336.42,244.62,336.42Z"/><path class="cls-71" d="M166.72,291.77a1.43,1.43,0,0,0-1.43,1.43c0,5.5-3.62,10-8.07,10-.26,0-.49,0-.82-.06-4.14-.5-7.26-4.76-7.26-9.91a1.43,1.43,0,1,0-2.85,0c0,5.35-3.52,9.81-7.85,9.93l-.28,0c-4,0-7.38-3.71-7.95-8.56a2.26,2.26,0,0,0,0-.26l-2.67,1.34c1,5.93,5.48,10.33,10.69,10.33a1.87,1.87,0,0,0,.37,0,10.75,10.75,0,0,0,9.14-6.42,11,11,0,0,0,8.44,6.39,9.26,9.26,0,0,0,1.05.07c6,0,10.92-5.75,10.92-12.82A1.42,1.42,0,0,0,166.72,291.77Z"/><path class="cls-21" d="M284.52,285.6a11.34,11.34,0,0,1-10.7-7.6,11.14,11.14,0,0,0-.7,3.8,11.4,11.4,0,0,0,22.8,0,11.14,11.14,0,0,0-.7-3.8A11.34,11.34,0,0,1,284.52,285.6Z"/><path class="cls-21" d="M287.22,274.2a2.79,2.79,0,0,0-2,.64,2.39,2.39,0,0,0-.64,2.33,2.83,2.83,0,0,0,1.09,1.33l3.13,2.45c.71.56,1.58,1.14,2.34.68a2.76,2.76,0,0,0,.95-2.25A4.8,4.8,0,0,0,287.22,274.2Z"/><path class="cls-21" d="M238.92,259a11.36,11.36,0,0,1-10.71-7.6,11.38,11.38,0,1,0,22.11,3.8,11.14,11.14,0,0,0-.7-3.8A11.34,11.34,0,0,1,238.92,259Z"/><path class="cls-21" d="M241.62,247.6a2.79,2.79,0,0,0-2,.64,2.39,2.39,0,0,0-.64,2.33,2.83,2.83,0,0,0,1.09,1.33l3.13,2.45c.71.56,1.58,1.14,2.34.68a2.76,2.76,0,0,0,1-2.25A4.8,4.8,0,0,0,241.62,247.6Z"/><path class="cls-21" d="M257.92,236.2a11.36,11.36,0,0,1-10.71-7.6,11.38,11.38,0,1,0,22.11,3.8,11.1,11.1,0,0,0-.7-3.8A11.34,11.34,0,0,1,257.92,236.2Z"/><path class="cls-21" d="M260.62,224.8a2.79,2.79,0,0,0-2,.64,2.39,2.39,0,0,0-.64,2.33,2.83,2.83,0,0,0,1.09,1.33l3.13,2.45c.71.56,1.58,1.14,2.34.68a2.76,2.76,0,0,0,.95-2.25A4.8,4.8,0,0,0,260.62,224.8Z"/><path class="cls-21" d="M189.52,251.4a11.36,11.36,0,0,1-10.71-7.6,11.38,11.38,0,1,0,22.11,3.8,11.14,11.14,0,0,0-.7-3.8A11.34,11.34,0,0,1,189.52,251.4Z"/><path class="cls-21" d="M192.22,240a2.79,2.79,0,0,0-2,.64,2.39,2.39,0,0,0-.64,2.33,2.83,2.83,0,0,0,1.09,1.33l3.13,2.45c.71.56,1.58,1.14,2.34.68a2.76,2.76,0,0,0,1-2.25A4.8,4.8,0,0,0,192.22,240Z"/><path class="cls-21" d="M147.72,316A11.36,11.36,0,0,1,137,308.4a11.38,11.38,0,1,0,22.11,3.8,11.14,11.14,0,0,0-.7-3.8A11.34,11.34,0,0,1,147.72,316Z"/><path class="cls-21" d="M150.42,304.6a2.79,2.79,0,0,0-2,.64,2.39,2.39,0,0,0-.64,2.33,2.83,2.83,0,0,0,1.09,1.33l3.13,2.45c.71.56,1.58,1.14,2.34.68a2.76,2.76,0,0,0,.95-2.25A4.8,4.8,0,0,0,150.42,304.6Z"/><path class="cls-21" d="M212.32,217.2a11.36,11.36,0,0,1-10.71-7.6,11.38,11.38,0,1,0,22.11,3.8,11.1,11.1,0,0,0-.7-3.8A11.34,11.34,0,0,1,212.32,217.2Z"/><path class="cls-21" d="M215,205.8a2.79,2.79,0,0,0-2,.64,2.39,2.39,0,0,0-.64,2.33,2.83,2.83,0,0,0,1.09,1.33l3.13,2.45c.71.56,1.58,1.14,2.34.68a2.76,2.76,0,0,0,.95-2.25A4.79,4.79,0,0,0,215,205.8Z"/><path class="cls-21" d="M303.52,316a11.34,11.34,0,0,1-10.7-7.6,11.14,11.14,0,0,0-.7,3.8,11.4,11.4,0,0,0,22.8,0,11.14,11.14,0,0,0-.7-3.8A11.34,11.34,0,0,1,303.52,316Z"/><path class="cls-21" d="M306.22,304.6a2.79,2.79,0,0,0-2,.64,2.39,2.39,0,0,0-.64,2.33,2.83,2.83,0,0,0,1.09,1.33l3.13,2.45c.71.56,1.58,1.14,2.34.68a2.76,2.76,0,0,0,.95-2.25A4.8,4.8,0,0,0,306.22,304.6Z"/><path class="cls-21" d="M235.12,346.4a11.36,11.36,0,0,1-10.71-7.6,11.38,11.38,0,1,0,22.11,3.8,11.14,11.14,0,0,0-.7-3.8A11.34,11.34,0,0,1,235.12,346.4Z"/><path class="cls-21" d="M237.82,335a2.79,2.79,0,0,0-2,.64,2.39,2.39,0,0,0-.64,2.33,2.83,2.83,0,0,0,1.09,1.33l3.13,2.45c.71.56,1.58,1.14,2.34.68a2.76,2.76,0,0,0,.95-2.25A4.8,4.8,0,0,0,237.82,335Z"/><path class="cls-21" d="M204.72,327.4A11.36,11.36,0,0,1,194,319.8a11.38,11.38,0,1,0,22.11,3.8,11.14,11.14,0,0,0-.7-3.8A11.34,11.34,0,0,1,204.72,327.4Z"/><path class="cls-21" d="M207.42,316a2.79,2.79,0,0,0-2,.64,2.39,2.39,0,0,0-.64,2.33,2.83,2.83,0,0,0,1.09,1.33l3.13,2.45c.71.56,1.58,1.14,2.34.68a2.76,2.76,0,0,0,.95-2.25A4.8,4.8,0,0,0,207.42,316Z"/></svg>