<svg id="레이어_1" data-name="레이어 1" xmlns="http://www.w3.org/2000/svg" xmlns:xlink="http://www.w3.org/1999/xlink" viewBox="0 0 451.83 616.13"><defs><style>.cls-1{fill:url(#무제_그라디언트_87);}.cls-2{fill:url(#무제_그라디언트_26);}.cls-3{clip-path:url(#clip-path);}.cls-4{fill:url(#무제_그라디언트_78);}.cls-5{fill:url(#무제_그라디언트_78-2);}.cls-6{fill:url(#무제_그라디언트_78-3);}.cls-7{fill:url(#무제_그라디언트_78-4);}.cls-8{fill:url(#무제_그라디언트_78-5);}.cls-9{fill:url(#무제_그라디언트_78-6);}.cls-10{fill:url(#무제_그라디언트_78-7);}.cls-11{fill:url(#무제_그라디언트_78-8);}.cls-12{fill:url(#무제_그라디언트_78-9);}.cls-13{fill:url(#무제_그라디언트_78-10);}.cls-14{fill:url(#무제_그라디언트_78-11);}.cls-15{fill:url(#무제_그라디언트_78-12);}.cls-16{fill:url(#무제_그라디언트_78-13);}.cls-17{fill:url(#무제_그라디언트_78-14);}.cls-18{fill:url(#무제_그라디언트_78-15);}.cls-19{fill:url(#무제_그라디언트_78-16);}.cls-20{fill:url(#무제_그라디언트_78-17);}.cls-21{fill:#00bfd4;}.cls-22{fill:#714226;}.cls-23{fill:#7c4026;}.cls-24{fill:#9a6948;}.cls-25{fill:#004a2d;}.cls-26{fill:#009e60;}.cls-27{fill:#00e088;}.cls-28{fill:#422716;}.cls-29{fill:#59341e;}.cls-30{fill:#00c477;}.cls-31{fill:#007145;}.cls-32{fill:#003b24;}.cls-33{fill:#00ff9b;}.cls-34,.cls-39{font-size:19px;}.cls-34,.cls-35,.cls-39{font-family:Cafe24Ssurround, Cafe24 Ssurround;}.cls-35{font-size:25.42px;}.cls-35,.cls-39,.cls-50{fill:#fff;}.cls-36{letter-spacing:-0.06em;}.cls-37{letter-spacing:-0.03em;}.cls-38{letter-spacing:0em;}.cls-40{letter-spacing:-0.03em;}.cls-41{fill:#fb9881;}.cls-42{fill:#ffdf64;}.cls-43{fill:#f7f7ff;}.cls-44{fill:#a672f1;}.cls-45{fill:#ffb844;}.cls-46{fill:#8163ff;}.cls-47{fill:none;}.cls-48{fill:#ffb37d;}.cls-49{fill:#f6fafd;}.cls-51{fill:#752d25;}.cls-52{fill:#92563a;}.cls-53{fill:#4c6d00;}.cls-54{fill:#2b3d00;}.cls-55{fill:#3c5619;}.cls-56{fill:#6d9e00;}.cls-57{fill:#324d11;}.cls-58{fill:#1f2b00;}.cls-59{fill:#8eb33c;}.cls-60{fill:#537500;}.cls-61{fill:#405c00;}.cls-62{fill:#acd949;}</style><linearGradient id="무제_그라디언트_87" x1="22.52" y1="307.15" x2="429.31" y2="307.15" gradientTransform="translate(0 -32.83) scale(1 1.11)" gradientUnits="userSpaceOnUse"><stop offset="0" stop-color="#fff"/><stop offset="1" stop-color="#fff" stop-opacity="0.5"/></linearGradient><linearGradient id="무제_그라디언트_26" x1="28.53" y1="221.23" x2="430.35" y2="398" gradientUnits="userSpaceOnUse"><stop offset="0" stop-color="#15ff78"/><stop offset="0.12" stop-color="#16fe7c" stop-opacity="0.98"/><stop offset="0.26" stop-color="#1bfa88" stop-opacity="0.93"/><stop offset="0.41" stop-color="#22f59d" stop-opacity="0.84"/><stop offset="0.58" stop-color="#2bedb9" stop-opacity="0.72"/><stop offset="0.75" stop-color="#37e3dd" stop-opacity="0.57"/><stop offset="0.82" stop-color="#3ddeed" stop-opacity="0.5"/></linearGradient><clipPath id="clip-path"><rect class="cls-1" x="22.52" y="14.6" width="406.79" height="586.92" rx="32.28"/></clipPath><linearGradient id="무제_그라디언트_78" x1="10.14" y1="387.11" x2="407.5" y2="387.11" xlink:href="#무제_그라디언트_87"/><linearGradient id="무제_그라디언트_78-2" x1="10.14" y1="307.72" x2="443.82" y2="307.72" xlink:href="#무제_그라디언트_87"/><linearGradient id="무제_그라디언트_78-3" x1="10.14" y1="443.37" x2="294.98" y2="443.37" xlink:href="#무제_그라디언트_87"/><linearGradient id="무제_그라디언트_78-4" x1="10.14" y1="499.63" x2="182.46" y2="499.63" xlink:href="#무제_그라디언트_87"/><linearGradient id="무제_그라디언트_78-5" x1="272.09" y1="116.1" x2="443.82" y2="116.1" xlink:href="#무제_그라디언트_87"/><linearGradient id="무제_그라디언트_78-6" x1="159.58" y1="172.36" x2="443.82" y2="172.36" xlink:href="#무제_그라디언트_87"/><linearGradient id="무제_그라디언트_78-7" x1="223.48" y1="140.41" x2="443.82" y2="140.41" xlink:href="#무제_그라디언트_87"/><linearGradient id="무제_그라디언트_78-8" x1="384.61" y1="59.84" x2="443.82" y2="59.84" xlink:href="#무제_그라디언트_87"/><linearGradient id="무제_그라디언트_78-9" x1="336" y1="84.15" x2="443.82" y2="84.15" xlink:href="#무제_그라디언트_87"/><linearGradient id="무제_그라디언트_78-10" x1="110.97" y1="196.66" x2="443.82" y2="196.66" xlink:href="#무제_그라디언트_87"/><linearGradient id="무제_그라디언트_78-11" x1="10.14" y1="252.92" x2="443.82" y2="252.92" xlink:href="#무제_그라디언트_87"/><linearGradient id="무제_그라디언트_78-12" x1="10.14" y1="362.81" x2="443.82" y2="362.81" xlink:href="#무제_그라디언트_87"/><linearGradient id="무제_그라디언트_78-13" x1="10.14" y1="419.07" x2="343.59" y2="419.07" xlink:href="#무제_그라디언트_87"/><linearGradient id="무제_그라디언트_78-14" x1="10.14" y1="475.33" x2="231.07" y2="475.33" xlink:href="#무제_그라디언트_87"/><linearGradient id="무제_그라디언트_78-15" x1="10.14" y1="555.99" x2="69.95" y2="555.99" xlink:href="#무제_그라디언트_87"/><linearGradient id="무제_그라디언트_78-16" x1="10.14" y1="531.58" x2="118.56" y2="531.58" xlink:href="#무제_그라디언트_87"/><linearGradient id="무제_그라디언트_78-17" x1="47.06" y1="228.62" x2="443.82" y2="228.62" xlink:href="#무제_그라디언트_87"/></defs><rect class="cls-2" x="6.42" width="438.99" height="616.13" rx="24.51"/><g id="line"><rect class="cls-1" x="22.52" y="14.6" width="406.79" height="586.92" rx="32.28"/><g class="cls-3"><polygon class="cls-4" points="407.5 617.32 10.14 176.3 10.14 209.51 377.58 617.32 407.5 617.32"/><polygon class="cls-5" points="10.14 51.43 10.14 84.63 443.82 565.96 443.82 532.76 10.14 51.43"/><polygon class="cls-6" points="294.98 617.32 10.14 301.18 10.14 334.38 265.07 617.32 294.98 617.32"/><polygon class="cls-7" points="182.46 617.32 10.14 426.06 10.14 459.26 152.55 617.32 182.46 617.32"/><polygon class="cls-8" points="443.82 158.12 302.01 0.73 272.09 0.73 443.82 191.32 443.82 158.12"/><polygon class="cls-9" points="443.82 283 189.49 0.73 159.58 0.73 443.82 316.2 443.82 283"/><polygon class="cls-10" points="443.82 229.05 238.1 0.73 223.49 0.73 443.82 245.27 443.82 229.05"/><polygon class="cls-11" points="443.82 33.24 414.52 0.73 384.61 0.73 443.82 66.45 443.82 33.24"/><polygon class="cls-12" points="443.82 104.17 350.62 0.73 336 0.73 443.82 120.39 443.82 104.17"/><polygon class="cls-13" points="443.82 353.93 125.58 0.73 110.97 0.73 443.82 370.15 443.82 353.93"/><polygon class="cls-14" points="13.07 0.73 10.14 0.73 10.14 13.7 443.82 495.03 443.82 478.81 13.07 0.73"/><polygon class="cls-15" points="443.82 617.32 443.82 603.69 10.14 122.36 10.14 138.58 441.49 617.32 443.82 617.32"/><polygon class="cls-16" points="343.59 617.32 10.14 247.23 10.14 263.45 328.98 617.32 343.59 617.32"/><polygon class="cls-17" points="231.07 617.32 10.14 372.11 10.14 388.33 216.46 617.32 231.07 617.32"/><path class="cls-18" d="M46.1,617.32H70L10.14,550.94v33.2l30.09,33.4C42.18,617.41,44.14,617.32,46.1,617.32Z"/><polygon class="cls-19" points="118.56 617.32 10.14 496.99 10.14 513.21 103.94 617.32 118.56 617.32"/><polygon class="cls-20" points="443.82 407.88 76.97 0.73 47.06 0.73 443.82 441.08 443.82 407.88"/></g></g><rect class="cls-21" x="111.52" y="503.62" width="232.01" height="49.02" rx="16.43"/><path class="cls-22" d="M325.61,81.94V96.15h-4V81.94a9.36,9.36,0,0,0,2,.21A9.5,9.5,0,0,0,325.61,81.94Z"/><path class="cls-23" d="M340.61,80V96.15h-4V80a10.2,10.2,0,0,0,2,.2A11,11,0,0,0,340.61,80Z"/><path class="cls-24" d="M355.61,86.15v10h-4v-10l0-.18a10.87,10.87,0,0,0,3.94,0Z"/><path class="cls-25" d="M325.61,81.94a9.5,9.5,0,0,1-2,.21,9.36,9.36,0,0,1-2-.21,10.38,10.38,0,0,1-8-10.27c0-5.78,4.48-29.52,10-29.52,2.4,0,4.6,4.47,6.32,10h0a91.89,91.89,0,0,0-2.36,15.94,12.47,12.47,0,0,0,4.24,9.51A10,10,0,0,1,325.61,81.94Z"/><path class="cls-26" d="M343.61,76.72a8.73,8.73,0,0,0,.24,2.06l-.24.06a10.53,10.53,0,0,1-3,1.12,11,11,0,0,1-2,.19,10.2,10.2,0,0,1-2-.2,10.5,10.5,0,0,1-4.76-2.34,12.47,12.47,0,0,1-4.24-9.51A91.89,91.89,0,0,1,330,52.16c2-8.95,5.14-18,8.64-18,4.11,0,7.69,12.47,9.58,22.61C345.43,63.49,343.61,73.4,343.61,76.72Z"/><path class="cls-27" d="M348.19,56.76c1.56-3.81,3.42-6.61,5.42-6.61,5.52,0,10,21.36,10,26.57a9.6,9.6,0,0,1-8,9.25,10.87,10.87,0,0,1-3.94,0,9.77,9.77,0,0,1-7.79-7.19,8.73,8.73,0,0,1-.24-2.06C343.61,73.4,345.43,63.49,348.19,56.76Z"/><path class="cls-28" d="M323.61,82.15a9.36,9.36,0,0,1-2-.21V96.15h2v-10a2,2,0,0,1,2-2V81.94A9.5,9.5,0,0,1,323.61,82.15Z"/><path class="cls-22" d="M323.61,86.15v10h2v-12A2,2,0,0,0,323.61,86.15Z"/><path class="cls-23" d="M338.61,84.15v12h2v-14A2,2,0,0,0,338.61,84.15Z"/><path class="cls-29" d="M338.61,80.15a10.2,10.2,0,0,1-2-.2v16.2h2v-12a2,2,0,0,1,2-2V80A11,11,0,0,1,338.61,80.15Z"/><path class="cls-23" d="M355.58,86a10.87,10.87,0,0,1-3.94,0l0,.18v10h2v-6a2,2,0,0,1,2-2v-2Z"/><path class="cls-24" d="M353.61,90.15v6h2v-8A2,2,0,0,0,353.61,90.15Z"/><path class="cls-30" d="M348.61,74.15c0-7,2-16,3.14-20.72a4,4,0,0,1,3.06-2.94,2.54,2.54,0,0,0-1.2-.34c-2,0-3.86,2.8-5.42,6.61-2.76,6.73-4.58,16.64-4.58,20a8.73,8.73,0,0,0,.24,2.06A9.77,9.77,0,0,0,351.64,86a10.87,10.87,0,0,0,3.94,0,9.73,9.73,0,0,0,7.88-7.63C361.06,81.27,348.61,83.94,348.61,74.15Z"/><path class="cls-31" d="M348.19,56.76c-.49-2.68-1.11-5.52-1.83-8.24-1.52.87-2.94,3.24-4.17,6.24a64.4,64.4,0,0,0-2.78,8.9,3.91,3.91,0,0,1-7.7-.67c-.06-.88-.1-1.83-.1-2.84,0-8.29,4-18.85,5.94-23.55a4,4,0,0,1,2.18-2.15,2.44,2.44,0,0,0-1.12-.3c-3.5,0-6.62,9.06-8.64,18a91.89,91.89,0,0,0-2.36,15.94,12.47,12.47,0,0,0,4.24,9.51A10.5,10.5,0,0,0,336.61,80a10.2,10.2,0,0,0,2,.2c.28,0,.55,0,.83,0a11.33,11.33,0,0,0,1.17-.15,10.53,10.53,0,0,0,3-1.12l.24-.06a8.73,8.73,0,0,1-.24-2.06C343.61,73.4,345.43,63.49,348.19,56.76Z"/><path class="cls-32" d="M327.61,68.1A91.89,91.89,0,0,1,330,52.16h0a41.38,41.38,0,0,0-2.2-5.77A86.69,86.69,0,0,0,325,56.16a91.89,91.89,0,0,0-2.36,15.94v0a2,2,0,0,1-3.28,1.59,5.51,5.51,0,0,1-1.72-2.57c-.76-7.68,3.18-20.65,5.06-26.27a4,4,0,0,1,2.13-2.36,2.24,2.24,0,0,0-1.19-.37c-5.52,0-10,23.74-10,29.52a10.38,10.38,0,0,0,8,10.27,9.36,9.36,0,0,0,2,.21,9.5,9.5,0,0,0,2-.21,8.54,8.54,0,0,0,1.22-.36,10,10,0,0,0,5-4A12.47,12.47,0,0,1,327.61,68.1Z"/><path class="cls-33" d="M354.5,51.48a2,2,0,0,0-.55,2.78,9.1,9.1,0,0,1,.49.83,2,2,0,0,0,3.68-.36,12.71,12.71,0,0,0-2.41-3.57A2,2,0,0,0,354.5,51.48Z"/><path class="cls-33" d="M357.58,57.23a2,2,0,0,0-1.34,2.5,107.71,107.71,0,0,1,3,14.7,2,2,0,0,0,2,1.72l.29,0a2,2,0,0,0,1.7-2.26c-.29-2-.77-5.13-1.44-8.42a67.53,67.53,0,0,0-2.43-7.9A2,2,0,0,0,357.58,57.23Z"/><path class="cls-30" d="M338.64,40.89a19.24,19.24,0,0,0,1,3.34,40.82,40.82,0,0,0,1.15,4,1.87,1.87,0,0,0,3.5.33,3.94,3.94,0,0,0,.35-1.88,14.5,14.5,0,0,0-.77-4.63,5.35,5.35,0,0,0-1.22-2.15,4.26,4.26,0,0,0-2.81-1.26C338.6,38.77,338.56,40.26,338.64,40.89Z"/><text class="cls-34" transform="translate(371.35 74.04) scale(0.89 1)">x 1K</text><text class="cls-35" transform="translate(158.82 534.67)">Siver <tspan class="cls-36" x="75.56" y="0">T</tspan><tspan class="cls-37" x="90.94" y="0">r</tspan><tspan class="cls-38" x="102.74" y="0">ee</tspan></text><text class="cls-39" transform="translate(440.82 552.64) rotate(-90)">Next<tspan class="cls-40" x="45.69" y="0">r</tspan><tspan x="54.51" y="0">ee</tspan></text><text class="cls-39" transform="translate(15.77 158.93) rotate(-90)">Next<tspan class="cls-40" x="45.69" y="0">r</tspan><tspan x="54.51" y="0">ee</tspan></text><path class="cls-41" d="M67.63,53.29v7.58a69,69,0,0,1-17.55,2.48c-10.89-.42-12.75-6-12.75-6l8.08-2-5.63-1.79a8.13,8.13,0,0,1-4.47-7.23V41.18S55.51,53.29,67.63,53.29Z"/><path class="cls-41" d="M126.19,57.33s-1.86,5.6-12.74,6A69,69,0,0,1,95.9,60.87V53.29c12.12,0,32.31-12.11,32.31-12.11v5.11a8.14,8.14,0,0,1-4.46,7.23l-5.64,1.79Z"/><path class="cls-42" d="M95.9,53.29v7.58c-10.46-3-14.14-7.58-14.14-7.58s-3.67,4.61-14.13,7.58V43.7l8.48,5.55,5.65-8.07,5.66,8.07L95.9,43.7Z"/><path class="cls-43" d="M84.15,124.52,81.76,126l-2.32-1.58-9.82-6.64A32.73,32.73,0,0,1,55.51,90.65V69.45c8.72,0,14.82-1.54,18.94-3.27l7.31,7.31,7.31-7.31c4.12,1.73,10.22,3.27,19,3.27V91.36a32.63,32.63,0,0,1-15.23,27.85Z"/><path class="cls-44" d="M113.45,63.35c.87,0,1.73,0,2.64,0V90.78a40.37,40.37,0,0,1-19.91,34.81L88,130.38l-.2-.35-3.67-5.51,8.64-5.31A32.63,32.63,0,0,0,108,91.36V69.45c-8.73,0-14.83-1.54-19-3.27-5.33-2.22-7.31-4.81-7.31-4.81s-2,2.59-7.31,4.81c-4.12,1.73-10.22,3.27-18.94,3.27v21.2a32.73,32.73,0,0,0,14.11,27.13l9.82,6.64L75.7,130l-.06.09-9.77-6.33a40.39,40.39,0,0,1-18.44-33.9V63.39c.91,0,1.78,0,2.65,0a69,69,0,0,0,17.55-2.48c10.46-3,14.13-7.58,14.13-7.58s3.68,4.61,14.14,7.58A69,69,0,0,0,113.45,63.35Z"/><path class="cls-45" d="M81.76,53.29s3.68,4.61,14.14,7.58v-4c-10.46-3-14.14-7.58-14.14-7.58s-3.67,4.61-14.13,7.58v4C78.09,57.9,81.76,53.29,81.76,53.29Z"/><path class="cls-46" d="M108,66.42c-7,0-13-1-17.78-3-4.36-1.81-6.07-3.85-6.07-3.85a3.09,3.09,0,0,0-2.37-1.17,3.2,3.2,0,0,0-2.41,1.13s-1.73,2.07-6.12,3.9c-4.77,2-10.75,3-17.76,3a3,3,0,0,0-3,3v21.2a35.58,35.58,0,0,0,15.45,29.63l12.13,8.22a3.05,3.05,0,0,0,3.3.07l11-6.78A35.77,35.77,0,0,0,111,91.36V69.45A3,3,0,0,0,108,66.42Zm0,24.94a32.63,32.63,0,0,1-15.23,27.85l-8.64,5.31L81.76,126l-2.32-1.58-9.82-6.64A32.73,32.73,0,0,1,55.51,90.65V69.45c8.72,0,14.82-1.54,18.94-3.27,5.33-2.22,7.31-4.81,7.31-4.81s2,2.59,7.31,4.81c4.12,1.73,10.22,3.27,19,3.27Z"/><polygon class="cls-42" points="88.02 130.38 81.76 134.07 75.64 130.12 75.7 130.03 79.44 124.42 81.76 126 84.14 124.52 87.82 130.03 88.02 130.38"/><path class="cls-42" d="M89.07,66.18l-7.31,7.31-7.31-7.31c5.33-2.22,7.31-4.81,7.31-4.81S83.74,64,89.07,66.18Z"/><path class="cls-47" d="M76.74,68.46l5,5,5-5a26.53,26.53,0,0,1-5-3A26.4,26.4,0,0,1,76.74,68.46Z"/><path class="cls-48" d="M128.21,46.29V41.18S108,53.29,95.9,53.29v7.58a57.51,57.51,0,0,0,6.17,1.4,8.06,8.06,0,0,1,8-7h8.07l5.64-1.79A8.14,8.14,0,0,0,128.21,46.29Z"/><path class="cls-48" d="M35.31,46.29V41.18s20.2,12.11,32.32,12.11v7.58a57.17,57.17,0,0,1-6.18,1.4,8,8,0,0,0-8-7H45.41l-5.63-1.79A8.13,8.13,0,0,1,35.31,46.29Z"/><ellipse class="cls-49" cx="91.22" cy="52.7" rx="1.67" ry="2.32" transform="translate(-10.54 79.97) rotate(-45.02)"/><ellipse class="cls-50" cx="66.98" cy="99.15" rx="1.67" ry="2.32" transform="translate(-50.5 76.45) rotate(-45.02)"/><ellipse class="cls-49" cx="72.53" cy="51.69" rx="0.83" ry="1.16" transform="translate(-15.31 66.46) rotate(-45.02)"/><ellipse class="cls-50" cx="73.05" cy="105.18" rx="3.32" ry="4.62" transform="translate(-52.99 82.5) rotate(-45.02)"/><path d="M130.23,46.28v-5.1a2,2,0,0,0-3.06-1.74C127,39.56,109.48,50,97.92,51.15V43.7A2,2,0,0,0,94.79,42L88,46.49,83.42,40a2.1,2.1,0,0,0-3.31,0l-4.53,6.47L68.73,42a2,2,0,0,0-3.12,1.69v7.45C54,50,36.54,39.56,36.35,39.44a2,2,0,0,0-3.06,1.74v5.1a10,10,0,0,0,5,8.73l-1.47.36a2.06,2.06,0,0,0-1.28,1A2,2,0,0,0,35.42,58c.08.24,1.82,5.17,10,6.87v25a42.25,42.25,0,0,0,19.37,35.6l15.89,10.28a2,2,0,0,0,1.09.32,2.09,2.09,0,0,0,1-.27l14.42-8.49a42.57,42.57,0,0,0,20.9-36.55V75.51h-4V90.78a38.51,38.51,0,0,1-18.91,33.07l-6.49,3.82L87,125.15l6.86-4.22a32.77,32.77,0,0,0,4.72-3.53l-2.69-3a28.91,28.91,0,0,1-4.15,3.1l-9.92,6.1L70.75,116.1A30.56,30.56,0,0,1,57.53,90.64v-3h-4v3a34.62,34.62,0,0,0,15,28.81L76.65,125l-1.58,2.37L67,122.1A38.22,38.22,0,0,1,49.45,89.89V65.39C69,65,78.35,59,81.76,56.11,85.17,59,94.53,65,114.07,65.39v6.08h4V64.84c8.17-1.7,9.92-6.63,10-6.87a2,2,0,0,0-1.43-2.6L125.22,55A10,10,0,0,0,130.23,46.28ZM80,127.24l.63.43a2,2,0,0,0,1.13.35,2,2,0,0,0,1.06-.3l.73-.45,1.63,2.45-3.37,2-3.35-2.17ZM65.61,59.31a71.57,71.57,0,0,1-16,2h0c-4.72-.29-7.36-1.61-8.78-2.77l5.11-1.28A2,2,0,0,0,46,53.39l-5.48-1.76a6,6,0,0,1-3.22-5.35V44.65c5.81,3.2,18.65,9.71,28.28,10.56Zm28.27-1.23c-7.6-2.67-10.5-6-10.54-6a2.06,2.06,0,0,0-1.57-.75h0A2,2,0,0,0,80.2,52s-3,3.39-10.55,6.06V47.44L75,50.94a2,2,0,0,0,2.76-.53l4-5.71,4,5.71a2,2,0,0,0,2.76.53l5.36-3.5Zm32.31-11.8A6,6,0,0,1,123,51.63l-5.47,1.76a2,2,0,0,0,.12,3.88l5.11,1.28c-1.42,1.16-4,2.48-8.78,2.77h0a71.39,71.39,0,0,1-16-2v-4.1c9.63-.85,22.46-7.36,28.27-10.56Z"/><path d="M99.42,110.61l3.17,2.5A35.39,35.39,0,0,0,110,91.36V69.45a2,2,0,0,0-2-2c-18.62,0-24.61-7.23-24.65-7.29a2,2,0,0,0-1.59-.78,2.1,2.1,0,0,0-1.61.77c-.06.07-6,7.3-24.66,7.3a2,2,0,0,0-2,2v6.06h4V71.44A50.38,50.38,0,0,0,74,68.55l6.36,6.37a2.06,2.06,0,0,0,1.43.59,2,2,0,0,0,1.43-.59l6.37-6.37A50.27,50.27,0,0,0,106,71.44V91.36A31.33,31.33,0,0,1,99.42,110.61Zm-17.66-40L77.9,66.77a22.52,22.52,0,0,0,3.86-2.58,22.93,22.93,0,0,0,3.86,2.58Z"/><rect x="53.49" y="79.55" width="4.04" height="4.04"/><path class="cls-47" d="M211.25,355.07a9.08,9.08,0,0,1-5.43-1.81v15.41a7.23,7.23,0,0,0,4,6.47l10.45,5.24V346a9,9,0,0,1-9,9Z"/><path class="cls-47" d="M254.31,327.63a6.33,6.33,0,0,1-1.48,1.15V346a9,9,0,0,1-9,9,9.83,9.83,0,0,1-1.81-.18V384l8.47-4.23a10.87,10.87,0,0,0,6-9.69V322.53A7.08,7.08,0,0,1,254.31,327.63Z"/><path class="cls-51" d="M267.3,336a7.23,7.23,0,0,1-10.85-6.26v40.32a10.87,10.87,0,0,1-6,9.69L242,384v18.08l14.4-8.21A21.7,21.7,0,0,0,267.3,375V336Z"/><path class="cls-51" d="M209.84,375.14a7.23,7.23,0,0,1-4-6.47V353.26a9,9,0,0,1-3.61-7.23v-5.42a7.26,7.26,0,0,1-7.23,7.23v21.84a21.8,21.8,0,0,0,13.16,20l12.15,5.21V380.38Z"/><path class="cls-52" d="M242,355.07v-.18a9,9,0,0,1-7.23-8.86v-5.42a7.25,7.25,0,0,1-7.23-7.23,7.25,7.25,0,0,1-7.23,7.23v61.47l-6.19,6.18a3.64,3.64,0,0,0-1,2.53v5.75a3.62,3.62,0,0,0,3.61,3.62H245.6a3.63,3.63,0,0,0,3.62-3.62v-5.75a3.65,3.65,0,0,0-1.05-2.53L242,402.08v-47Z"/><path class="cls-53" d="M144.35,343.25a6.65,6.65,0,0,1-1.48-1.16,7.06,7.06,0,0,1-2.13-5.1V322.53a7.08,7.08,0,0,1-2.14,5.1,7,7,0,0,1-3.83,2v.11a14.43,14.43,0,0,0-4.88,10.85v54.24a7.25,7.25,0,0,0,7.23,7.23,7.27,7.27,0,0,0,7.23-7.23v-51.6Z"/><path class="cls-54" d="M173.28,325.17A6.65,6.65,0,0,1,171.8,324a7.07,7.07,0,0,1-2.14-5.1v14.47a7.25,7.25,0,0,1-7.23,7.23,7.15,7.15,0,0,1-3.61-1v29.91a7.29,7.29,0,0,0,7.23,7.23,7.25,7.25,0,0,0,7.23-7.23V325.17Z"/><path class="cls-54" d="M202.21,340.61V328.78a6.33,6.33,0,0,1-1.48-1.15,7.08,7.08,0,0,1-2.14-5.1v7.23A7.23,7.23,0,0,1,187.74,336v4.59a7.29,7.29,0,0,0,7.24,7.23A7.26,7.26,0,0,0,202.21,340.61Z"/><path class="cls-55" d="M281.76,325.17a7.23,7.23,0,0,1-10.85-6.26v10.85a7.06,7.06,0,0,1-2.13,5.1A6.89,6.89,0,0,1,267.3,336v15.44a7.25,7.25,0,0,0,7.23,7.23,7.29,7.29,0,0,0,7.23-7.23V325.17Z"/><path class="cls-55" d="M310.69,343.25A7.23,7.23,0,0,1,299.84,337v-3.61a7.09,7.09,0,0,1-2.13,5.09,6.43,6.43,0,0,1-1.49,1.16V384a7.25,7.25,0,0,0,7.23,7.23,7.29,7.29,0,0,0,7.24-7.23V343.25Z"/><path class="cls-56" d="M129.89,340.61a14.43,14.43,0,0,1,4.88-10.85v-.11a7.41,7.41,0,0,1-1.27.11h-3.61a14.45,14.45,0,0,0-14.46,14.46v28.93a7.27,7.27,0,0,0,7.23,7.23,7.25,7.25,0,0,0,7.23-7.23V340.61Z"/><path class="cls-57" d="M158.82,339.63a6.43,6.43,0,0,1-1.49-1.16,7.09,7.09,0,0,1-2.13-5.09V337a7.23,7.23,0,0,1-10.85,6.26V384a7.29,7.29,0,0,0,7.23,7.23,7.26,7.26,0,0,0,7.24-7.23V339.63Z"/><path class="cls-58" d="M187.74,336a6.89,6.89,0,0,1-1.48-1.16,7.06,7.06,0,0,1-2.13-5.1V318.91a7.23,7.23,0,0,1-10.85,6.26v26.29a7.29,7.29,0,0,0,7.23,7.23,7.25,7.25,0,0,0,7.23-7.23V336Z"/><path class="cls-55" d="M213.06,333.38V322.53a7.26,7.26,0,0,1-7.24,7.23,7.15,7.15,0,0,1-3.61-1V346a9,9,0,1,0,18.08,0v-5.42a7.29,7.29,0,0,1-7.23-7.23Z"/><path class="cls-54" d="M252.83,346V328.78a7.15,7.15,0,0,1-3.61,1,7.26,7.26,0,0,1-7.24-7.23v10.85a7.29,7.29,0,0,1-7.23,7.23V346a9,9,0,0,0,7.23,8.86,9.83,9.83,0,0,0,1.81.18A9,9,0,0,0,252.83,346Z"/><path class="cls-54" d="M296.22,339.63a7.15,7.15,0,0,1-3.61,1,7.25,7.25,0,0,1-7.23-7.23V318.91a7.07,7.07,0,0,1-2.14,5.1,6.65,6.65,0,0,1-1.48,1.16v44.37a7.25,7.25,0,0,0,7.23,7.23,7.29,7.29,0,0,0,7.23-7.23V339.63Z"/><path class="cls-54" d="M325.15,340.61a14.49,14.49,0,0,0-4.88-10.85v-.11a7,7,0,0,1-3.83-2,7.08,7.08,0,0,1-2.14-5.1V337a7.06,7.06,0,0,1-2.13,5.1,6.65,6.65,0,0,1-1.48,1.16v51.6a7.27,7.27,0,0,0,7.23,7.23,7.25,7.25,0,0,0,7.23-7.23V340.61Z"/><path class="cls-59" d="M325.15,329.76h-3.62a7.38,7.38,0,0,1-1.26-.11v.11a14.49,14.49,0,0,1,4.88,10.85v32.54a7.25,7.25,0,0,0,7.23,7.23,7.27,7.27,0,0,0,7.23-7.23V344.22A14.45,14.45,0,0,0,325.15,329.76Z"/><path class="cls-60" d="M307.07,286.37a7.29,7.29,0,0,1-7.23-7.23V337a7.23,7.23,0,0,0,10.85,6.26,6.65,6.65,0,0,0,1.48-1.16,7.06,7.06,0,0,0,2.13-5.1V279.14A7.25,7.25,0,0,1,307.07,286.37Z"/><path class="cls-60" d="M285.38,264.67v-7.23a7.26,7.26,0,0,1-7.24,7.23,7.27,7.27,0,0,1-7.23-7.23v61.47a7.23,7.23,0,0,0,10.85,6.26,6.65,6.65,0,0,0,1.48-1.16,7.07,7.07,0,0,0,2.14-5.1V264.67Z"/><path class="cls-53" d="M249.22,329.76a7.15,7.15,0,0,0,3.61-1,6.33,6.33,0,0,0,1.48-1.15,7.08,7.08,0,0,0,2.14-5.1V282.75a7.29,7.29,0,0,1-7.23,7.23,7.26,7.26,0,0,1-7.24-7.23v39.78A7.26,7.26,0,0,0,249.22,329.76Z"/><path class="cls-53" d="M228.39,275.34a7.37,7.37,0,0,1-.87-3.44,7.29,7.29,0,0,1-7.23,7.24,7.26,7.26,0,0,1-7.23-7.24v61.48a7.29,7.29,0,0,0,7.23,7.23,7.25,7.25,0,0,0,7.23-7.23V275.52Z"/><path class="cls-53" d="M198.59,279.14V271.9a7.29,7.29,0,0,1-7.23,7.24,7.26,7.26,0,0,1-7.23-7.24v57.86a7.06,7.06,0,0,0,2.13,5.1,6.89,6.89,0,0,0,1.48,1.16,7.23,7.23,0,0,0,10.85-6.26V279.14Z"/><path class="cls-53" d="M169.66,264.67a7.27,7.27,0,0,1-7.23,7.23,7.25,7.25,0,0,1-7.23-7.23v68.71a7.09,7.09,0,0,0,2.13,5.09,6.43,6.43,0,0,0,1.49,1.16,7.15,7.15,0,0,0,3.61,1,7.25,7.25,0,0,0,7.23-7.23V264.67Z"/><path class="cls-56" d="M140.74,322.53V337a7.06,7.06,0,0,0,2.13,5.1,6.65,6.65,0,0,0,1.48,1.16A7.23,7.23,0,0,0,155.2,337V279.14a7.29,7.29,0,0,1-7.23,7.23,7.25,7.25,0,0,1-7.23-7.23v43.39Z"/><path class="cls-59" d="M138.6,327.63a7.08,7.08,0,0,0,2.14-5.1V286.37a14.46,14.46,0,0,0-14.47,14.46v21.7a7.25,7.25,0,0,0,7.23,7.23,7.41,7.41,0,0,0,1.27-.11A7,7,0,0,0,138.6,327.63Z"/><path class="cls-56" d="M184.13,261.06v-3.62a7.29,7.29,0,0,1-7.23,7.23,7.26,7.26,0,0,1-7.24-7.23v61.47a7.07,7.07,0,0,0,2.14,5.1,6.65,6.65,0,0,0,1.48,1.16,7.23,7.23,0,0,0,10.85-6.26V261.06Z"/><path class="cls-56" d="M213.06,322.53V282.75a7.26,7.26,0,0,1-7.24,7.23,7.29,7.29,0,0,1-7.23-7.23v39.78a7.08,7.08,0,0,0,2.14,5.1,6.33,6.33,0,0,0,1.48,1.15,7.15,7.15,0,0,0,3.61,1A7.26,7.26,0,0,0,213.06,322.53Z"/><path class="cls-56" d="M242,333.38V271.9a7.26,7.26,0,0,1-7.23,7.24,7.08,7.08,0,0,1-5.1-2.14,6.39,6.39,0,0,1-1.26-1.66l-.87.18v57.86a7.25,7.25,0,0,0,7.23,7.23,7.29,7.29,0,0,0,7.23-7.23Z"/><path class="cls-56" d="M263.68,279.14a7.29,7.29,0,0,1-7.23-7.24v57.86A7.23,7.23,0,0,0,267.3,336a6.89,6.89,0,0,0,1.48-1.16,7.06,7.06,0,0,0,2.13-5.1V271.9A7.26,7.26,0,0,1,263.68,279.14Z"/><path class="cls-61" d="M299.84,275.52V264.67a7.25,7.25,0,0,1-7.23,7.23,7.27,7.27,0,0,1-7.23-7.23v68.71a7.25,7.25,0,0,0,7.23,7.23,7.15,7.15,0,0,0,3.61-1,6.43,6.43,0,0,0,1.49-1.16,7.09,7.09,0,0,0,2.13-5.09V275.52Z"/><path class="cls-62" d="M314.3,322.53a7.08,7.08,0,0,0,2.14,5.1,7,7,0,0,0,3.83,2,7.38,7.38,0,0,0,1.26.11,7.26,7.26,0,0,0,7.24-7.23v-21.7a14.46,14.46,0,0,0-14.47-14.46v36.16Z"/><path class="cls-56" d="M148,286.37a7.29,7.29,0,0,0,7.23-7.23v-43.4a14.46,14.46,0,0,0-14.46,14.47v28.93A7.25,7.25,0,0,0,148,286.37Z"/><path class="cls-56" d="M169.66,243v14.46a7.26,7.26,0,0,0,7.24,7.23,7.29,7.29,0,0,0,7.23-7.23V217.66a14,14,0,0,1,.43-3.5l-.43-.11a14.47,14.47,0,0,0-14.47,14.46Z"/><path class="cls-56" d="M198.59,217.66v65.09a7.29,7.29,0,0,0,7.23,7.23,7.26,7.26,0,0,0,7.24-7.23V210.43A14.4,14.4,0,0,1,215,203.2h-1.95a14.46,14.46,0,0,0-14.47,14.46Z"/><path class="cls-56" d="M227.52,271.9a7.37,7.37,0,0,0,.87,3.44,6.39,6.39,0,0,0,1.26,1.66,7.08,7.08,0,0,0,5.1,2.14A7.26,7.26,0,0,0,242,271.9V210.43A14.49,14.49,0,0,0,227.52,196V271.9Z"/><path class="cls-56" d="M256.45,217.66V271.9a7.29,7.29,0,0,0,7.23,7.24,7.26,7.26,0,0,0,7.23-7.24V217.66a14,14,0,0,0-.43-3.5,14.48,14.48,0,0,0-14-11H245.6l-.11.43A14.48,14.48,0,0,1,256.45,217.66Z"/><path class="cls-56" d="M285.38,243v21.69a7.27,7.27,0,0,0,7.23,7.23,7.25,7.25,0,0,0,7.23-7.23V235.74a14.45,14.45,0,0,0-14.46-14.46l-1.74.36a14.65,14.65,0,0,1,1.74,6.87Z"/><path class="cls-62" d="M299.84,264.67v14.47a7.29,7.29,0,0,0,7.23,7.23,7.25,7.25,0,0,0,7.23-7.23V250.21a14.46,14.46,0,0,0-14.46-14.47v28.93Z"/><path class="cls-62" d="M270.91,235.74v21.7a7.27,7.27,0,0,0,7.23,7.23,7.26,7.26,0,0,0,7.24-7.23V228.51a14.65,14.65,0,0,0-1.74-6.87,14.48,14.48,0,0,0-12.73-7.59l-.43.11a14,14,0,0,1,.43,3.5Z"/><path class="cls-62" d="M242,253.82v28.93a7.26,7.26,0,0,0,7.24,7.23,7.29,7.29,0,0,0,7.23-7.23V217.66A14.46,14.46,0,0,0,242,203.2H240a14.4,14.4,0,0,1,1.95,7.23Z"/><path class="cls-59" d="M213.06,253.82V271.9a7.26,7.26,0,0,0,7.23,7.24,7.29,7.29,0,0,0,7.23-7.24V196a14.49,14.49,0,0,0-14.46,14.46Z"/><path class="cls-59" d="M184.13,235.74V271.9a7.26,7.26,0,0,0,7.23,7.24,7.29,7.29,0,0,0,7.23-7.24V217.66a14.48,14.48,0,0,1,11-14l-.11-.43H198.59a14.48,14.48,0,0,0-14,11,14,14,0,0,0-.43,3.5Z"/><path class="cls-59" d="M155.2,264.67a7.25,7.25,0,0,0,7.23,7.23,7.27,7.27,0,0,0,7.23-7.23V228.51a14.47,14.47,0,0,1,2.46-8.06l-2.46.83a14.45,14.45,0,0,0-14.46,14.46v28.93Z"/></svg>