<?xml version="1.0" encoding="utf-8"?>
<!-- Generator: Adobe Illustrator 16.0.0, SVG Export Plug-In . SVG Version: 6.00 Build 0)  -->
<!DOCTYPE svg PUBLIC "-//W3C//DTD SVG 1.0//EN" "http://www.w3.org/TR/2001/REC-SVG-20010904/DTD/svg10.dtd">
<svg version="1.0" id="Layer_1" xmlns="http://www.w3.org/2000/svg" xmlns:xlink="http://www.w3.org/1999/xlink" x="0px" y="0px"
	 width="100px" height="100px" viewBox="0 0 100 100" enable-background="new 0 0 100 100" xml:space="preserve">
<path fill="#7CB342" d="M79.999,26.666c-6.914,0-13.277,1.76-18.353,4.709l0,0C56.706,19.012,41.425,10,23.333,10H10
	c4.115,4.115,6.667,9.805,6.667,16.087v10.579c0,14.727,11.939,26.667,26.666,26.667c3.371,0,6.544-0.978,9.331-2.696
	c0.438,1.958,0.669,3.975,0.669,6.029V90H60V66.666c0-0.338-0.016-0.672-0.025-1.008c1.57,0.652,3.263,1.008,5.025,1.008
	c11.048,0,19.999-8.954,19.999-20v-7.933c0-4.71,1.914-8.981,5-12.067H79.999z"/>
<path fill="#F1F7E9" d="M45.286,47.246L34.958,36.917l4.713-4.713L50,42.532c1.805,1.805,3.403,3.818,4.771,5.99
	c1.195-2.498,1.896-5.406,1.896-8.522c0-12.65-15.267-23.333-33.333-23.333h-1.537c1.009,2.995,1.537,6.168,1.537,9.421v10.579
	c0,11.028,8.971,20,20,20c2.565,0,4.957-0.927,6.993-2.504C49.034,51.642,47.347,49.307,45.286,47.246z"/>
<path fill="#568B3F" d="M63.262,38.272c1.147-0.809,2.408-1.544,3.777-2.179c-0.336-2.24-0.952-4.414-1.824-6.501
	c-1.248,0.532-2.436,1.135-3.565,1.792C62.527,33.584,63.081,35.89,63.262,38.272z"/>
<path fill="#F1F7E9" d="M63.261,38.259c0.044,0.577,0.071,1.156,0.071,1.741c0,5.942-1.907,11.363-5.042,15.482
	c1.531,2.714,3.989,4.52,6.71,4.52c7.353,0,13.332-5.979,13.332-13.335v-7.933c0-1.833,0.21-3.636,0.609-5.384
	C72.863,33.544,67.306,35.406,63.261,38.259z"/>
<path fill="#DBEBC7" d="M63.261,38.259c0.044,0.577,0.071,1.156,0.071,1.741c0,0.77-0.034,1.531-0.097,2.283
	c3.919-2.774,9.268-4.615,15.136-4.905c0.077-1.367,0.269-2.712,0.57-4.028C72.863,33.544,67.305,35.406,63.261,38.259z"/>
<path fill="#DBEBC7" d="M27.333,36.666V26.087c0-3.225-0.52-6.373-1.513-9.345c-0.823-0.045-1.651-0.076-2.487-0.076h-1.537
	c1.009,2.995,1.537,6.168,1.537,9.421v10.579c0,11.028,8.971,20,20,20c0.561,0,1.11-0.058,1.653-0.142
	C35.061,55.358,27.333,46.9,27.333,36.666z"/>
<path fill="#568B3F" d="M59.975,65.647c1.271,0.529,2.62,0.867,4.023,0.975c-0.002-2.32-0.221-4.605-0.627-6.84
	c-2.059-0.557-3.865-2.14-5.084-4.297c-0.039,0.051-0.083,0.097-0.122,0.148C59.243,58.789,59.872,62.151,59.975,65.647z"/>
</svg>
